<?xml version="1.0" encoding="utf-8"?>
<!-- Generator: Adobe Illustrator 22.1.0, SVG Export Plug-In . SVG Version: 6.00 Build 0)  -->
<svg xmlns="http://www.w3.org/2000/svg" viewBox="0 0 100 100" style="enable-background:new 0 0 100 100;">
<style type="text/css">
	.st0{fill:#868686}
	.st1{fill:#9e9e9e}
	.st2{fill:#999999}
	.st3{fill:#949494}
	.st4{fill:#8F8F8F}
</style>
<polygon class="st0" points="75.191,55 87.945,42.568 70.5,40.034 73.451,22.825 57.897,31.002 50,15 42.103,31.002 26.549,22.825 
	29.5,40.034 12.055,42.568 24.809,55 12.055,67.432 29.5,69.966 26.549,87.175 42.103,78.998 50,95 57.897,78.998 73.451,87.175 
	70.5,69.966 87.945,67.432 "/>
<polygon class="st1" points="72.042,55 83.202,44.122 67.937,41.904 70.52,26.847 56.91,34.002 50,20 43.09,34.002 29.48,26.847 
	32.063,41.904 16.798,44.122 27.958,55 16.798,65.878 32.063,68.096 29.48,83.153 43.09,75.998 50,90 56.91,75.998 70.52,83.153 
	67.937,68.096 83.202,65.878 "/>
</svg>
