<?xml version="1.0" encoding="utf-8"?>
<!-- Generator: Adobe Illustrator 22.1.0, SVG Export Plug-In . SVG Version: 6.00 Build 0)  -->
<svg xmlns="http://www.w3.org/2000/svg" viewBox="0 0 100 100" style="enable-background:new 0 0 100 100;">
<style type="text/css">
	.st0{fill:#9E9E9E;}
	.st1{fill:#757575;}
	.st2{fill:#999999;}
	.st3{fill:#949494;}
	.st4{fill:#8F8F8F;}
</style>
<circle class="st0" cx="50" cy="55.02" r="35"/>
<circle class="st1" cx="50" cy="55.02" r="31"/>
<polygon class="st2" points="50,2.447 65.451,33.754 100,38.774 75,63.143 80.902,97.553 50,81.307 19.098,97.553 25,63.143 
	0,38.774 34.549,33.754 "/>
<polygon class="st3" points="50,15 61.372,38.043 86.801,41.738 68.401,59.674 72.744,85 50,73.043 27.256,85 31.599,59.674 
	13.199,41.738 38.628,38.043 "/>
<polygon class="st4" points="50,26.224 57.725,41.877 75,44.387 62.5,56.572 65.451,73.776 50,65.653 34.549,73.776 37.5,56.572 
	25,44.387 42.275,41.877 "/>
</svg>
