<?xml version="1.0" encoding="utf-8"?>
<!-- Generator: Adobe Illustrator 22.1.0, SVG Export Plug-In . SVG Version: 6.00 Build 0)  -->
<svg version="1.1" id="Layer_1" xmlns="http://www.w3.org/2000/svg" xmlns:xlink="http://www.w3.org/1999/xlink" x="0px" y="0px"
	 viewBox="0 0 127.69 112.79" style="enable-background:new 0 0 127.69 112.79;" xml:space="preserve">
<style type="text/css">
	.st0{fill:#8A8A8A;stroke:#000000;stroke-width:2;stroke-linejoin:round;}
	.st1{fill:#707070;}
	.st2{fill:#8A8A8A;}
	.st3{fill:none;stroke:#000000;stroke-width:2;stroke-linejoin:round;}
	.st4{fill:none;stroke:#000000;stroke-width:2;stroke-linecap:round;stroke-linejoin:round;}
	.st5{fill:none;stroke:#000000;stroke-width:2;stroke-miterlimit:10;}
	.st6{fill:#616161;stroke:#000000;stroke-width:2;stroke-linejoin:round;}
	.st7{fill:#7D7D7D;}
	.st8{fill:#575757;}
	.st9{fill:#949494;stroke:#000000;stroke-width:2;stroke-miterlimit:10;}
	.st10{fill:#949494;stroke:#000000;stroke-width:2;stroke-linecap:round;stroke-miterlimit:10;}
	.st11{fill:#828282;}
	.st12{fill-opacity:0.5;}
	.st13{fill:#7986CB;stroke:#000000;stroke-width:2;stroke-miterlimit:10;}
	.st14{fill:#3F51B5;stroke:#000000;stroke-width:2;stroke-miterlimit:10;}
	.st15{fill:#303F9F;stroke:#000000;stroke-width:2;stroke-miterlimit:10;}
	.st16{fill:#1A237E;stroke:#000000;stroke-width:2;stroke-miterlimit:10;}
</style>
<path class="st0" d="M68,76.59c-4.504-11.665-5.1-24.477-1.7-36.51c2.69-9.571-2.889-19.51-12.46-22.2s-19.51,2.889-22.2,12.46l0,0
	c-3.472,12.441-11.018,23.356-21.43,31l0,0C-0.717,70.476-2.169,86.741,6.967,97.668c5.373,6.427,13.533,9.843,21.883,9.162
	c11.48,8.394,27.591,5.892,35.985-5.588C70.048,94.111,71.243,84.806,68,76.59z"/>
<path class="st1" d="M20.34,103.5C11.272,100.951,4.109,93.99,1.3,85c2.163,14.056,15.311,23.697,29.367,21.533
	c6.626-1.02,12.593-4.583,16.633-9.933C40.188,103.545,29.914,106.174,20.34,103.5z"/>
<path class="st2" d="M19.13,92.38c3.569,13.766,17.621,22.033,31.388,18.464s22.033-17.621,18.464-31.388
	c-0.235-0.907-0.52-1.801-0.852-2.677"/>
<path class="st1" d="M68.31,77.32c1.326,15.34-10.034,28.852-25.375,30.178c-6.749,0.584-13.48-1.31-18.935-5.328
	c8.867,11.111,25.063,12.931,36.174,4.064C68.811,99.341,72.086,87.705,68.31,77.32z"/>
<path class="st3" d="M68,76.59c-4.504-11.665-5.1-24.477-1.7-36.51c2.69-9.571-2.889-19.51-12.46-22.2s-19.51,2.889-22.2,12.46l0,0
	c-3.472,12.441-11.018,23.356-21.43,31l0,0C-0.717,70.476-2.169,86.741,6.967,97.668c5.373,6.427,13.533,9.843,21.883,9.162
	c11.48,8.394,27.591,5.892,35.985-5.588C70.048,94.111,71.243,84.806,68,76.59z"/>
<path class="st4" d="M19.13,92.38c3.569,13.766,17.621,22.033,31.388,18.464s22.033-17.621,18.464-31.388
	c-0.235-0.907-0.52-1.801-0.852-2.677"/>
<path class="st5" d="M102,109.28L102,109.28c5.651,3.76,13.28,2.226,17.04-3.425c0.712-1.071,1.252-2.247,1.6-3.485l0,0
	c6.119-17.648,7.62-36.568,4.36-54.96c0-0.32-0.11-0.64-0.17-1s-0.07-0.39-0.1-0.58l0,0c-2.545-12.349-14.619-20.297-26.969-17.751
	c-1.185,0.244-2.35,0.583-3.481,1.011"/>
<path class="st5" d="M62.14,69.06l0.3,0.51"/>
<path class="st3" d="M68,76.59c-4.504-11.665-5.1-24.477-1.7-36.51c2.69-9.571-2.889-19.51-12.46-22.2s-19.51,2.889-22.2,12.46l0,0
	c-3.472,12.441-11.018,23.356-21.43,31l0,0C-0.717,70.476-2.169,86.741,6.967,97.668c5.373,6.427,13.533,9.843,21.883,9.162
	c11.48,8.394,27.591,5.892,35.985-5.588C70.048,94.111,71.243,84.806,68,76.59z"/>
<path class="st4" d="M19.13,92.38c3.569,13.766,17.621,22.033,31.388,18.464s22.033-17.621,18.464-31.388
	c-0.235-0.907-0.52-1.801-0.852-2.677"/>
<path class="st5" d="M62.14,69.06l0.3,0.51"/>
<path class="st6" d="M54.15,22.94c1.983-6.389,4.666-12.54,8-18.34c-0.765-0.877-1.77-1.513-2.89-1.83l-0.57-0.13
	c-3.455,5.977-6.235,12.319-8.29,18.91C51.45,22.435,52.776,22.927,54.15,22.94z"/>
<g>
	<path class="st7" d="M46.87,1.34c-0.549-0.125-1.108-0.205-1.67-0.24h-0.08H44.6c-6.917-0.435-13.818,1.064-19.93,4.33
		c4.048,5.64,9.589,10.038,16,12.7l0.47,0.21h0.08l0,0c0.522,0.215,1.061,0.389,1.61,0.52c5.165,1.192,10.445-1.469,12.56-6.33
		C55.617,7.234,52.035,2.53,46.87,1.34z"/>
	<path class="st8" d="M47.65,11.7c-2.16-0.35-4.39-0.85-6.7-1.4C35.85,9.102,30.852,7.507,26,5.53l-1.35-0.1
		c4.048,5.64,9.589,10.038,16,12.7l0.47,0.21h0.08l0,0c0.522,0.215,1.061,0.389,1.61,0.52c5.165,1.192,10.445-1.469,12.56-6.33
		C55.37,12.53,52,12.39,47.65,11.7z"/>
	<path class="st3" d="M46.87,1.34c-0.549-0.125-1.108-0.205-1.67-0.24h-0.08H44.6c-6.917-0.435-13.818,1.064-19.93,4.33
		c4.048,5.64,9.589,10.038,16,12.7l0.47,0.21h0.08l0,0c0.522,0.215,1.061,0.389,1.61,0.52c5.165,1.192,10.445-1.469,12.56-6.33
		C55.617,7.234,52.035,2.53,46.87,1.34z"/>
	<path class="st4" d="M26,5.53c4.868,1.979,9.883,3.574,15,4.77c2.31,0.55,4.54,1,6.7,1.4"/>
</g>
<path class="st9" d="M124.73,45.87L124.73,45.87c-2.665-12.42-14.894-20.327-27.314-17.662c-4.709,1.011-8.982,3.474-12.216,7.042
	c-12.603-1.585-24.105,7.347-25.69,19.95c-0.459,3.647-0.037,7.35,1.23,10.8c0.404,1.03,0.875,2.032,1.41,3l0,0l0.3,0.51
	c0.16,0.28,0.32,0.56,0.49,0.84c9.49,16.093,22.936,29.494,39.06,38.93l0,0c5.651,3.76,13.28,2.226,17.04-3.425
	c0.712-1.071,1.252-2.247,1.6-3.485l0,0c6.119-17.648,7.62-36.568,4.36-54.96c0-0.32-0.11-0.64-0.17-1S124.76,46.06,124.73,45.87z"
	/>
<path class="st6" d="M89.51,37.15c-2.161-6.329-3.61-12.88-4.32-19.53c-1.134-0.259-2.319-0.182-3.41,0.22
	c-0.185,0.068-0.366,0.148-0.54,0.24c0.723,6.863,2.205,13.624,4.42,20.16c0.843,0.063,1.69-0.06,2.48-0.36
	C88.629,37.703,89.091,37.457,89.51,37.15z"/>
<path class="st10" d="M96.76,39.87c-9.821-8.057-24.313-6.626-32.37,3.194c-5.154,6.283-6.61,14.819-3.83,22.456
	c0.391,1.034,0.859,2.037,1.4,3"/>
<path class="st11" d="M123.8,42.65c-1.293-3.499-3.425-6.628-6.21-9.11c0.77,1.27,1.419,2.609,1.94,4
	c0.422,1.119,0.757,2.269,1,3.44l0,0c0,0.21,0.07,0.42,0.11,0.63s0.13,0.68,0.18,1c3.486,19.61,1.899,39.786-4.61,58.61l0,0
	c-1.137,4.036-4.137,7.285-8.07,8.74c-0.967,0.361-1.974,0.603-3,0.72c6.437,2.065,13.329-1.479,15.394-7.916
	c0.048-0.15,0.094-0.302,0.136-0.454l0,0c6.099-17.632,7.589-36.53,4.33-54.9c0-0.32-0.11-0.64-0.17-1s-0.07-0.39-0.1-0.58l0,0
	C124.497,44.749,124.187,43.686,123.8,42.65z"/>
<g>
	
		<ellipse transform="matrix(0.9377 -0.3474 0.3474 0.9377 -27.897 44.3427)" class="st12" cx="109.708" cy="99.966" rx="1.5" ry="2.88"/>
	
		<ellipse transform="matrix(0.9377 -0.3474 0.3474 0.9377 -20.9038 40.225)" class="st12" cx="101.722" cy="78.406" rx="1.5" ry="2.88"/>
	
		<ellipse transform="matrix(0.9377 -0.3474 0.3474 0.9377 -13.604 35.9297)" class="st12" cx="93.394" cy="55.902" rx="1.5" ry="2.88"/>
	
		<ellipse transform="matrix(0.8538 -0.5206 0.5206 0.8538 -34.3615 63.856)" class="st12" cx="96.521" cy="93.112" rx="1.5" ry="2.88"/>
	
		<ellipse transform="matrix(0.9869 -0.1614 0.1614 0.9869 -12.4689 19.5912)" class="st12" cx="114.329" cy="86.529" rx="1.5" ry="2.88"/>
	
		<ellipse transform="matrix(0.9689 -0.2475 0.2475 0.9689 -11.9795 28.7749)" class="st12" cx="108.461" cy="62.035" rx="1.5" ry="2.88"/>
	
		<ellipse transform="matrix(0.8963 -0.4435 0.4435 0.8963 -22.552 45.0485)" class="st12" cx="85.021" cy="70.732" rx="1.5" ry="2.88"/>
	
		<ellipse transform="matrix(0.8128 -0.5825 0.5825 0.8128 -34.6692 64.6916)" class="st12" cx="83.32" cy="86.288" rx="1.5" ry="2.88"/>
	
		<ellipse transform="matrix(0.9961 -0.0877 0.0877 0.9961 -5.9158 10.7914)" class="st12" cx="119.886" cy="72.738" rx="1.5" ry="2.88"/>
	
		<ellipse transform="matrix(0.9689 -0.2475 0.2475 0.9689 -8.4924 30.6151)" class="st12" cx="117.524" cy="49.086" rx="1.5" ry="2.88"/>
	
		<ellipse transform="matrix(0.8963 -0.4435 0.4435 0.8963 -22.4034 37.8473)" class="st12" cx="69.702" cy="66.814" rx="1.5" ry="2.88"/>
	
		<ellipse transform="matrix(0.9182 -0.396 0.396 0.9182 -13.3858 34.1799)" class="st12" cx="76.086" cy="49.508" rx="1.5" ry="2.88"/>
	
		<ellipse transform="matrix(0.9546 -0.2979 0.2979 0.9546 -7.3504 32.0293)" class="st12" cx="101.41" cy="40.131" rx="1.5" ry="2.88"/>
</g>
<path class="st5" d="M102,109.28L102,109.28c5.651,3.76,13.28,2.226,17.04-3.425c0.712-1.071,1.252-2.247,1.6-3.485l0,0
	c6.119-17.648,7.62-36.568,4.36-54.96c0-0.32-0.11-0.64-0.17-1s-0.07-0.39-0.1-0.58l0,0c-2.545-12.349-14.619-20.297-26.969-17.751
	c-1.185,0.244-2.35,0.583-3.481,1.011"/>
<g>
	<path class="st7" d="M73.51,20.93c-0.564,0.021-1.126,0.088-1.68,0.2l0,0h-0.08l-0.5,0.11c-6.797,1.384-13.074,4.631-18.13,9.38
		c5.362,4.391,11.84,7.203,18.71,8.12l0.52,0.08h0.08l0,0c0.56,0.072,1.125,0.099,1.69,0.08c5.298-0.182,9.713-4.117,10.5-9.36
		C83.472,24.37,78.803,20.751,73.51,20.93z"/>
	<path class="st8" d="M76.93,30.74c-2.17,0.22-4.45,0.31-6.83,0.38c-5.228,0.154-10.46-0.097-15.65-0.75l-1.33,0.26
		c5.362,4.391,11.84,7.203,18.71,8.12l0.52,0.08h0.08l0,0c0.56,0.072,1.125,0.099,1.69,0.08c5.298-0.182,9.713-4.117,10.5-9.36
		C84.62,29.55,81.3,30.28,76.93,30.74z"/>
	<path class="st3" d="M73.51,20.93c-0.564,0.021-1.126,0.088-1.68,0.2l0,0h-0.08l-0.5,0.11c-6.797,1.384-13.074,4.631-18.13,9.38
		c5.362,4.391,11.84,7.203,18.71,8.12l0.52,0.08h0.08l0,0c0.56,0.072,1.125,0.099,1.69,0.08c5.298-0.182,9.713-4.117,10.5-9.36
		C83.472,24.37,78.803,20.751,73.51,20.93z"/>
	<path class="st4" d="M54.45,30.37c5.19,0.653,10.422,0.904,15.65,0.75c2.38-0.073,4.657-0.2,6.83-0.38"/>
</g>
<g>
	<path class="st13" d="M112.002,47.271c-1.599,0-3.198-0.61-4.418-1.83c-24.117-24.116-63.36-24.117-87.478,0
		c-2.441,2.44-6.396,2.44-8.836,0c-2.44-2.44-2.44-6.396,0-8.836c28.99-28.989,76.16-28.989,105.149,0
		c2.441,2.44,2.441,6.396,0,8.836C115.2,46.661,113.601,47.271,112.002,47.271z"/>
	<path class="st14" d="M96.592,62.681c-1.599,0-3.198-0.61-4.418-1.83c-7.567-7.567-17.628-11.734-28.329-11.734
		c-10.701,0-20.762,4.167-28.329,11.734c-2.441,2.441-6.396,2.441-8.836,0c-2.44-2.439-2.44-6.396,0-8.836
		c9.927-9.927,23.126-15.394,37.165-15.394c14.039,0,27.238,5.467,37.164,15.394c2.441,2.44,2.441,6.396,0,8.836
		C99.79,62.071,98.19,62.681,96.592,62.681z"/>
	<path class="st15" d="M81.182,78.092c-1.599,0-3.198-0.61-4.418-1.83c-7.125-7.122-18.715-7.122-25.837,0
		c-2.441,2.441-6.396,2.441-8.836,0c-2.44-2.439-2.44-6.396,0-8.835c11.996-11.996,31.517-11.996,43.509,0
		c2.441,2.439,2.441,6.396,0,8.835C84.38,77.481,82.78,78.092,81.182,78.092z"/>
	<circle class="st16" cx="63.846" cy="89.179" r="8.747"/>
</g>
</svg>
