<svg xmlns="http://www.w3.org/2000/svg" viewBox="0 0 127.69 112.79"><defs><style>.a,.c{fill:#cddc39;}.a,.d,.e,.f,.g,.i,.j,.l{stroke:#000;stroke-width:2px;}.a,.d,.e,.f,.g{stroke-linejoin:round;}.b{fill:#afb42b;}.d,.e,.l{fill:none;}.e,.j{stroke-linecap:round;}.f{fill:#795548;}.g{fill:#4caf50;}.h{fill:#2e7d32;}.i,.j{fill:#f44336;}.i,.j,.l{stroke-miterlimit:10;}.k{fill:#d32f2f;}.m{fill-opacity:0.5;}</style></defs><path class="a" d="M68,76.59a57.76,57.76,0,0,1-1.7-36.51,18,18,0,0,0-34.66-9.74,57.7,57.7,0,0,1-21.43,31h0a25.79,25.79,0,0,0,18.64,45.49A25.75,25.75,0,0,0,68,76.59Z"/><path class="b" d="M20.34,103.5A27.84,27.84,0,0,1,1.3,85a25.75,25.75,0,0,0,46,11.6A27.86,27.86,0,0,1,20.34,103.5Z"/><path class="c" d="M19.13,92.38a25.75,25.75,0,1,0,49-15.6"/><path class="b" d="M68.31,77.32A27.88,27.88,0,0,1,24,102.17,25.74,25.74,0,0,0,68.31,77.32Z"/><path class="d" d="M68,76.59a57.76,57.76,0,0,1-1.7-36.51,18,18,0,0,0-34.66-9.74,57.7,57.7,0,0,1-21.43,31h0a25.79,25.79,0,0,0,18.64,45.49A25.75,25.75,0,0,0,68,76.59Z"/><path class="e" d="M19.13,92.38a25.75,25.75,0,1,0,49-15.6"/><path class="f" d="M54.15,22.94a90.87,90.87,0,0,1,8-18.34,6,6,0,0,0-2.89-1.83l-.57-.13A93.21,93.21,0,0,0,50.4,21.55a5.91,5.91,0,0,0,3.75,1.39Z"/><path class="g" d="M46.87,1.34A10.5,10.5,0,0,0,45.2,1.1h-.08l-.52,0A37.32,37.32,0,0,0,24.67,5.43a37.3,37.3,0,0,0,16,12.7l.47.21.08,0h0a10.81,10.81,0,0,0,1.61.52,11,11,0,0,0,12.56-6.33A11,11,0,0,0,46.87,1.34Z"/><path class="h" d="M47.65,11.7c-2.16-.35-4.39-.85-6.7-1.4A100.59,100.59,0,0,1,26,5.53l-1.35-.1a37.3,37.3,0,0,0,16,12.7l.47.21.08,0h0a10.81,10.81,0,0,0,1.61.52,11,11,0,0,0,12.56-6.33S52,12.39,47.65,11.7Z"/><path class="e" d="M26,5.53A100.59,100.59,0,0,0,41,10.3c2.31.55,4.54,1,6.7,1.4"/><path class="d" d="M46.87,1.34A10.5,10.5,0,0,0,45.2,1.1h-.08l-.52,0A37.32,37.32,0,0,0,24.67,5.43a37.3,37.3,0,0,0,16,12.7l.47.21.08,0h0a10.81,10.81,0,0,0,1.61.52,11,11,0,0,0,12.56-6.33A11,11,0,0,0,46.87,1.34Z"/><path class="i" d="M124.73,45.87h0A23,23,0,0,0,85.2,35.25,23,23,0,0,0,60.74,66a25.39,25.39,0,0,0,1.41,3h0l.3.51c.16.28.32.56.49.84A109.63,109.63,0,0,0,102,109.28h0a12.29,12.29,0,0,0,18.64-6.91h0A109.45,109.45,0,0,0,125,47.41c0-.32-.11-.64-.17-1S124.76,46.06,124.73,45.87Z"/><path class="f" d="M89.51,37.15a90.07,90.07,0,0,1-4.32-19.53,6,6,0,0,0-3.41.22,4.41,4.41,0,0,0-.54.24,93.24,93.24,0,0,0,4.42,20.16,5.78,5.78,0,0,0,2.48-.36A5.45,5.45,0,0,0,89.51,37.15Z"/><path class="j" d="M96.76,39.87a23,23,0,0,0-36.2,25.65,22,22,0,0,0,1.4,3"/><path class="k" d="M123.8,42.65a22.78,22.78,0,0,0-6.21-9.11,23.88,23.88,0,0,1,1.94,4,23,23,0,0,1,1,3.44h0c0,.21.07.42.11.63s.13.68.18,1a116.79,116.79,0,0,1-4.61,58.61h0a13.11,13.11,0,0,1-8.07,8.74,12.69,12.69,0,0,1-3,.72,12.24,12.24,0,0,0,15.53-8.37h0A109.45,109.45,0,0,0,125,47.41c0-.32-.11-.64-.17-1s-.07-.39-.1-.58h0A22.84,22.84,0,0,0,123.8,42.65Z"/><path class="l" d="M102,109.28h0a12.29,12.29,0,0,0,18.64-6.91h0A109.45,109.45,0,0,0,125,47.41c0-.32-.11-.64-.17-1s-.07-.39-.1-.58h0A22.83,22.83,0,0,0,94.28,29.09"/><path class="l" d="M62.14,69.06l.3.51"/><path class="g" d="M73.51,20.93a10.42,10.42,0,0,0-1.68.2h0l-.08,0-.5.11a37.37,37.37,0,0,0-18.13,9.38,37.32,37.32,0,0,0,18.71,8.12l.52.08.08,0h0a10.46,10.46,0,0,0,1.69.08,11,11,0,0,0,10.5-9.36A11,11,0,0,0,73.51,20.93Z"/><path class="h" d="M76.93,30.74c-2.17.22-4.45.31-6.83.38a101.42,101.42,0,0,1-15.65-.75l-1.33.26a37.32,37.32,0,0,0,18.71,8.12l.52.08.08,0h0a10.46,10.46,0,0,0,1.69.08,11,11,0,0,0,10.5-9.36S81.3,30.28,76.93,30.74Z"/><path class="e" d="M54.45,30.37a101.42,101.42,0,0,0,15.65.75q3.57-.11,6.83-.38"/><path class="d" d="M73.51,20.93a10.42,10.42,0,0,0-1.68.2h0l-.08,0-.5.11a37.37,37.37,0,0,0-18.13,9.38,37.32,37.32,0,0,0,18.71,8.12l.52.08.08,0h0a10.46,10.46,0,0,0,1.69.08,11,11,0,0,0,10.5-9.36A11,11,0,0,0,73.51,20.93Z"/><ellipse class="m" cx="109.71" cy="99.97" rx="1.5" ry="2.88" transform="translate(-27.9 44.34) rotate(-20.33)"/><ellipse class="m" cx="101.72" cy="78.4" rx="1.5" ry="2.88" transform="translate(-20.9 40.23) rotate(-20.33)"/><ellipse class="m" cx="93.39" cy="55.9" rx="1.5" ry="2.88" transform="translate(-13.6 35.93) rotate(-20.33)"/><ellipse class="m" cx="96.52" cy="93.13" rx="1.5" ry="2.88" transform="translate(-34.37 63.84) rotate(-31.37)"/><ellipse class="m" cx="114.33" cy="86.53" rx="1.5" ry="2.88" transform="translate(-12.47 19.59) rotate(-9.29)"/><ellipse class="m" cx="108.46" cy="62.04" rx="1.5" ry="2.88" transform="translate(-11.98 28.77) rotate(-14.33)"/><ellipse class="m" cx="85.02" cy="70.73" rx="1.5" ry="2.88" transform="translate(-22.55 45.05) rotate(-26.33)"/><ellipse class="m" cx="83.32" cy="86.29" rx="1.5" ry="2.88" transform="translate(-34.67 64.69) rotate(-35.63)"/><ellipse class="m" cx="119.89" cy="72.74" rx="1.5" ry="2.88" transform="translate(-5.92 10.79) rotate(-5.03)"/><ellipse class="m" cx="117.52" cy="49.09" rx="1.5" ry="2.88" transform="translate(-8.49 30.61) rotate(-14.33)"/><ellipse class="m" cx="69.7" cy="66.81" rx="1.5" ry="2.88" transform="translate(-22.4 37.85) rotate(-26.33)"/><ellipse class="m" cx="76.09" cy="49.51" rx="1.5" ry="2.88" transform="translate(-13.39 34.18) rotate(-23.33)"/><ellipse class="m" cx="101.41" cy="40.13" rx="1.5" ry="2.88" transform="translate(-7.35 32.03) rotate(-17.33)"/><path class="a" d="M68,76.59a57.76,57.76,0,0,1-1.7-36.51,18,18,0,0,0-34.66-9.74,57.7,57.7,0,0,1-21.43,31h0a25.79,25.79,0,0,0,18.64,45.49A25.75,25.75,0,0,0,68,76.59Z"/><path class="b" d="M20.34,103.5A27.84,27.84,0,0,1,1.3,85a25.75,25.75,0,0,0,46,11.6A27.86,27.86,0,0,1,20.34,103.5Z"/><path class="c" d="M19.13,92.38a25.75,25.75,0,1,0,49-15.6"/><path class="b" d="M68.31,77.32A27.88,27.88,0,0,1,24,102.17,25.74,25.74,0,0,0,68.31,77.32Z"/><path class="d" d="M68,76.59a57.76,57.76,0,0,1-1.7-36.51,18,18,0,0,0-34.66-9.74,57.7,57.7,0,0,1-21.43,31h0a25.79,25.79,0,0,0,18.64,45.49A25.75,25.75,0,0,0,68,76.59Z"/><path class="e" d="M19.13,92.38a25.75,25.75,0,1,0,49-15.6"/><path class="f" d="M54.15,22.94a90.87,90.87,0,0,1,8-18.34,6,6,0,0,0-2.89-1.83l-.57-.13A93.21,93.21,0,0,0,50.4,21.55a5.91,5.91,0,0,0,3.75,1.39Z"/><path class="g" d="M46.87,1.34A10.5,10.5,0,0,0,45.2,1.1h-.08l-.52,0A37.32,37.32,0,0,0,24.67,5.43a37.3,37.3,0,0,0,16,12.7l.47.21.08,0h0a10.81,10.81,0,0,0,1.61.52,11,11,0,0,0,12.56-6.33A11,11,0,0,0,46.87,1.34Z"/><path class="h" d="M47.65,11.7c-2.16-.35-4.39-.85-6.7-1.4A100.59,100.59,0,0,1,26,5.53l-1.35-.1a37.3,37.3,0,0,0,16,12.7l.47.21.08,0h0a10.81,10.81,0,0,0,1.61.52,11,11,0,0,0,12.56-6.33S52,12.39,47.65,11.7Z"/><path class="e" d="M26,5.53A100.59,100.59,0,0,0,41,10.3c2.31.55,4.54,1,6.7,1.4"/><path class="d" d="M46.87,1.34A10.5,10.5,0,0,0,45.2,1.1h-.08l-.52,0A37.32,37.32,0,0,0,24.67,5.43a37.3,37.3,0,0,0,16,12.7l.47.21.08,0h0a10.81,10.81,0,0,0,1.61.52,11,11,0,0,0,12.56-6.33A11,11,0,0,0,46.87,1.34Z"/><path class="i" d="M124.73,45.87h0A23,23,0,0,0,85.2,35.25,23,23,0,0,0,60.74,66a25.39,25.39,0,0,0,1.41,3h0l.3.51c.16.28.32.56.49.84A109.63,109.63,0,0,0,102,109.28h0a12.29,12.29,0,0,0,18.64-6.91h0A109.45,109.45,0,0,0,125,47.41c0-.32-.11-.64-.17-1S124.76,46.06,124.73,45.87Z"/><path class="f" d="M89.51,37.15a90.07,90.07,0,0,1-4.32-19.53,6,6,0,0,0-3.41.22,4.41,4.41,0,0,0-.54.24,93.24,93.24,0,0,0,4.42,20.16,5.78,5.78,0,0,0,2.48-.36A5.45,5.45,0,0,0,89.51,37.15Z"/><path class="j" d="M96.76,39.87a23,23,0,0,0-36.2,25.65,22,22,0,0,0,1.4,3"/><path class="k" d="M123.8,42.65a22.78,22.78,0,0,0-6.21-9.11,23.88,23.88,0,0,1,1.94,4,23,23,0,0,1,1,3.44h0c0,.21.07.42.11.63s.13.68.18,1a116.79,116.79,0,0,1-4.61,58.61h0a13.11,13.11,0,0,1-8.07,8.74,12.69,12.69,0,0,1-3,.72,12.24,12.24,0,0,0,15.53-8.37h0A109.45,109.45,0,0,0,125,47.41c0-.32-.11-.64-.17-1s-.07-.39-.1-.58h0A22.84,22.84,0,0,0,123.8,42.65Z"/><path class="l" d="M102,109.28h0a12.29,12.29,0,0,0,18.64-6.91h0A109.45,109.45,0,0,0,125,47.41c0-.32-.11-.64-.17-1s-.07-.39-.1-.58h0A22.83,22.83,0,0,0,94.28,29.09"/><path class="l" d="M62.14,69.06l.3.51"/><path class="g" d="M73.51,20.93a10.42,10.42,0,0,0-1.68.2h0l-.08,0-.5.11a37.37,37.37,0,0,0-18.13,9.38,37.32,37.32,0,0,0,18.71,8.12l.52.08.08,0h0a10.46,10.46,0,0,0,1.69.08,11,11,0,0,0,10.5-9.36A11,11,0,0,0,73.51,20.93Z"/><path class="h" d="M76.93,30.74c-2.17.22-4.45.31-6.83.38a101.42,101.42,0,0,1-15.65-.75l-1.33.26a37.32,37.32,0,0,0,18.71,8.12l.52.08.08,0h0a10.46,10.46,0,0,0,1.69.08,11,11,0,0,0,10.5-9.36S81.3,30.28,76.93,30.74Z"/><path class="e" d="M54.45,30.37a101.42,101.42,0,0,0,15.65.75q3.57-.11,6.83-.38"/><path class="d" d="M73.51,20.93a10.42,10.42,0,0,0-1.68.2h0l-.08,0-.5.11a37.37,37.37,0,0,0-18.13,9.38,37.32,37.32,0,0,0,18.71,8.12l.52.08.08,0h0a10.46,10.46,0,0,0,1.69.08,11,11,0,0,0,10.5-9.36A11,11,0,0,0,73.51,20.93Z"/><ellipse class="m" cx="109.71" cy="99.97" rx="1.5" ry="2.88" transform="translate(-27.9 44.34) rotate(-20.33)"/><ellipse class="m" cx="101.72" cy="78.4" rx="1.5" ry="2.88" transform="translate(-20.9 40.23) rotate(-20.33)"/><ellipse class="m" cx="93.39" cy="55.9" rx="1.5" ry="2.88" transform="translate(-13.6 35.93) rotate(-20.33)"/><ellipse class="m" cx="96.52" cy="93.13" rx="1.5" ry="2.88" transform="translate(-34.37 63.84) rotate(-31.37)"/><ellipse class="m" cx="114.33" cy="86.53" rx="1.5" ry="2.88" transform="translate(-12.47 19.59) rotate(-9.29)"/><ellipse class="m" cx="108.46" cy="62.04" rx="1.5" ry="2.88" transform="translate(-11.98 28.77) rotate(-14.33)"/><ellipse class="m" cx="85.02" cy="70.73" rx="1.5" ry="2.88" transform="translate(-22.55 45.05) rotate(-26.33)"/><ellipse class="m" cx="83.32" cy="86.29" rx="1.5" ry="2.88" transform="translate(-34.67 64.69) rotate(-35.63)"/><ellipse class="m" cx="119.89" cy="72.74" rx="1.5" ry="2.88" transform="translate(-5.92 10.79) rotate(-5.03)"/><ellipse class="m" cx="117.52" cy="49.09" rx="1.5" ry="2.88" transform="translate(-8.49 30.61) rotate(-14.33)"/><ellipse class="m" cx="69.7" cy="66.81" rx="1.5" ry="2.88" transform="translate(-22.4 37.85) rotate(-26.33)"/><ellipse class="m" cx="76.09" cy="49.51" rx="1.5" ry="2.88" transform="translate(-13.39 34.18) rotate(-23.33)"/><ellipse class="m" cx="101.41" cy="40.13" rx="1.5" ry="2.88" transform="translate(-7.35 32.03) rotate(-17.33)"/></svg>