<svg xmlns="http://www.w3.org/2000/svg" viewBox="0 0 71.5 112.17"><defs><style>.a,.c{fill:#cddc39;}.a,.d,.e,.f,.g{stroke:#000;stroke-linejoin:round;stroke-width:2px;}.b{fill:#afb42b;}.d,.e{fill:none;}.e{stroke-linecap:round;}.f{fill:#795548;}.g{fill:#4caf50;}.h{fill:#2e7d32;}</style></defs><title>pear</title><path class="a" d="M65.26,69.86A57.75,57.75,0,0,1,53.75,35.17a18,18,0,0,0-36,0A57.71,57.71,0,0,1,5.5,70.8h0a25.78,25.78,0,0,0,30.25,38.75A25.75,25.75,0,0,0,65.26,69.86Z"/><path class="b" d="M26.63,108.67A27.83,27.83,0,0,1,3.3,96a25.75,25.75,0,0,0,47.45-1.28A27.88,27.88,0,0,1,26.63,108.67Z"/><path class="c" d="M22.45,98.29A25.75,25.75,0,1,0,65.39,70"/><path class="b" d="M65.72,70.48a27.89,27.89,0,0,1-35.91,35.91A25.75,25.75,0,0,0,65.72,70.48Z"/><path class="d" d="M65.26,69.86A57.75,57.75,0,0,1,53.75,35.17a18,18,0,0,0-36,0A57.71,57.71,0,0,1,5.5,70.8h0a25.78,25.78,0,0,0,30.25,38.75A25.75,25.75,0,0,0,65.26,69.86Z"/><path class="e" d="M22.45,98.29A25.75,25.75,0,1,0,65.39,70"/><path class="f" d="M37.38,22A90.44,90.44,0,0,1,40.11,2.15a5.91,5.91,0,0,0-3.27-1,5.68,5.68,0,0,0-.59,0,93.23,93.23,0,0,0-2.86,20.44,5.89,5.89,0,0,0,2.45.53A6,6,0,0,0,37.38,22Z"/><path class="g" d="M26.69,1.16A12.22,12.22,0,0,0,25,1H24.4A37.33,37.33,0,0,0,4.73,6.43,37.47,37.47,0,0,0,21.36,18.25c.16.06.32.13.49.18s0,0,.08,0h0a10.83,10.83,0,0,0,1.63.43,11,11,0,0,0,12.21-7A11,11,0,0,0,26.69,1.16Z"/><path class="h" d="M28,11.46c-2.17-.23-4.43-.61-6.76-1a100.62,100.62,0,0,1-15.17-4l-1.35,0A37.47,37.47,0,0,0,21.36,18.25c.16.06.32.13.49.18s0,0,.08,0h0a10.83,10.83,0,0,0,1.63.43,11,11,0,0,0,12.21-7S32.38,11.92,28,11.46Z"/><path class="e" d="M6.08,6.45a100.62,100.62,0,0,0,15.17,4c2.33.43,4.59.77,6.76,1"/><path class="d" d="M26.69,1.16A12.22,12.22,0,0,0,25,1H24.4A37.33,37.33,0,0,0,4.73,6.43,37.47,37.47,0,0,0,21.36,18.25c.16.06.32.13.49.18s0,0,.08,0h0a10.83,10.83,0,0,0,1.63.43,11,11,0,0,0,12.21-7A11,11,0,0,0,26.69,1.16Z"/></svg>