<?xml version="1.0" encoding="utf-8"?>
<!-- Generator: Adobe Illustrator 22.1.0, SVG Export Plug-In . SVG Version: 6.00 Build 0)  -->
<svg version="1.1" id="Layer_1" xmlns="http://www.w3.org/2000/svg" xmlns:xlink="http://www.w3.org/1999/xlink" x="0px" y="0px"
	 viewBox="0 0 100 100" style="enable-background:new 0 0 100 100;" xml:space="preserve">
<style type="text/css">
	.st0{fill:#9E9E9E;}
	.st1{fill:#757575;}
	.st2{fill:#FDD835;}
	.st3{fill:#FBC02D;}
	.st4{fill:#F9A825;}
	.st5{fill:#CDDC39;stroke:#000000;stroke-width:2;stroke-linejoin:round;}
	.st6{fill:#AFB42B;}
	.st7{fill:#CDDC39;}
	.st8{fill:none;stroke:#000000;stroke-width:2;stroke-linejoin:round;}
	.st9{fill:none;stroke:#000000;stroke-width:2;stroke-linecap:round;stroke-linejoin:round;}
	.st10{fill:#795548;stroke:#000000;stroke-width:2;stroke-linejoin:round;}
	.st11{fill:#4CAF50;stroke:#000000;stroke-width:2;stroke-linejoin:round;}
	.st12{fill:#2E7D32;}
</style>
<title>p1</title>
<circle class="st0" cx="50" cy="55.02" r="35"/>
<circle class="st1" cx="50" cy="55.02" r="31"/>
<polygon class="st2" points="50,2.45 65.45,33.75 100,38.77 75,63.14 80.9,97.55 50,81.31 19.1,97.55 25,63.14 0,38.77 34.55,33.75 
	"/>
<polygon class="st3" points="50,15 61.37,38.04 86.8,41.74 68.4,59.67 72.74,85 50,73.04 27.26,85 31.6,59.67 13.2,41.74 
	38.63,38.04 "/>
<polygon class="st4" points="50,26.22 57.73,41.88 75,44.39 62.5,56.57 65.45,73.78 50,65.65 34.55,73.78 37.5,56.57 25,44.39 
	42.27,41.88 "/>
<path class="st5" d="M72,60.28c-5.596-7.47-8.614-16.556-8.6-25.89c0.202-7.42-5.649-13.599-13.068-13.802
	S36.732,26.237,36.53,33.657c-0.007,0.244-0.007,0.489,0,0.733c0.032,9.64-3.176,19.012-9.11,26.61l0,0
	c-6.008,8.765-3.773,20.74,4.991,26.748C37.574,91.286,44.134,92.093,50,89.91c9.964,3.675,21.021-1.424,24.696-11.389
	C76.961,72.378,75.945,65.505,72,60.28z"/>
<path class="st6" d="M43.19,89.25c-7.031-0.002-13.583-3.562-17.41-9.46c4.382,9.662,15.767,13.943,25.429,9.561
	c4.582-2.078,8.165-5.87,9.981-10.561C57.489,85.242,50.628,89.229,43.19,89.25z"/>
<path class="st7" d="M40.07,81.5c5.382,9.15,17.161,12.204,26.311,6.823c9.092-5.348,12.175-17.023,6.909-26.163
	c-0.357-0.614-0.748-1.208-1.17-1.78"/>
<path class="st6" d="M72.37,60.74c4.042,10.765-1.408,22.768-12.172,26.81c-4.718,1.772-9.919,1.772-14.638,0
	c8.663,6.144,20.666,4.101,26.81-4.562C77.095,76.325,77.095,67.403,72.37,60.74z"/>
<path class="st8" d="M72,60.28c-5.596-7.47-8.614-16.556-8.6-25.89c0.202-7.42-5.649-13.599-13.068-13.802
	S36.732,26.237,36.53,33.657c-0.007,0.244-0.007,0.489,0,0.733c0.032,9.64-3.176,19.012-9.11,26.61l0,0
	c-6.008,8.765-3.773,20.74,4.991,26.748C37.574,91.286,44.134,92.093,50,89.91c9.964,3.675,21.021-1.424,24.696-11.389
	C76.961,72.378,75.945,65.505,72,60.28z"/>
<path class="st9" d="M40.07,81.5c5.382,9.15,17.161,12.204,26.311,6.823c9.092-5.348,12.175-17.023,6.909-26.163
	c-0.357-0.614-0.748-1.208-1.17-1.78"/>
<path class="st10" d="M51.22,24.55c0.115-4.996,0.786-9.963,2-14.81C52.508,9.26,51.669,9.002,50.81,9h-0.44
	c-1.273,4.992-1.987,10.11-2.13,15.26c0.573,0.265,1.199,0.398,1.83,0.39C50.456,24.667,50.843,24.633,51.22,24.55z"/>
<g>
	<path class="st11" d="M43.24,9C42.83,8.931,42.416,8.891,42,8.88h-0.44c-5.173-0.056-10.259,1.329-14.69,4
		c3.244,4.035,7.543,7.092,12.42,8.83l0.36,0.13c0.13,0,0,0,0.06,0l0,0c0.397,0.14,0.805,0.248,1.22,0.32
		c3.868,0.67,7.669-1.493,9.07-5.16C49.965,13.054,47.125,9.693,43.24,9z"/>
	<path class="st12" d="M44.21,16.69c-1.62-0.17-3.3-0.46-5-0.75c-3.848-0.709-7.636-1.712-11.33-3h-1
		c3.248,4.024,7.547,7.07,12.42,8.8l0.36,0.13c0.13,0,0,0,0.06,0l0,0c0.397,0.14,0.805,0.248,1.22,0.32
		c3.873,0.661,7.671-1.515,9.06-5.19C48.066,17,46.133,16.897,44.21,16.69z"/>
	<path class="st9" d="M27.85,13c3.693,1.294,7.481,2.297,11.33,3c1.73,0.32,3.42,0.58,5,0.75"/>
	<path class="st8" d="M43.24,9C42.83,8.931,42.416,8.891,42,8.88h-0.44c-5.173-0.056-10.259,1.329-14.69,4
		c3.244,4.035,7.543,7.092,12.42,8.83l0.36,0.13c0.13,0,0,0,0.06,0l0,0c0.397,0.14,0.805,0.248,1.22,0.32
		c3.868,0.67,7.669-1.493,9.07-5.16C49.965,13.054,47.125,9.693,43.24,9z"/>
</g>
</svg>
