<?xml version="1.0" encoding="utf-8"?>
<!-- Generator: Adobe Illustrator 22.1.0, SVG Export Plug-In . SVG Version: 6.00 Build 0)  -->
<svg version="1.1" id="Layer_1" xmlns="http://www.w3.org/2000/svg" xmlns:xlink="http://www.w3.org/1999/xlink" x="0px" y="0px"
	 viewBox="0 0 100 100" style="enable-background:new 0 0 100 100;" xml:space="preserve">
<style type="text/css">
	.st0{fill:#D84315;}
	.st1{fill:#BF360C;}
	.st2{fill:#CDDC39;stroke:#000000;stroke-width:2;stroke-linejoin:round;}
	.st3{fill:#AFB42B;}
	.st4{fill:#CDDC39;}
	.st5{fill:none;stroke:#000000;stroke-width:2;stroke-linejoin:round;}
	.st6{fill:none;stroke:#000000;stroke-width:2;stroke-linecap:round;stroke-linejoin:round;}
	.st7{fill:#795548;stroke:#000000;stroke-width:2;stroke-linejoin:round;}
	.st8{fill:#4CAF50;stroke:#000000;stroke-width:2;stroke-linejoin:round;}
	.st9{fill:#2E7D32;}
</style>
<circle class="st0" cx="50" cy="55.02" r="35"/>
<circle class="st1" cx="50" cy="55.02" r="31"/>
<polygon class="st0" points="69.574,55 79.483,45.341 65.928,43.371 68.221,30 56.136,36.354 50,23.92 43.864,36.354 31.779,30 
	34.072,43.371 20.517,45.341 30.426,55 20.517,64.659 34.072,66.629 31.779,80 43.864,73.646 50,86.08 56.136,73.646 68.221,80 
	65.928,66.629 79.483,64.659 "/>
<g>
	<path class="st2" d="M72.026,60.279c-5.592-7.474-8.607-16.56-8.591-25.894c0-7.42-6.015-13.436-13.436-13.436
		s-13.436,6.015-13.436,13.436c0.013,9.639-3.206,19.003-9.144,26.596l0,0c-6.015,8.762-3.788,20.741,4.974,26.756
		c5.166,3.546,11.734,4.355,17.606,2.169c9.947,3.708,21.016-1.35,24.724-11.296C77.022,72.441,76.004,65.524,72.026,60.279z"/>
	<path class="st3" d="M43.191,89.248c-7.031-0.002-13.584-3.561-17.414-9.457c4.38,9.669,15.77,13.957,25.439,9.577
		c4.575-2.072,8.157-5.853,9.979-10.533C57.483,85.272,50.621,89.24,43.191,89.248z"/>
	<path class="st4" d="M40.071,81.5c5.342,9.173,17.109,12.279,26.282,6.937c9.173-5.342,12.279-17.109,6.937-26.282
		c-0.356-0.612-0.746-1.203-1.167-1.772"/>
	<path class="st3" d="M72.369,60.742c4.039,10.765-1.413,22.766-12.178,26.805c-4.715,1.769-9.911,1.769-14.627,0
		c8.649,6.155,20.65,4.133,26.805-4.516C77.117,76.36,77.117,67.413,72.369,60.742z"/>
	<path class="st5" d="M72.026,60.279c-5.592-7.474-8.607-16.56-8.591-25.894c0-7.42-6.015-13.436-13.436-13.436
		s-13.436,6.015-13.436,13.436c0.013,9.639-3.206,19.003-9.144,26.596l0,0c-6.015,8.762-3.788,20.741,4.974,26.756
		c5.166,3.546,11.734,4.355,17.606,2.169c9.947,3.708,21.016-1.35,24.724-11.296C77.022,72.441,76.004,65.524,72.026,60.279z"/>
	<path class="st6" d="M40.071,81.5c5.342,9.173,17.109,12.279,26.282,6.937c9.173-5.342,12.279-17.109,6.937-26.282
		c-0.356-0.612-0.746-1.203-1.167-1.772"/>
	<path class="st7" d="M51.215,24.555c0.128-4.999,0.812-9.969,2.038-14.817c-0.722-0.484-1.571-0.744-2.441-0.746
		c-0.147-0.008-0.294-0.008-0.44,0c-1.274,4.991-1.99,10.108-2.135,15.257c0.574,0.262,1.198,0.396,1.829,0.396
		C50.451,24.664,50.837,24.634,51.215,24.555z"/>
	<path class="st8" d="M43.236,8.999C42.818,8.93,42.397,8.89,41.974,8.88h-0.448c-5.176-0.039-10.26,1.365-14.682,4.053
		c3.242,4.033,7.539,7.087,12.413,8.823c0.119,0.045,0.239,0.097,0.366,0.134c0.127,0.037,0,0,0.06,0l0,0
		c0.397,0.138,0.803,0.246,1.217,0.321c3.901,0.684,7.734-1.513,9.114-5.225C49.966,13.041,47.12,9.687,43.236,8.999z"/>
	<path class="st9" d="M44.213,16.687c-1.62-0.172-3.307-0.455-5.046-0.746c-3.846-0.699-7.632-1.697-11.323-2.986h-1.008
		c3.247,4.025,7.546,7.072,12.421,8.8c0.119,0.045,0.239,0.097,0.366,0.134c0.127,0.037,0,0,0.06,0l0,0
		c0.397,0.138,0.803,0.246,1.217,0.321c3.901,0.684,7.734-1.513,9.114-5.225C50.013,16.986,47.483,17.031,44.213,16.687z"/>
	<path class="st6" d="M27.852,12.948c3.691,1.288,7.477,2.287,11.323,2.986c1.739,0.321,3.426,0.575,5.046,0.746"/>
	<path class="st5" d="M43.236,8.999C42.818,8.93,42.397,8.89,41.974,8.88h-0.448c-5.176-0.039-10.26,1.365-14.682,4.053
		c3.242,4.033,7.539,7.087,12.413,8.823c0.119,0.045,0.239,0.097,0.366,0.134c0.127,0.037,0,0,0.06,0l0,0
		c0.397,0.138,0.803,0.246,1.217,0.321c3.901,0.684,7.734-1.513,9.114-5.225C49.966,13.041,47.12,9.687,43.236,8.999z"/>
</g>
</svg>
