<?xml version="1.0" encoding="utf-8"?>
<!-- Generator: Adobe Illustrator 22.1.0, SVG Export Plug-In . SVG Version: 6.00 Build 0)  -->
<svg xmlns="http://www.w3.org/2000/svg" viewBox="0 0 100 100" style="enable-background:new 0 0 100 100;">
<style type="text/css">
	.st5{fill:#949494;stroke:#000000;stroke-width:2;stroke-miterlimit:10}
	.st6{fill:#616161;stroke:#000000;stroke-width:2;stroke-linejoin:round}
	.st7{fill:#949494;stroke:#000000;stroke-width:2;stroke-linecap:round;stroke-miterlimit:10}
	.st8{fill:#828282}
	.st9{fill:none;stroke:#000000;stroke-width:2;stroke-miterlimit:10}
	.st10{fill:#7D7D7D}
	.st11{fill:#575757}
	.st12{fill:none;stroke:#000000;stroke-width:2;stroke-linecap:round;stroke-linejoin:round}
	.st13{fill:none;stroke:#000000;stroke-width:2;stroke-linejoin:round}
	.st14{fill-opacity:0.5}
	.st15{fill:#8A8A8A;stroke:#000000;stroke-width:2;stroke-linejoin:round}
	.st16{fill:#707070}
	.st17{fill:#8A8A8A}
	#s{animation:s 1.25s linear infinite}
	#p{animation:p 1.25s linear infinite}
	@keyframes s{0%{opacity:0}20%{opacity:1}30%{opacity:1}50%{opacity:0}100%{opacity:0}}
	@keyframes p{0%{opacity:0}50%{opacity:0}70%{opacity:1}80%{opacity:1}100%{opacity:0}}
</style>
<g id="s">
	<path class="st5" d="M78.232,43.46L78.232,43.46c1.599-10.741-5.812-20.745-16.553-22.344c-4.132-0.615-8.352,0.102-12.049,2.047
		c-9.553-5.093-21.427-1.478-26.52,8.076c-1.995,3.742-2.723,8.03-2.074,12.221l0,0c0,0.171,0.069,0.334,0.094,0.506
		c0.026,0.171,0.086,0.549,0.146,0.814c2.852,15.742,9.679,30.494,19.834,42.857l0,0c3.426,4.708,10.02,5.747,14.728,2.32
		c0.89-0.648,1.673-1.431,2.32-2.32l0,0C68.313,75.275,75.141,60.522,77.992,44.78c0.06-0.266,0.103-0.549,0.146-0.814
		C78.181,43.7,78.232,43.632,78.232,43.46z"/>
	<path class="st6" d="M52.518,26c0.146-5.741,0.934-11.448,2.349-17.014c-0.832-0.556-1.81-0.854-2.811-0.857
		c-0.166-0.009-0.332-0.009-0.497,0c-1.472,5.744-2.3,11.635-2.469,17.563c0.66,0.3,1.376,0.454,2.1,0.454
		C51.637,26.155,52.084,26.106,52.518,26z"/>
	<path class="st7" d="M57.541,30.286c-5.491-9.401-17.565-12.571-26.966-7.08c-6.024,3.519-9.74,9.96-9.771,16.937
		c0.004,0.956,0.079,1.91,0.223,2.854"/>
	<path class="st8" d="M78.447,40.572c0.001-3.2-0.782-6.352-2.28-9.18c0.437,2.262,0.475,4.582,0.111,6.857l0,0
		c0,0.18-0.069,0.36-0.094,0.54s-0.094,0.583-0.163,0.857c-3.024,16.821-10.3,32.589-21.137,45.805l0,0
		c-2.118,2.907-5.497,4.628-9.094,4.629c-0.88-0.002-1.758-0.105-2.614-0.309c4.578,3.575,11.187,2.762,14.762-1.816
		c0.075-0.096,0.149-0.194,0.221-0.293l0,0C68.313,75.3,75.141,60.548,77.992,44.806c0.06-0.266,0.103-0.549,0.146-0.814
		c0.043-0.266,0.069-0.334,0.094-0.506l0,0C78.376,42.521,78.448,41.547,78.447,40.572z"/>
	<path class="st9" d="M41.093,87.663L41.093,87.663c3.426,4.708,10.02,5.747,14.728,2.32c0.89-0.648,1.673-1.431,2.32-2.32l0,0
		C68.296,75.3,75.123,60.548,77.975,44.806c0.06-0.266,0.103-0.549,0.146-0.814c0.043-0.266,0.069-0.334,0.094-0.506l0,0
		c1.671-10.668-5.622-20.67-16.289-22.342c-1.051-0.165-2.113-0.243-3.176-0.235"/>
	<g>
		<path class="st10" d="M43.356,8.138c-0.476-0.084-0.957-0.13-1.44-0.137h-0.54c-5.934-0.038-11.762,1.573-16.834,4.654
			c3.721,4.636,8.66,8.144,14.263,10.131l0.411,0.163h0.069l0,0c4.818,1.669,10.087-0.822,11.854-5.606
			C51.101,12.801,47.829,8.931,43.356,8.138z"/>
		<path class="st11" d="M44.496,16.966c-1.869-0.197-3.797-0.523-5.794-0.857c-4.417-0.802-8.765-1.948-13.003-3.429h-1.157
			c3.724,4.627,8.663,8.126,14.263,10.106l0.411,0.163h0.069l0,0c4.818,1.669,10.087-0.822,11.854-5.606
			C51.138,17.343,48.233,17.361,44.496,16.966z"/>
		<path class="st12" d="M25.699,12.672c4.238,1.481,8.586,2.627,13.003,3.429c1.997,0.369,3.934,0.66,5.794,0.857"/>
		<path class="st13" d="M43.356,8.138c-0.476-0.084-0.957-0.13-1.44-0.137h-0.54c-5.934-0.038-11.762,1.573-16.834,4.654
			c3.721,4.636,8.66,8.144,14.263,10.131l0.411,0.163h0.069l0,0c4.818,1.669,10.087-0.822,11.854-5.606
			C51.101,12.801,47.829,8.931,43.356,8.138z"/>
	</g>
	<g>
		<ellipse class="st14" cx="50.058" cy="82.468" rx="1.286" ry="2.469"/>
		<ellipse class="st14" cx="50.058" cy="62.754" rx="1.286" ry="2.469"/>
		<ellipse class="st14" cx="50.058" cy="42.183" rx="1.286" ry="2.469"/>
		<ellipse transform="matrix(0.9815 -0.1915 0.1915 0.9815 -13.2184 9.2977)" class="st14" cx="41.494" cy="73.036" rx="1.286" ry="2.469"/>
		<ellipse transform="matrix(0.1915 -0.9815 0.9815 0.1915 -24.9858 115.7464)" class="st14" cx="57.763" cy="73.039" rx="2.469" ry="1.286"/>
		<ellipse transform="matrix(0.1045 -0.9945 0.9945 0.1045 2.6996 106.2237)" class="st14" cx="60.335" cy="51.613" rx="2.469" ry="1.286"/>
		<ellipse transform="matrix(0.9945 -0.1045 0.1045 0.9945 -5.1807 4.3493)" class="st14" cx="38.915" cy="51.614" rx="1.286" ry="2.469"/>
		<ellipse transform="matrix(0.9646 -0.2639 0.2639 0.9646 -15.6206 10.9414)" class="st14" cx="32.917" cy="63.616" rx="1.286" ry="2.469"/>
		<ellipse transform="matrix(0.2639 -0.9646 0.9646 0.2639 -12.5343 110.8171)" class="st14" cx="66.337" cy="63.621" rx="2.469" ry="1.286"/>
		<ellipse transform="matrix(0.1045 -0.9945 0.9945 0.1045 20.3384 110.4019)" class="st14" cx="71.474" cy="43.907" rx="2.469" ry="1.286"/>
		<ellipse transform="matrix(0.9945 -0.1045 0.1045 0.9945 -4.4355 3.1418)" class="st14" cx="27.764" cy="43.899" rx="1.286" ry="2.469"/>
		<ellipse transform="matrix(0.9986 -0.0523 0.0523 0.9986 -1.6164 2.0342)" class="st14" cx="38.059" cy="31.901" rx="1.286" ry="2.469"/>
		<ellipse transform="matrix(0.0499 -0.9988 0.9988 0.0499 26.3418 91.2436)" class="st14" cx="61.129" cy="31.776" rx="2.472" ry="1.287"/>
	</g>
</g>
<g id="p">
	<path class="st15" d="M72,60.28c-5.596-7.47-8.614-16.556-8.6-25.89c0.202-7.42-5.649-13.599-13.068-13.802
		S36.732,26.237,36.53,33.657c-0.007,0.244-0.007,0.489,0,0.733c0.032,9.64-3.176,19.012-9.11,26.61l0,0
		c-6.008,8.765-3.773,20.74,4.991,26.748C37.574,91.286,44.134,92.093,50,89.91c9.964,3.675,21.021-1.424,24.696-11.389
		C76.961,72.378,75.945,65.505,72,60.28z"/>
	<path class="st16" d="M43.19,89.25c-7.031-0.002-13.583-3.562-17.41-9.46c4.382,9.662,15.767,13.943,25.429,9.561
		c4.582-2.078,8.165-5.87,9.981-10.561C57.489,85.242,50.628,89.229,43.19,89.25z"/>
	<path class="st17" d="M40.07,81.5c5.382,9.15,17.161,12.204,26.311,6.823c9.092-5.348,12.175-17.023,6.909-26.163
		c-0.357-0.614-0.748-1.208-1.17-1.78"/>
	<path class="st16" d="M72.37,60.74c4.042,10.765-1.408,22.768-12.172,26.81c-4.718,1.772-9.919,1.772-14.638,0
		c8.663,6.144,20.666,4.101,26.81-4.562C77.095,76.325,77.095,67.403,72.37,60.74z"/>
	<path class="st13" d="M72,60.28c-5.596-7.47-8.614-16.556-8.6-25.89c0.202-7.42-5.649-13.599-13.068-13.802
		S36.732,26.237,36.53,33.657c-0.007,0.244-0.007,0.489,0,0.733c0.032,9.64-3.176,19.012-9.11,26.61l0,0
		c-6.008,8.765-3.773,20.74,4.991,26.748C37.574,91.286,44.134,92.093,50,89.91c9.964,3.675,21.021-1.424,24.696-11.389
		C76.961,72.378,75.945,65.505,72,60.28z"/>
	<path class="st12" d="M40.07,81.5c5.382,9.15,17.161,12.204,26.311,6.823c9.092-5.348,12.175-17.023,6.909-26.163
		c-0.357-0.614-0.748-1.208-1.17-1.78"/>
	<path class="st6" d="M51.22,24.55c0.115-4.996,0.786-9.963,2-14.81C52.508,9.26,51.669,9.002,50.81,9h-0.44
		c-1.273,4.992-1.987,10.11-2.13,15.26c0.573,0.265,1.199,0.398,1.83,0.39C50.456,24.667,50.843,24.633,51.22,24.55z"/>
	<g>
		<path class="st10" d="M43.24,9C42.83,8.931,42.416,8.891,42,8.88h-0.44c-5.173-0.056-10.259,1.329-14.69,4
			c3.244,4.035,7.543,7.092,12.42,8.83l0.36,0.13c0.13,0,0,0,0.06,0l0,0c0.397,0.14,0.805,0.248,1.22,0.32
			c3.868,0.67,7.669-1.493,9.07-5.16C49.965,13.054,47.125,9.693,43.24,9z"/>
		<path class="st11" d="M44.21,16.69c-1.62-0.17-3.3-0.46-5-0.75c-3.848-0.709-7.636-1.712-11.33-3h-1
			c3.248,4.024,7.547,7.07,12.42,8.8l0.36,0.13c0.13,0,0,0,0.06,0l0,0c0.397,0.14,0.805,0.248,1.22,0.32
			c3.873,0.661,7.671-1.515,9.06-5.19C48.066,17,46.133,16.897,44.21,16.69z"/>
		<path class="st12" d="M27.85,13c3.693,1.294,7.481,2.297,11.33,3c1.73,0.32,3.42,0.58,5,0.75"/>
		<path class="st13" d="M43.24,9C42.83,8.931,42.416,8.891,42,8.88h-0.44c-5.173-0.056-10.259,1.329-14.69,4
			c3.244,4.035,7.543,7.092,12.42,8.83l0.36,0.13c0.13,0,0,0,0.06,0l0,0c0.397,0.14,0.805,0.248,1.22,0.32
			c3.868,0.67,7.669-1.493,9.07-5.16C49.965,13.054,47.125,9.693,43.24,9z"/>
	</g>
</g>
</svg>
