<svg xmlns="http://www.w3.org/2000/svg" viewBox="0 0 69.25 100"><defs><style>.a,.c{fill:#f44336;}.a,.b,.c,.e,.f,.h,.i{stroke:#000;stroke-width:2px;}.a,.c,.e{stroke-miterlimit:10;}.b{fill:#795548;}.b,.f,.h,.i{stroke-linejoin:round;}.c,.h{stroke-linecap:round;}.d{fill:#d32f2f;}.e,.h,.i{fill:none;}.f{fill:#4caf50;}.g{fill:#2e7d32;}.j{fill-opacity:0.5;}</style></defs><title>s.svg</title><path class="a" d="M68,42.37h0A22.94,22.94,0,0,0,34.63,18.69,22.87,22.87,0,0,0,1.27,42.37h0c0,.2.08.39.11.59s.1.64.17.95a109.53,109.53,0,0,0,23.14,50h0a12.3,12.3,0,0,0,19.89,0h0a109.53,109.53,0,0,0,23.14-50c.07-.31.12-.64.17-.95S68,42.57,68,42.37Z"/><path class="b" d="M38,22A89.84,89.84,0,0,1,40.74,2.15a5.94,5.94,0,0,0-3.28-1,5.49,5.49,0,0,0-.58,0A93.22,93.22,0,0,0,34,21.64a5.92,5.92,0,0,0,2.45.53A6.1,6.1,0,0,0,38,22Z"/><path class="c" d="M43.86,27A23,23,0,0,0,1,38.5a22.68,22.68,0,0,0,.26,3.33"/><path class="d" d="M68.25,39a22.86,22.86,0,0,0-2.66-10.71,23,23,0,0,1,.13,8h0c0,.21-.08.42-.11.63s-.11.68-.19,1A116.91,116.91,0,0,1,40.76,91.36h0a13.13,13.13,0,0,1-10.61,5.4,13.33,13.33,0,0,1-3.05-.36,12.27,12.27,0,0,0,17.48-2.46h0a109.53,109.53,0,0,0,23.14-50c.07-.31.12-.64.17-.95s.08-.39.11-.59h0A22.9,22.9,0,0,0,68.25,39Z"/><path class="e" d="M24.67,93.94h0a12.3,12.3,0,0,0,19.89,0h0a109.53,109.53,0,0,0,23.14-50c.07-.31.12-.64.17-.95s.08-.39.11-.59h0A22.81,22.81,0,0,0,45.27,16.06"/><path class="e" d="M1.25,42.37c0,.2.08.39.11.59"/><path class="f" d="M27.31,1.16A10.6,10.6,0,0,0,25.63,1H25A37.37,37.37,0,0,0,5.36,6.43,37.34,37.34,0,0,0,22,18.25l.48.19.08,0h0A10.93,10.93,0,0,0,36.39,11.9,11,11,0,0,0,27.31,1.16Z"/><path class="g" d="M28.64,11.46c-2.18-.23-4.43-.61-6.76-1a100.3,100.3,0,0,1-15.17-4l-1.35,0A37.34,37.34,0,0,0,22,18.25l.48.19.08,0h0A10.93,10.93,0,0,0,36.39,11.9S33,11.92,28.64,11.46Z"/><path class="h" d="M6.71,6.45a100.3,100.3,0,0,0,15.17,4c2.33.43,4.59.77,6.76,1"/><path class="i" d="M27.31,1.16A10.6,10.6,0,0,0,25.63,1H25A37.37,37.37,0,0,0,5.36,6.43,37.34,37.34,0,0,0,22,18.25l.48.19.08,0h0A10.93,10.93,0,0,0,36.39,11.9,11,11,0,0,0,27.31,1.16Z"/><ellipse class="j" cx="35.13" cy="87.88" rx="1.5" ry="2.88"/><ellipse class="j" cx="35.13" cy="64.88" rx="1.5" ry="2.88"/><ellipse class="j" cx="35.13" cy="40.88" rx="1.5" ry="2.88"/><ellipse class="j" cx="25.13" cy="76.88" rx="1.5" ry="2.88" transform="translate(-14.25 6.23) rotate(-11.04)"/><ellipse class="j" cx="44.13" cy="76.88" rx="2.88" ry="1.5" transform="translate(-39.79 105.47) rotate(-78.96)"/><ellipse class="j" cx="47.13" cy="51.88" rx="2.88" ry="1.5" transform="translate(-9.4 93.33) rotate(-84)"/><ellipse class="j" cx="22.13" cy="51.88" rx="1.5" ry="2.88" transform="translate(-5.3 2.6) rotate(-6)"/><ellipse class="j" cx="15.13" cy="65.88" rx="1.5" ry="2.88" transform="translate(-16.85 6.33) rotate(-15.3)"/><ellipse class="j" cx="54.12" cy="65.88" rx="2.88" ry="1.5" transform="translate(-23.71 100.71) rotate(-74.7)"/><ellipse class="j" cx="60.12" cy="42.88" rx="2.88" ry="1.5" transform="translate(11.19 98.2) rotate(-84)"/><ellipse class="j" cx="9.12" cy="42.88" rx="1.5" ry="2.88" transform="translate(-4.43 1.19) rotate(-6)"/><ellipse class="j" cx="21.13" cy="28.88" rx="1.5" ry="2.88" transform="translate(-1.48 1.15) rotate(-3)"/><ellipse class="j" cx="48.13" cy="28.88" rx="2.88" ry="1.5" transform="matrix(0.05, -1, 1, 0.05, 16.76, 75.43)"/></svg>