<?xml version="1.0" encoding="utf-8"?>
<!-- Generator: Adobe Illustrator 22.1.0, SVG Export Plug-In . SVG Version: 6.00 Build 0)  -->
<svg version="1.1" id="Layer_1" xmlns="http://www.w3.org/2000/svg" xmlns:xlink="http://www.w3.org/1999/xlink" x="0px" y="0px"
	 viewBox="0 0 100 100" style="enable-background:new 0 0 100 100;" xml:space="preserve">
<style type="text/css">
	.st0{fill:#9E9E9E;}
	.st1{fill:#757575;}
	.st2{fill:#FDD835;}
	.st3{fill:#FBC02D;}
	.st4{fill:#F9A825;}
	.st5{fill:#F44336;stroke:#000000;stroke-width:2;stroke-miterlimit:10;}
	.st6{fill:#795548;stroke:#000000;stroke-width:2;stroke-linejoin:round;}
	.st7{fill:#F44336;stroke:#000000;stroke-width:2;stroke-linecap:round;stroke-miterlimit:10;}
	.st8{fill:#D32F2F;}
	.st9{fill:none;stroke:#000000;stroke-width:2;stroke-miterlimit:10;}
	.st10{fill:#4CAF50;stroke:#000000;stroke-width:2;stroke-linejoin:round;}
	.st11{fill:#2E7D32;}
	.st12{fill:none;stroke:#000000;stroke-width:2;stroke-linecap:round;stroke-linejoin:round;}
	.st13{fill:none;stroke:#000000;stroke-width:2;stroke-linejoin:round;}
	.st14{fill-opacity:0.5;}
</style>
<circle class="st0" cx="50" cy="55.02" r="35"/>
<circle class="st1" cx="50" cy="55.02" r="31"/>
<polygon class="st2" points="50,2.447 65.451,33.754 100,38.774 75,63.143 80.902,97.553 50,81.307 19.098,97.553 25,63.143 
	0,38.774 34.549,33.754 "/>
<polygon class="st3" points="50,15 61.372,38.043 86.801,41.738 68.401,59.674 72.744,85 50,73.043 27.256,85 31.599,59.674 
	13.199,41.738 38.628,38.043 "/>
<polygon class="st4" points="50,26.224 57.725,41.877 75,44.387 62.5,56.572 65.451,73.776 50,65.653 34.549,73.776 37.5,56.572 
	25,44.387 42.275,41.877 "/>
<path class="st5" d="M78.232,43.46L78.232,43.46c1.599-10.741-5.812-20.745-16.553-22.344c-4.132-0.615-8.352,0.102-12.049,2.047
	c-9.553-5.093-21.427-1.478-26.52,8.076c-1.995,3.742-2.723,8.03-2.074,12.221l0,0c0,0.171,0.069,0.334,0.094,0.506
	c0.026,0.171,0.086,0.549,0.146,0.814c2.852,15.742,9.679,30.494,19.834,42.857l0,0c3.426,4.708,10.02,5.747,14.728,2.32
	c0.89-0.648,1.673-1.431,2.32-2.32l0,0C68.313,75.275,75.141,60.522,77.992,44.78c0.06-0.266,0.103-0.549,0.146-0.814
	C78.181,43.7,78.232,43.632,78.232,43.46z"/>
<path class="st6" d="M52.518,26c0.146-5.741,0.934-11.448,2.349-17.014c-0.832-0.556-1.81-0.854-2.811-0.857
	c-0.166-0.009-0.332-0.009-0.497,0c-1.472,5.744-2.3,11.635-2.469,17.563c0.66,0.3,1.376,0.454,2.1,0.454
	C51.637,26.155,52.084,26.106,52.518,26z"/>
<path class="st7" d="M57.541,30.286c-5.491-9.401-17.565-12.571-26.966-7.08c-6.024,3.519-9.74,9.96-9.771,16.937
	c0.004,0.956,0.079,1.91,0.223,2.854"/>
<path class="st8" d="M78.447,40.572c0.001-3.2-0.782-6.352-2.28-9.18c0.437,2.262,0.475,4.582,0.111,6.857l0,0
	c0,0.18-0.069,0.36-0.094,0.54s-0.094,0.583-0.163,0.857c-3.024,16.821-10.3,32.589-21.137,45.805l0,0
	c-2.118,2.907-5.497,4.628-9.094,4.629c-0.88-0.002-1.758-0.105-2.614-0.309c4.578,3.575,11.187,2.762,14.762-1.816
	c0.075-0.096,0.149-0.194,0.221-0.293l0,0C68.313,75.3,75.141,60.548,77.992,44.806c0.06-0.266,0.103-0.549,0.146-0.814
	c0.043-0.266,0.069-0.334,0.094-0.506l0,0C78.376,42.521,78.448,41.547,78.447,40.572z"/>
<path class="st9" d="M41.093,87.663L41.093,87.663c3.426,4.708,10.02,5.747,14.728,2.32c0.89-0.648,1.673-1.431,2.32-2.32l0,0
	C68.296,75.3,75.123,60.548,77.975,44.806c0.06-0.266,0.103-0.549,0.146-0.814c0.043-0.266,0.069-0.334,0.094-0.506l0,0
	c1.671-10.668-5.622-20.67-16.289-22.342c-1.051-0.165-2.113-0.243-3.176-0.235"/>
<path class="st9" d="M21.019,43.46c0,0.171,0.069,0.334,0.094,0.506"/>
<path class="st10" d="M43.356,8.138c-0.476-0.084-0.957-0.13-1.44-0.137h-0.54c-5.934-0.038-11.762,1.573-16.834,4.654
	c3.721,4.636,8.66,8.144,14.263,10.131l0.411,0.163h0.069l0,0c4.818,1.669,10.087-0.822,11.854-5.606
	C51.101,12.801,47.829,8.931,43.356,8.138z"/>
<path class="st11" d="M44.496,16.966c-1.869-0.197-3.797-0.523-5.794-0.857c-4.417-0.802-8.765-1.948-13.003-3.429h-1.157
	c3.724,4.627,8.663,8.126,14.263,10.106l0.411,0.163h0.069l0,0c4.818,1.669,10.087-0.822,11.854-5.606
	C51.138,17.343,48.233,17.361,44.496,16.966z"/>
<path class="st12" d="M25.699,12.672c4.238,1.481,8.586,2.627,13.003,3.429c1.997,0.369,3.934,0.66,5.794,0.857"/>
<path class="st13" d="M43.356,8.138c-0.476-0.084-0.957-0.13-1.44-0.137h-0.54c-5.934-0.038-11.762,1.573-16.834,4.654
	c3.721,4.636,8.66,8.144,14.263,10.131l0.411,0.163h0.069l0,0c4.818,1.669,10.087-0.822,11.854-5.606
	C51.101,12.801,47.829,8.931,43.356,8.138z"/>
<ellipse class="st14" cx="50.058" cy="82.468" rx="1.286" ry="2.469"/>
<ellipse class="st14" cx="50.058" cy="62.754" rx="1.286" ry="2.469"/>
<ellipse class="st14" cx="50.058" cy="42.183" rx="1.286" ry="2.469"/>
<ellipse transform="matrix(0.9815 -0.1915 0.1915 0.9815 -13.218 9.2973)" class="st14" cx="41.493" cy="73.036" rx="1.286" ry="2.469"/>
<ellipse transform="matrix(0.1915 -0.9815 0.9815 0.1915 -24.986 115.7456)" class="st14" cx="57.762" cy="73.039" rx="2.469" ry="1.286"/>
<ellipse transform="matrix(0.1045 -0.9945 0.9945 0.1045 2.7006 106.2244)" class="st14" cx="60.337" cy="51.613" rx="2.469" ry="1.286"/>
<ellipse transform="matrix(0.9945 -0.1045 0.1045 0.9945 -5.1819 4.3507)" class="st14" cx="38.917" cy="51.614" rx="1.286" ry="2.469"/>
<ellipse transform="matrix(0.9646 -0.2639 0.2639 0.9646 -15.6194 10.9397)" class="st14" cx="32.914" cy="63.614" rx="1.286" ry="2.469"/>
<ellipse transform="matrix(0.2639 -0.9646 0.9646 0.2639 -12.5382 110.8146)" class="st14" cx="66.332" cy="63.622" rx="2.469" ry="1.286"/>
<ellipse transform="matrix(0.1045 -0.9945 0.9945 0.1045 20.3395 110.4038)" class="st14" cx="71.478" cy="43.907" rx="2.469" ry="1.286"/>
<ellipse transform="matrix(0.9945 -0.1045 0.1045 0.9945 -4.4366 3.1429)" class="st14" cx="27.766" cy="43.899" rx="1.286" ry="2.469"/>
<ellipse transform="matrix(0.9986 -0.0523 0.0523 0.9986 -1.6174 2.0357)" class="st14" cx="38.061" cy="31.901" rx="1.286" ry="2.469"/>
<ellipse transform="matrix(0.0499 -0.9988 0.9988 0.0499 26.3356 91.2472)" class="st14" cx="61.13" cy="31.781" rx="2.472" ry="1.287"/>
</svg>
