<svg id="Layer_1" data-name="Layer 1" xmlns="http://www.w3.org/2000/svg" viewBox="0 0 100 100"><defs><style>.cls-1{fill:#cddc39;}.cls-2{fill:#afb42b;}.cls-3{fill:#795548;}.cls-4{fill:#4caf50;}.cls-5{fill:#2e7d32;}.cls-6{fill:#f44336;}.cls-7{fill:#d32f2f;}.cls-8{fill-opacity:0.5;}</style></defs><title>favicon</title><path class="cls-1" d="M52.45656,61.84935a33.91976,33.91976,0,0,1-.99833-21.44063A10.57131,10.57131,0,0,0,31.104,34.68887h0A33.88266,33.88266,0,0,1,18.51918,52.89373h0A15.14523,15.14523,0,0,0,29.46559,79.60789a15.12163,15.12163,0,0,0,22.991-17.75854Z"/><path d="M38.35755,83.11344a15.5838,15.5838,0,0,1-9.06171-2.90415A15.73252,15.73252,0,0,1,18.14232,52.44321a33.47722,33.47722,0,0,0,12.396-17.9118,11.15863,11.15863,0,0,1,21.48551,6.036,33.5362,33.5362,0,0,0,.98009,21.06886A15.70881,15.70881,0,0,1,40.80147,82.92419,15.92639,15.92639,0,0,1,38.35755,83.11344Zm-8.892-4.093a.59.59,0,0,1,.34668.113,14.534,14.534,0,0,0,22.098-17.0682l-.00115-.004A34.71487,34.71487,0,0,1,50.89346,40.2491,9.98414,9.98414,0,0,0,31.66951,34.848,34.62258,34.62258,0,0,1,18.86664,53.3671,14.5586,14.5586,0,0,0,29.4177,79.02216C29.43376,79.021,29.44982,79.02044,29.46559,79.02044Z"/><path class="cls-2" d="M24.46806,77.65234A16.34994,16.34994,0,0,1,13.28675,66.78815a15.122,15.122,0,0,0,27.01366,6.81214A16.36155,16.36155,0,0,1,24.46806,77.65234Z"/><path class="cls-1" d="M23.75748,71.12208A15.12178,15.12178,0,1,0,52.5329,61.96033"/><path class="cls-2" d="M52.63861,62.278a16.37259,16.37259,0,0,1-26.0212,14.59325A15.11592,15.11592,0,0,0,52.63861,62.278Z"/><path d="M38.35755,83.11344a15.5838,15.5838,0,0,1-9.06171-2.90415A15.73252,15.73252,0,0,1,18.14232,52.44321a33.47722,33.47722,0,0,0,12.396-17.9118,11.15863,11.15863,0,0,1,21.48551,6.036,33.5362,33.5362,0,0,0,.98009,21.06886A15.70881,15.70881,0,0,1,40.80147,82.92419,15.92639,15.92639,0,0,1,38.35755,83.11344Zm-8.892-4.093a.59.59,0,0,1,.34668.113,14.534,14.534,0,0,0,22.098-17.0682l-.00115-.004A34.71487,34.71487,0,0,1,50.89346,40.2491,9.98414,9.98414,0,0,0,31.66951,34.848,34.62258,34.62258,0,0,1,18.86664,53.3671,14.5586,14.5586,0,0,0,29.4177,79.02216C29.43376,79.021,29.44982,79.02044,29.46559,79.02044Z"/><path d="M38.39855,83.03831A15.73752,15.73752,0,0,1,23.189,71.26973a.58713.58713,0,1,1,1.13666-.29477,14.53473,14.53473,0,1,0,27.658-8.80651.58752.58752,0,0,1,1.09881-.41636,15.71718,15.71718,0,0,1-10.7449,20.78155A15.68353,15.68353,0,0,1,38.39855,83.03831Z"/><path class="cls-3" d="M44.3231,30.3432a53.3374,53.3374,0,0,1,4.698-10.77023A3.52754,3.52754,0,0,0,47.324,18.4983l-.33474-.07634a54.75716,54.75716,0,0,0-4.86833,11.105A3.46813,3.46813,0,0,0,44.3231,30.3432Z"/><path d="M44.323,30.93047h-.00545a4.06268,4.06268,0,0,1-2.575-.95429.58653.58653,0,0,1-.18237-.624,55.40369,55.40369,0,0,1,4.92054-11.22377.5826.5826,0,0,1,.63887-.27871l.33492.07627a4.11929,4.11929,0,0,1,2.00922,1.26111.58738.58738,0,0,1,.06652.67844,52.84143,52.84143,0,0,0-4.64641,10.652A.58768.58768,0,0,1,44.323,30.93047Zm-1.51574-1.62642a2.89456,2.89456,0,0,0,1.09652.41635,54.0521,54.0521,0,0,1,4.38576-10.04983,2.94011,2.94011,0,0,0-1.01106-.57234A54.28142,54.28142,0,0,0,42.80725,29.30405Z"/><path class="cls-4" d="M40.04789,17.65853a6.13665,6.13665,0,0,0-.98071-.14094h-.35235a21.91472,21.91472,0,0,0-11.704,2.5428,21.90553,21.90553,0,0,0,9.396,7.45812l.276.12332h.047a6.36176,6.36176,0,0,0,.94548.30538,6.45953,6.45953,0,0,0,7.37591-3.71732A6.45951,6.45951,0,0,0,40.04789,17.65853Z"/><path class="cls-5" d="M40.506,23.74247c-1.26846-.20554-2.578-.49916-3.9346-.82215a59.05481,59.05481,0,0,1-8.77944-2.8012l-.79279-.05873a21.90555,21.90555,0,0,0,9.39606,7.45812l.276.12332h.047a6.3606,6.3606,0,0,0,.94548.30538,6.45952,6.45952,0,0,0,7.3759-3.71732A43.7832,43.7832,0,0,1,40.506,23.74247Z"/><path d="M39.12975,28.70074a6.77317,6.77317,0,0,1-2.546-.4846.61181.61181,0,0,1-.14021-.03785l-.27614-.1233a22.46659,22.46659,0,0,1-9.63377-7.65208.587.587,0,0,1,.20044-.86023,22.45759,22.45759,0,0,1,12.01776-2.6111l.2684-.00115c.01233,0,.0714.00058.08373.00115a6.68307,6.68307,0,0,1,1.07443.15484h.00143A7.04763,7.04763,0,0,1,45.638,24.25505a.59293.59293,0,0,1-.04817.20932A7.05106,7.05106,0,0,1,39.12975,28.70074Zm-2.28966-1.63158a.58523.58523,0,0,1,.11356.02982,5.8106,5.8106,0,0,0,.85794.277,5.87167,5.87167,0,0,0,6.65678-3.28036A5.87287,5.87287,0,0,0,39.916,18.23111a5.57939,5.57939,0,0,0-.88547-.12732l-.31571.00115a21.33281,21.33281,0,0,0-10.82,2.16148,21.2993,21.2993,0,0,0,8.73712,6.70983Z"/><path d="M40.536,24.3296a.57181.57181,0,0,1-.10724-.00975c-1.48333-.27413-2.743-.53736-3.964-.82812a59.833,59.833,0,0,1-8.894-2.82845.58743.58743,0,0,1,.44216-1.08848,58.688,58.688,0,0,0,8.72135,2.774c1.20375.28617,2.44478.54538,3.90775.81607A.58726.58726,0,0,1,40.536,24.3296Z"/><path class="cls-6" d="M85.77145,43.80892h0a13.507,13.507,0,0,0-23.21413-6.23663,13.50721,13.50721,0,0,0-14.36422,18.058,14.85705,14.85705,0,0,0,.828,1.76176h0l.17618.2995c.094.16443.18792.32886.28775.49329A64.37942,64.37942,0,0,0,72.42318,81.04666h0a7.21744,7.21744,0,0,0,10.9464-4.05792h0A64.2777,64.2777,0,0,0,85.93,44.71329a3.84026,3.84026,0,0,0-.09984-.58725C85.79494,43.91462,85.78907,43.9205,85.77145,43.80892Z"/><path d="M76.40859,82.83988a7.75816,7.75816,0,0,1-4.31035-1.30411A65.078,65.078,0,0,1,48.97915,58.4832c-.09807-.16172-.19413-.32918-.28961-.49664l-.17463-.29707a15.55449,15.55449,0,0,1-.86855-1.84491,14.16784,14.16784,0,0,1-.75815-6.63012A14.0949,14.0949,0,0,1,62.32827,36.9544a14.09426,14.09426,0,0,1,24.01717,6.73105l.02122.1124c.00918.04531.02122.10094.043.23055.01089.0648.02466.12559.03785.18466a2.47849,2.47849,0,0,1,.06881.44159,65.00959,65.00959,0,0,1-2.59217,32.526,7.70229,7.70229,0,0,1-1.00475,2.17983A7.80666,7.80666,0,0,1,76.40859,82.83988ZM60.86243,38.05263a12.92134,12.92134,0,0,0-12.11812,17.375,14.311,14.311,0,0,0,.79084,1.68033l.16832.28617c.09634.168.187.32746.28388.48632A63.9464,63.9464,0,0,0,72.7199,80.53962a6.62909,6.62909,0,0,0,10.08425-3.70991,63.88208,63.88208,0,0,0,2.548-32.01391l-.00918-.10266a1.35938,1.35938,0,0,0-.04186-.24373c-.01778-.07972-.03613-.1623-.04989-.24775-.01721-.10208-.027-.14738-.03441-.18351-.008-.03728-.01434-.06825-.02294-.121a12.91943,12.91943,0,0,0-22.20151-5.95053l-.20531.226-.30337-.03786A13.03833,13.03833,0,0,0,60.86243,38.05263Z"/><path class="cls-3" d="M65.08838,38.68807A52.86389,52.86389,0,0,1,62.55145,27.219a3.52354,3.52354,0,0,0-2.00254.1292,2.59206,2.59206,0,0,0-.31712.14094,54.75961,54.75961,0,0,0,2.59566,11.839,3.39146,3.39146,0,0,0,1.45639-.21142A3.21092,3.21092,0,0,0,65.08838,38.68807Z"/><path d="M63.07725,39.9245c-.09807,0-.19614-.00344-.2942-.01089a.58769.58769,0,0,1-.51213-.39686,55.48469,55.48469,0,0,1-2.62314-11.96643.58756.58756,0,0,1,.31083-.58152,3.21866,3.21866,0,0,1,.38883-.17205,4.099,4.099,0,0,1,2.33467-.15025.58634.58634,0,0,1,.45306.50983,52.3581,52.3581,0,0,0,2.509,11.34191.587.587,0,0,1-.20875.66352,3.78954,3.78954,0,0,1-.95085.507A3.98022,3.98022,0,0,1,63.07725,39.9245ZM60.863,27.86115a54.31557,54.31557,0,0,0,2.38859,10.88369,2.8189,2.8189,0,0,0,.8241-.17664,2.85124,2.85124,0,0,0,.308-.13362A53.53732,53.53732,0,0,1,62.01687,27.7281,2.949,2.949,0,0,0,60.863,27.86115Z"/><path class="cls-6" d="M69.346,40.2854a13.50671,13.50671,0,0,0-21.25858,15.063,12.94578,12.94578,0,0,0,.82216,1.76176"/><path d="M48.91005,57.69752a.5869.5869,0,0,1-.51242-.29936,13.58325,13.58325,0,0,1-.85966-1.84205A14.09414,14.09414,0,0,1,69.71826,39.831a.58722.58722,0,1,1-.74439.9084,12.91976,12.91976,0,0,0-20.3348,14.40836,12.43226,12.43226,0,0,0,.78224,1.67459.58709.58709,0,0,1-.51126.87514Z"/><path class="cls-7" d="M85.2253,41.918a13.3767,13.3767,0,0,0-3.64684-5.34988,14.00535,14.00535,0,0,1,1.13927,2.349,13.498,13.498,0,0,1,.58726,2.02015h0a2.036,2.036,0,0,0,.06459.37c.0235.12333.07635.39933.10571.58726A68.58842,68.58842,0,0,1,80.76805,76.3134h0A7.69891,7.69891,0,0,1,76.02892,81.446a7.45006,7.45006,0,0,1-1.76176.42283,7.18792,7.18792,0,0,0,9.04017-4.6487c.02819-.08809.05521-.17735.07987-.26662h0A64.27661,64.27661,0,0,0,85.93,44.71329a3.84141,3.84141,0,0,0-.09983-.58725c-.03524-.21142-.04111-.229-.05873-.34061h0A13.41034,13.41034,0,0,0,85.2253,41.918Z"/><ellipse class="cls-8" cx="76.94604" cy="75.5777" rx="0.88087" ry="1.69126" transform="translate(-21.46353 31.43884) rotate(-20.32871)"/><ellipse class="cls-8" cx="72.25701" cy="62.91668" rx="0.88087" ry="1.69126" transform="translate(-17.35707 29.02125) rotate(-20.32871)"/><ellipse class="cls-8" cx="67.36711" cy="49.70119" rx="0.88087" ry="1.69126" transform="translate(-13.07051 26.49935) rotate(-20.32871)"/><ellipse class="cls-8" cx="69.20613" cy="71.54851" rx="0.88088" ry="1.69129" transform="translate(-27.13028 46.48909) rotate(-31.37253)"/><ellipse class="cls-8" cx="79.66365" cy="67.68944" rx="0.88089" ry="1.69131" transform="matrix(0.98689, -0.1614, 0.1614, 0.98689, -9.88052, 13.74503)"/><ellipse class="cls-8" cx="76.21888" cy="53.30329" rx="0.88089" ry="1.69131" transform="translate(-10.82113 20.52229) rotate(-14.32945)"/><ellipse class="cls-8" cx="62.4543" cy="58.41362" rx="0.8809" ry="1.69133" transform="translate(-19.42805 33.75654) rotate(-26.32676)"/><ellipse class="cls-8" cx="61.44936" cy="67.5471" rx="0.88086" ry="1.69125" transform="translate(-27.8451 48.43859) rotate(-35.6276)"/><ellipse class="cls-8" cx="82.92101" cy="59.58202" rx="0.88084" ry="1.69121" transform="translate(-4.90606 7.50211) rotate(-5.03154)"/><ellipse class="cls-8" cx="81.54111" cy="45.69833" rx="0.88089" ry="1.69131" transform="translate(-8.77335 21.60293) rotate(-14.32945)"/><ellipse class="cls-8" cx="53.45793" cy="56.11216" rx="0.8809" ry="1.69133" transform="translate(-19.34049 29.52803) rotate(-26.32676)"/><ellipse class="cls-8" cx="57.20025" cy="45.94481" rx="0.88084" ry="1.69121" transform="translate(-13.51844 26.40868) rotate(-23.3295)"/><ellipse class="cls-8" cx="72.07739" cy="40.43688" rx="0.88088" ry="1.6913" transform="translate(-8.77361 23.30774) rotate(-17.33147)"/><path d="M76.40859,82.83988a7.75816,7.75816,0,0,1-4.31035-1.30411l.65034-.97837a6.62936,6.62936,0,0,0,10.05557-3.72769,63.88208,63.88208,0,0,0,2.548-32.01391l-.00918-.10266a1.35938,1.35938,0,0,0-.04186-.24373c-.01778-.07972-.03613-.1623-.04989-.24775l-.05965-.34409a12.81864,12.81864,0,0,0-17.094-9.37312l-.41636-1.0988a14.05553,14.05553,0,0,1,2.134-.62A13.99451,13.99451,0,0,1,86.34659,43.66652l.06309.36188c.01089.0648.02466.12559.03785.18466a2.47849,2.47849,0,0,1,.06881.44159,65.00959,65.00959,0,0,1-2.59217,32.526,7.70229,7.70229,0,0,1-1.00475,2.17983A7.80666,7.80666,0,0,1,76.40859,82.83988Z"/><path class="cls-4" d="M55.69233,29.16282a6.13078,6.13078,0,0,0-.98659.11745h-.047l-.29363.0646a21.94581,21.94581,0,0,0-10.6469,5.50844,21.91913,21.91913,0,0,0,10.98751,4.7685l.30537.047h.047a6.15965,6.15965,0,0,0,.99246.047,6.45942,6.45942,0,0,0,6.16616-5.49669A6.46008,6.46008,0,0,0,55.69233,29.16282Z"/><path class="cls-5" d="M57.70073,34.92378c-1.27434.12919-2.61327.182-4.01094.22315a59.56877,59.56877,0,0,1-9.19052-.44044l-.781.15269a21.919,21.919,0,0,0,10.98751,4.7685l.30537.047h.047a6.1585,6.1585,0,0,0,.99246.047A6.45942,6.45942,0,0,0,62.21671,34.225,45.58024,45.58024,0,0,1,57.70073,34.92378Z"/><path d="M55.84669,40.30645a6.8039,6.8039,0,0,1-.83213-.051c-.03327-.00115-.07341-.00344-.09291-.00631l-.3051-.047a22.47642,22.47642,0,0,1-11.2705-4.89473.58683.58683,0,0,1-.02982-.882,22.5131,22.5131,0,0,1,10.93214-5.65575l.285-.06251a.55468.55468,0,0,1,.1147-.01377,6.63114,6.63114,0,0,1,1.0231-.117h.00115a7.04179,7.04179,0,0,1,7.11758,5.51525.59961.59961,0,0,1,.00745.21449,7.04589,7.04589,0,0,1-6.727,5.9964C55.9958,40.3053,55.92124,40.30645,55.84669,40.30645Zm-.78511-1.22383c.02753.00057.05735.00172.07169.00344a5.83443,5.83443,0,0,0,6.485-4.84656,5.87134,5.87134,0,0,0-5.9058-4.48985,5.49847,5.49847,0,0,0-.88948.10667.64141.64141,0,0,1-.09921.01147l-.23284.05047a21.356,21.356,0,0,0-9.86632,4.90391,21.31537,21.31537,0,0,0,10.1588,4.21744Z"/><path d="M51.94639,35.75982a60.32788,60.32788,0,0,1-7.52046-.47083.58727.58727,0,1,1,.14681-1.16533,58.8624,58.8624,0,0,0,9.09985.43585c1.36663-.04129,2.70572-.11585,3.98-.22137a.58751.58751,0,0,1,.09635,1.17107c-1.29437.10667-2.65412.18237-4.04139.2248Q52.82842,35.75983,51.94639,35.75982Z"/></svg>