<?xml version="1.0" standalone="no"?>
<!DOCTYPE svg PUBLIC "-//W3C//DTD SVG 20010904//EN"
 "http://www.w3.org/TR/2001/REC-SVG-20010904/DTD/svg10.dtd">
<svg version="1.0" xmlns="http://www.w3.org/2000/svg"
 width="700.000000pt" height="700.000000pt" viewBox="0 0 700.000000 700.000000"
 preserveAspectRatio="xMidYMid meet">
<metadata>
Created by potrace 1.11, written by Peter Selinger 2001-2013
</metadata>
<g transform="translate(0.000000,700.000000) scale(0.100000,-0.100000)"
fill="#000000" stroke="none">
<path d="M2411 5804 c-176 -24 -342 -74 -490 -149 -49 -24 -71 -41 -71 -54 0
-22 78 -125 151 -201 118 -122 298 -255 428 -316 34 -16 61 -31 61 -34 0 -3
-22 -20 -49 -38 -145 -99 -243 -238 -306 -432 -55 -171 -100 -288 -156 -400
-151 -305 -367 -573 -632 -788 -222 -179 -319 -304 -400 -517 -75 -195 -92
-424 -47 -632 81 -370 370 -688 735 -807 104 -34 220 -53 334 -55 84 -2 95 -5
136 -32 107 -72 272 -133 430 -158 152 -24 391 2 536 59 90 36 232 109 249
129 3 3 23 19 45 35 57 42 169 160 221 232 83 116 151 274 185 429 7 33 13
117 13 187 l1 127 21 -27 c12 -15 30 -37 40 -48 11 -12 37 -43 59 -70 80 -96
304 -324 415 -420 24 -21 51 -46 60 -54 30 -28 75 -65 120 -100 25 -19 47 -37
50 -40 30 -33 314 -227 476 -325 126 -76 190 -98 304 -101 107 -3 165 9 258
53 84 39 190 137 235 216 64 109 200 593 237 840 6 43 13 88 15 100 30 165 49
438 49 677 0 267 -14 452 -54 705 -5 33 -12 78 -15 100 -11 68 -30 139 -55
200 -39 92 -52 119 -92 180 -114 176 -279 309 -474 385 -278 107 -611 77 -860
-79 -34 -21 -51 -26 -55 -18 -18 33 -77 344 -94 490 -8 74 -22 87 -94 87 -67
0 -119 -15 -142 -40 -14 -16 -14 -29 -5 -102 l12 -84 -44 24 c-152 85 -338 77
-604 -25 l-68 -26 -47 47 c-46 45 -159 125 -196 139 -14 5 -17 13 -12 29 17
56 85 206 162 356 46 90 83 170 83 179 0 22 -46 60 -105 89 -89 42 -95 39
-169 -99 l-48 -88 -28 44 c-61 97 -166 178 -277 213 -66 21 -299 25 -432 8z"/>
</g>
</svg>
