<?xml version="1.0" encoding="utf-8"?>
<!-- Generator: Adobe Illustrator 22.1.0, SVG Export Plug-In . SVG Version: 6.00 Build 0)  -->
<svg version="1.1" id="Layer_1" xmlns="http://www.w3.org/2000/svg" xmlns:xlink="http://www.w3.org/1999/xlink" x="0px" y="0px"
	 viewBox="0 0 150 150" style="enable-background:new 0 0 150 150;" xml:space="preserve">
<style type="text/css">
	.st0{fill:#F1FF3B;stroke:#FF470D;stroke-width:6;stroke-miterlimit:10;}
	.st1{fill:none;stroke:#FFFFFF;stroke-width:10;stroke-miterlimit:10;}
	.st2{fill:none;stroke:#FF470D;stroke-width:10;stroke-miterlimit:10;}
	.st3{fill:#710300;}
	.st4{fill:#C2FF10;}
	.st5{fill:#FFAC08;}
	.st6{fill:#B0E300;}
	.st7{fill:#BD7E00;}
	.st8{fill:#FFF492;}
	.st9{fill:#529A00;}
	.st10{fill:none;stroke:#FF470D;stroke-width:6;stroke-miterlimit:10;}
</style>
<title>L</title>
<path class="st0" d="M40,25h70c8.3,0,15,6.7,15,15v70c0,8.3-6.7,15-15,15H40c-8.3,0-15-6.7-15-15V40C25,31.7,31.7,25,40,25z"/>
<path class="st1" d="M125,73.6c-25-0.1-25,10.9-50,10.9S50,73.6,25,73.6"/>
<path class="st2" d="M125,69.6c-25-0.1-25,10.9-50,10.9S50,69.6,25,69.6"/>
<path d="M52.8,58.8c0.2,0.4,0.3,0.7,0.3,1.1c0,0.5-0.5,1-1.3,1.4c-0.4,0.2-0.7,0.3-1.1,0.3c-0.2,0-0.5-0.1-0.7-0.2
	c-0.2-0.1-0.3-0.3-0.4-0.4c-0.1-0.3-0.7-1.6-1.7-3.9h-0.7h-2.7v2.5c0,0.2,0,0.5,0,0.8c0,0.2-0.1,0.4-0.2,0.6
	c-0.2,0.4-0.8,0.6-1.7,0.6s-1.6-0.3-1.8-0.8c-0.1-0.4-0.1-0.8-0.1-1.1v-12c0-0.3,0-0.5,0-0.8c0-0.2,0.1-0.4,0.2-0.6
	c0.2-0.4,0.8-0.6,1.7-0.6h4.7c1.4,0,2.7,0.5,3.7,1.4c0.6,0.5,1.1,1.1,1.4,1.8c0.4,0.8,0.6,1.7,0.6,2.6c0.1,1.5-0.5,3-1.6,4
	C51.7,56.1,52.2,57.3,52.8,58.8z M44.5,53.2h2.8c0.5,0,0.9-0.2,1.3-0.5c0.4-0.3,0.7-0.9,0.6-1.4c0-0.6-0.2-1.1-0.6-1.5
	c-0.4-0.3-0.8-0.5-1.3-0.5h-2.7V53.2z"/>
<path d="M61.4,51.2c0.1-0.8,0.6-1.2,1.7-1.2c0.4,0,0.8,0,1.3,0.1c0.2,0.1,0.5,0.2,0.6,0.5c0.1,0.2,0.2,0.4,0.2,0.6
	c0,0.2,0,0.5,0,0.8v7.6c0,0.2,0,0.5,0,0.8c0,0.2-0.1,0.4-0.2,0.6c-0.2,0.4-0.7,0.6-1.5,0.6c-0.5,0.1-1.1,0-1.6-0.3
	c-0.3-0.2-0.4-0.5-0.5-0.9c-0.6,0.8-1.7,1.3-2.7,1.2c-1.4,0-2.6-0.7-3.5-1.7c-1-1.1-1.6-2.5-1.6-4c0-1.5,0.6-2.9,1.6-4
	c0.9-1.1,2.2-1.7,3.6-1.7c0.5,0,0.9,0.1,1.3,0.3c0.3,0.1,0.6,0.3,0.8,0.5C61.1,50.9,61.3,51,61.4,51.2z M57.4,55.8
	c0,0.5,0.3,0.9,0.6,1.3c0.4,0.4,0.9,0.6,1.4,0.6c0.5,0,1-0.2,1.3-0.6c0.3-0.3,0.5-0.8,0.5-1.3c0-0.5-0.2-1-0.5-1.3
	c-0.3-0.4-0.8-0.6-1.4-0.6c-0.5,0-1,0.2-1.4,0.6C57.6,54.8,57.4,55.2,57.4,55.8L57.4,55.8z"/>
<path d="M70.7,51.5c0.5-0.9,1.4-1.5,2.5-1.5c1.4-0.1,2.7,0.7,3.3,1.9c0.2-0.2,0.4-0.5,0.6-0.7c0.3-0.3,0.7-0.6,1.1-0.8
	c0.5-0.3,1-0.4,1.5-0.4c1.1,0,2.2,0.5,2.9,1.3c0.8,0.9,1.2,2.4,1.2,4.4v3.8c0,0.2,0,0.5,0,0.8c0,0.2-0.1,0.4-0.2,0.6
	c-0.2,0.4-0.8,0.6-1.7,0.6s-1.5-0.2-1.7-0.6c-0.1-0.2-0.2-0.4-0.2-0.6c0-0.2,0-0.5,0-0.8v-3.9c0-1.3-0.4-1.9-1.3-1.9
	c-0.4,0-0.8,0.2-1,0.5c-0.2,0.4-0.3,0.9-0.3,1.4v3.8c0,0.3,0,0.5,0,0.8c0,0.2-0.1,0.4-0.2,0.6c-0.2,0.4-0.8,0.6-1.7,0.6
	s-1.5-0.2-1.7-0.6c-0.1-0.2-0.2-0.4-0.2-0.6c0-0.2,0-0.5,0-0.8v-3.8c0-1.3-0.4-1.9-1.3-1.9c-0.9,0-1.3,0.6-1.3,1.9v3.9
	c0,0.2,0,0.5,0,0.8c0,0.2-0.1,0.4-0.2,0.6c-0.2,0.4-0.8,0.6-1.7,0.6s-1.5-0.2-1.7-0.6c-0.1-0.2-0.2-0.4-0.2-0.6c0-0.3,0-0.5,0-0.8
	v-7.7c0-0.2,0-0.5,0-0.8c0-0.2,0.1-0.4,0.2-0.6c0.2-0.4,0.7-0.6,1.6-0.6c0.6-0.1,1.1,0.1,1.6,0.4C70.7,50.7,70.7,51.1,70.7,51.5z"/>
<path d="M96.5,54.4c0.1,0.7-0.2,1.5-0.7,2c-0.4,0.4-0.9,0.6-1.5,0.6h-5.2c0,0.4,0.3,0.8,0.7,1c0.4,0.3,0.9,0.4,1.4,0.4
	c0.7,0,1.4-0.1,2-0.3l0.2-0.1c0.3-0.1,0.6-0.2,0.9-0.2c0.5,0,0.9,0.3,1.2,1c0.2,0.3,0.3,0.6,0.3,1c0,1.3-1.5,1.9-4.6,1.9
	c-1,0-2-0.2-2.9-0.6c-0.8-0.3-1.5-0.8-2-1.5c-0.9-1.1-1.4-2.5-1.4-3.9c-0.1-1.7,0.6-3.3,1.8-4.4c1.2-1.1,2.8-1.7,4.4-1.6
	c1.8-0.1,3.4,0.7,4.4,2.1C96.2,52.6,96.5,53.5,96.5,54.4z M91.9,55c0.6,0,0.8-0.2,0.8-0.7c0-0.3-0.1-0.6-0.4-0.8
	c-0.3-0.2-0.7-0.3-1.1-0.3c-0.5,0-1,0.2-1.4,0.6c-0.4,0.3-0.7,0.7-0.7,1.2L91.9,55z"/>
<path d="M104.3,50c1.4,0,2.7,0.6,3.6,1.7c1,1.1,1.5,2.6,1.4,4.1v3.8c0,0.2,0,0.5,0,0.8c0,0.2-0.1,0.4-0.2,0.5
	c-0.2,0.4-0.8,0.6-1.7,0.6s-1.6-0.3-1.8-0.8c-0.1-0.4-0.1-0.7-0.1-1.1v-3.8c0.1-1-0.7-1.8-1.6-1.9c-0.1,0-0.2,0-0.3,0
	c-0.5,0-1,0.2-1.4,0.5c-0.4,0.4-0.6,0.9-0.5,1.4v3.9c0,0.2,0,0.5,0,0.8c0,0.2-0.1,0.4-0.2,0.5c-0.2,0.4-0.8,0.6-1.7,0.6
	s-1.5-0.2-1.7-0.6c-0.1-0.2-0.1-0.4-0.2-0.6c0-0.2,0-0.5,0-0.8v-7.7c0-0.2,0-0.5,0-0.7c0-0.2,0.1-0.4,0.2-0.6
	c0.2-0.4,0.8-0.5,1.7-0.5s1.4,0.2,1.6,0.5c0.2,0.3,0.2,0.6,0.2,0.9c0.1-0.2,0.2-0.3,0.4-0.4c0.2-0.2,0.4-0.3,0.6-0.5
	C103.2,50.2,103.7,50,104.3,50z"/>
<path class="st3" d="M52.3,32.3c0.1,0.1,0.1,0.2,0.1,0.4c0,0.2,0,0.3,0,0.5V41c0,0.7-0.2,1-0.5,1.1c-0.2,0.1-0.4,0.1-0.7,0.1
	c-0.2,0-0.4,0-0.7-0.1c-0.1,0-0.2-0.1-0.3-0.2c-0.1-0.1-0.2-0.2-0.2-0.3c-0.1-0.2-0.1-0.5-0.1-0.7v-4.7c-0.2,0.3-0.6,0.8-1,1.4
	L48,38.8l-0.3,0.3c-0.1,0.1-0.2,0.2-0.3,0.3c-0.2,0.1-0.4,0.2-0.6,0.2c-0.2,0-0.4,0-0.6-0.1c-0.1-0.1-0.3-0.2-0.4-0.3L45.8,39
	c-0.2-0.2-0.6-0.7-1.1-1.5s-0.9-1.2-0.9-1.2V41c0,0.2,0,0.4,0,0.5c0,0.1-0.1,0.3-0.1,0.4c-0.1,0.3-0.5,0.4-1.1,0.4s-0.9-0.1-1.1-0.4
	c-0.1-0.1-0.1-0.2-0.1-0.4c0-0.2,0-0.3,0-0.5v-7.8c0-0.2,0-0.3,0-0.5c0-0.1,0.1-0.3,0.1-0.4c0.1-0.2,0.5-0.4,1.1-0.4
	c0.2,0,0.4,0,0.7,0.1c0.1,0,0.3,0.1,0.4,0.2l0.1,0.1l3.2,4.2c1.6-2.1,2.7-3.5,3.2-4.2c0.2-0.3,0.5-0.4,1.1-0.4
	C51.8,31.9,52.2,32,52.3,32.3z"/>
<path class="st3" d="M58.4,35.6c0.1-0.5,0.4-0.8,1.1-0.8c0.3,0,0.6,0,0.8,0.1c0.2,0,0.3,0.2,0.4,0.3c0.1,0.1,0.1,0.2,0.1,0.4
	c0,0.2,0,0.3,0,0.5v5c0,0.2,0,0.3,0,0.5c0,0.1-0.1,0.3-0.1,0.4c-0.1,0.2-0.5,0.4-1,0.4c-0.3,0-0.7,0-1-0.2c-0.2-0.1-0.3-0.3-0.3-0.6
	c-0.4,0.5-1.1,0.8-1.8,0.8c-0.9,0-1.7-0.4-2.3-1.1c-1.4-1.4-1.4-3.7,0-5.2c0.6-0.7,1.4-1.1,2.3-1.1c0.3,0,0.6,0.1,0.9,0.2
	c0.2,0.1,0.4,0.2,0.5,0.3C58.2,35.4,58.3,35.5,58.4,35.6z M55.8,38.5c0,0.3,0.1,0.6,0.4,0.8c0.2,0.2,0.6,0.4,0.9,0.4
	c0.3,0,0.7-0.1,0.9-0.4c0.2-0.2,0.3-0.5,0.3-0.8c0-0.3-0.1-0.6-0.3-0.9c-0.2-0.3-0.5-0.4-0.9-0.4c-0.3,0-0.7,0.1-0.9,0.4
	C56,37.9,55.8,38.2,55.8,38.5z"/>
<path class="st3" d="M67.1,34.9c0.2,0.1,0.3,0.2,0.4,0.3c0.1,0.2,0.2,0.4,0.2,0.7c0,0.3-0.1,0.7-0.3,1c-0.1,0.3-0.4,0.5-0.8,0.5
	c-0.2,0-0.3,0-0.5-0.1c-0.2-0.1-0.4-0.1-0.6-0.1c-0.3,0-0.5,0.1-0.7,0.3c-0.2,0.2-0.3,0.4-0.3,0.7v3c0,0.2,0,0.4,0,0.5
	c0,0.1-0.1,0.3-0.1,0.4c-0.1,0.3-0.5,0.4-1.1,0.4c-0.4,0-0.7-0.1-1-0.2c-0.2-0.2-0.3-0.4-0.3-0.6V36c0-0.2,0-0.3,0-0.5
	c0-0.1,0.1-0.2,0.1-0.4c0.1-0.3,0.5-0.4,1.1-0.4s0.9,0.1,1.1,0.3c0.1,0.1,0.2,0.3,0.2,0.5c0-0.1,0.1-0.2,0.2-0.2
	c0.2-0.1,0.4-0.3,0.6-0.4c0.2-0.1,0.5-0.2,0.8-0.2c0.2,0,0.4,0,0.6,0L67.1,34.9z"/>
<path class="st3" d="M71.8,42.2c-0.9,0-1.8-0.4-2.4-1.1c-0.6-0.7-1-1.7-0.9-2.6V36c0-0.2,0-0.4,0-0.5c0-0.1,0.1-0.2,0.1-0.4
	c0.1-0.3,0.5-0.4,1.1-0.4c0.7,0,1,0.2,1.2,0.5c0.1,0.2,0.1,0.5,0.1,0.7v2.5c0,0.7,0.6,1.2,1.3,1.2c0.3,0,0.6-0.1,0.8-0.3
	c0.2-0.2,0.4-0.6,0.3-0.9V36c0-0.2,0-0.4,0-0.5c0-0.1,0.1-0.3,0.1-0.4c0.1-0.2,0.5-0.4,1.1-0.4s1,0.1,1.1,0.4
	c0.1,0.1,0.1,0.2,0.1,0.4c0,0.1,0,0.3,0,0.5v5c0,0.2,0,0.4,0,0.5c0,0.1-0.1,0.3-0.1,0.4c-0.1,0.2-0.5,0.4-1.1,0.4s-0.9-0.1-1.1-0.3
	c-0.1-0.2-0.1-0.4-0.1-0.6c-0.1,0.1-0.2,0.2-0.3,0.3c-0.1,0.1-0.2,0.2-0.4,0.3C72.5,42.1,72.2,42.2,71.8,42.2z"/>
<path class="st3" d="M79.4,38.5c0,0.4,0.1,0.7,0.4,0.9c0.2,0.2,0.5,0.3,0.8,0.3c0.3,0,0.6-0.1,0.8-0.3c0.2-0.1,0.4-0.2,0.6-0.3
	c0.3,0,0.6,0.3,1,0.8c0.2,0.2,0.3,0.5,0.3,0.7c0,0.4-0.3,0.7-0.8,1c-0.6,0.4-1.3,0.6-2,0.6c-0.9,0-1.8-0.4-2.5-1
	c-0.4-0.3-0.7-0.7-0.9-1.2c-0.3-0.5-0.4-1.1-0.4-1.7c0-0.6,0.1-1.1,0.4-1.7c0.2-0.5,0.5-0.9,0.9-1.2c0.7-0.6,1.6-0.9,2.5-0.9
	c0.3,0,0.7,0.1,1,0.2c0.3,0.1,0.5,0.2,0.8,0.3l0.2,0.1l0.4,0.3c0.2,0.1,0.4,0.4,0.4,0.7c0,0.3-0.1,0.6-0.3,0.8
	c-0.3,0.5-0.7,0.8-1,0.8c-0.3,0-0.5-0.1-0.8-0.3c-0.2-0.2-0.5-0.3-0.7-0.2c-0.3,0-0.6,0.1-0.9,0.3C79.4,37.8,79.3,38.2,79.4,38.5z"
	/>
<path class="st3" d="M88.4,34.8c0.9,0,1.8,0.4,2.4,1.1c0.6,0.7,1,1.7,0.9,2.6V41c0,0.2,0,0.4,0,0.5c0,0.1-0.1,0.3-0.1,0.4
	c-0.1,0.3-0.5,0.4-1.1,0.4s-0.9-0.1-1.1-0.4c-0.1-0.1-0.1-0.2-0.1-0.4c0-0.2,0-0.3,0-0.5v-2.4c0-0.3-0.1-0.7-0.3-0.9
	c-0.2-0.2-0.5-0.3-0.8-0.3c-0.3,0-0.6,0.1-0.9,0.3c-0.2,0.2-0.4,0.4-0.4,0.7V41c0,0.2,0,0.3,0,0.5c0,0.1-0.1,0.3-0.1,0.4
	c-0.1,0.3-0.5,0.4-1.1,0.4s-1-0.1-1.1-0.4c-0.1-0.1-0.1-0.2-0.1-0.4c0-0.2,0-0.3,0-0.5v-8.4c0-0.2,0-0.3,0-0.5
	c0-0.1,0.1-0.2,0.1-0.4c0.1-0.3,0.5-0.4,1.1-0.4s1,0.1,1.1,0.4c0.1,0.1,0.1,0.2,0.1,0.4c0,0.2,0,0.3,0,0.5v3.1
	C87.2,35.2,87.8,34.9,88.4,34.8z"/>
<path class="st3" d="M97.7,35.6c0.1-0.5,0.4-0.8,1.1-0.8c0.3,0,0.6,0,0.8,0.1c0.2,0,0.3,0.2,0.4,0.3c0.1,0.1,0.1,0.2,0.1,0.4
	c0,0.2,0,0.3,0,0.5v5c0,0.2,0,0.3,0,0.5c0,0.1-0.1,0.3-0.1,0.4c-0.1,0.2-0.4,0.4-1,0.4c-0.3,0-0.7,0-1-0.2c-0.2-0.1-0.3-0.3-0.3-0.6
	c-0.4,0.5-1.1,0.8-1.8,0.8c-0.9,0-1.7-0.4-2.3-1.1c-1.4-1.4-1.4-3.7,0-5.2c0.6-0.7,1.4-1.1,2.3-1.2c0.3,0,0.6,0.1,0.9,0.2
	c0.2,0.1,0.4,0.2,0.6,0.3C97.5,35.4,97.6,35.5,97.7,35.6z M95.1,38.5c0,0.3,0.1,0.6,0.4,0.8c0.2,0.2,0.6,0.4,0.9,0.4
	c0.3,0,0.7-0.1,0.9-0.4c0.2-0.2,0.3-0.5,0.3-0.8c0-0.3-0.1-0.6-0.3-0.9c-0.2-0.3-0.6-0.4-0.9-0.4c-0.3,0-0.7,0.1-0.9,0.4
	C95.3,37.9,95.1,38.2,95.1,38.5z"/>
<path class="st3" d="M105.5,34.8c0.9,0,1.8,0.4,2.3,1.1c0.7,0.7,1,1.7,1,2.6V41c0,0.2,0,0.3,0,0.5c0,0.1-0.1,0.3-0.1,0.4
	c-0.1,0.3-0.5,0.4-1.1,0.4s-1.1-0.2-1.2-0.5c-0.1-0.2-0.1-0.5-0.1-0.7v-2.5c0-0.3-0.1-0.7-0.3-0.9c-0.2-0.2-0.6-0.3-0.9-0.3
	c-0.3,0-0.7,0.1-0.9,0.3c-0.2,0.2-0.4,0.6-0.3,0.9V41c0,0.2,0,0.3,0,0.5c0,0.1-0.1,0.3-0.1,0.4c-0.1,0.3-0.5,0.4-1.1,0.4
	s-1-0.1-1.1-0.4c-0.1-0.1-0.1-0.2-0.1-0.4c0-0.2,0-0.3,0-0.5v-5c0-0.2,0-0.3,0-0.5c0-0.1,0.1-0.2,0.1-0.4c0.1-0.2,0.5-0.3,1.1-0.3
	s0.9,0.1,1.1,0.3c0.1,0.2,0.1,0.4,0.1,0.6c0.1-0.1,0.2-0.2,0.3-0.3c0.1-0.1,0.2-0.2,0.4-0.3C104.8,34.9,105.1,34.8,105.5,34.8z"/>
<ellipse transform="matrix(0.3681 -0.9298 0.9298 0.3681 -69.9379 112.0875)" class="st4" cx="47.5" cy="107.5" rx="6.5" ry="8.5"/>
<ellipse transform="matrix(0.866 -0.5 0.5 0.866 -39.7506 36.6434)" class="st4" cx="48.5" cy="92.5" rx="8.5" ry="6.5"/>
<ellipse class="st5" cx="51.5" cy="99.5" rx="8.5" ry="5.5"/>
<ellipse transform="matrix(0.866 -0.5 0.5 0.866 -33.6434 71.4479)" class="st5" cx="116.5" cy="98.5" rx="8.5" ry="5.5"/>
<path class="st6" d="M125,100.2l-22.9,6.6c-1.1,0.3-1.7,1.4-1.4,2.5c0.3,1.1,1.4,1.7,2.5,1.4l0,0l21.8-6.3V100.2z"/>
<path class="st6" d="M125,97.5l-18.8,14.2c-0.9,0.6-1.1,1.9-0.5,2.8c0.6,0.9,1.9,1.1,2.8,0.5c0,0,0.1,0,0.1-0.1l16.3-12.4V97.5z"/>
<path class="st6" d="M125,87.1l-24.7,8.6c-1,0.4-1.6,1.5-1.2,2.5s1.5,1.6,2.5,1.2l0,0l23.4-8.1V87.1z"/>
<path class="st6" d="M125,83.8c-0.2,0.1-0.5,0.2-0.7,0.3l-27.1,20.6c-0.9,0.6-1.1,1.9-0.5,2.8c0.6,0.9,1.9,1.1,2.8,0.5
	c0,0,0.1,0,0.1-0.1L125,88.7V83.8z"/>
<path class="st7" d="M34.2,100.1c-3.3,0.4-6.5,1.7-9.2,3.8v6.1c0,1.5,0.2,3.1,0.7,4.5c3.4,1.6,7.2,2,10.8,1.4
	c7.4-1.1,12.8-5.6,12.2-9.9S41.5,99,34.2,100.1z"/>
<path class="st8" d="M34.2,98.1c-3.3,0.4-6.5,1.7-9.2,3.8v8.1c0,0.8,0.1,1.5,0.2,2.2c2.7,1.6,6.9,2.3,11.4,1.7
	c7.4-1.1,12.8-5.6,12.2-9.9S41.5,97,34.2,98.1z"/>
<path class="st7" d="M32.5,89.2c-2.7,0.6-5.2,1.7-7.5,3.3v11.1c3.5,1.2,7.3,1.4,10.9,0.4c7.3-1.7,12.4-6.3,11.5-10.4
	S39.8,87.6,32.5,89.2z"/>
<path class="st8" d="M31.5,87.2c-2.3,0.5-4.5,1.4-6.5,2.6V102c3.2,0.9,6.6,0.9,9.9,0.1c7.3-1.7,12.4-6.3,11.5-10.4
	S38.8,85.6,31.5,87.2z"/>
<path class="st9" d="M29.5,79.9c-1.6,0.4-3.2,1.2-4.5,2.3v7.9c2.3,1.1,5,1.3,7.5,0.5C37,89.4,40,86,39.1,83S34,78.7,29.5,79.9z"/>
<path class="st10" d="M40,25h70c8.3,0,15,6.7,15,15v70c0,8.3-6.7,15-15,15H40c-8.3,0-15-6.7-15-15V40C25,31.7,31.7,25,40,25z"/>
</svg>
