<svg xmlns="http://www.w3.org/2000/svg" viewBox="0 0 150 150"><defs><style>.a{fill:#e53935;}.a,.d,.e,.f{stroke:#000;}.a,.d,.f{stroke-linecap:round;}.a,.d,.e{stroke-linejoin:round;stroke-width:6px;}.b{fill:#d32f2f;}.c{fill:#c62828;}.d,.f{fill:none;}.e{fill:#6d4c41;}.f{stroke-miterlimit:10;stroke-width:3px;}.g{fill:#b71c1c;}.h{fill:#212121;opacity:0.6;isolation:isolate;}</style></defs><title>Z</title><path class="a" d="M84.2,33.9A42.75,42.75,0,0,0,58,25H40A15,15,0,0,0,25,40v70a15,15,0,0,0,15,15h70a15,15,0,0,0,15-15h0V40a15,15,0,0,0-15-15H92a43.39,43.39,0,0,0-17,3.5"/><path class="b" d="M110,25h-4V92a6,6,0,0,1-6,6H50a6,6,0,0,1-6-6V25H40A15,15,0,0,0,25,40v70a15,15,0,0,0,15,15h70a15,15,0,0,0,15-15h0V40A15,15,0,0,0,110,25Z"/><path class="c" d="M114,25.6V101a9,9,0,0,1-9,9H45a9,9,0,0,1-9-9V25.6A15,15,0,0,0,25,40v70a15,15,0,0,0,15,15h70a15,15,0,0,0,15-15h0V40A15,15,0,0,0,114,25.6Z"/><path class="d" d="M84.2,33.9A42.75,42.75,0,0,0,58,25H40A15,15,0,0,0,25,40v70a15,15,0,0,0,15,15h70a15,15,0,0,0,15-15h0V40a15,15,0,0,0-15-15H92a43.39,43.39,0,0,0-17,3.5"/><path class="e" d="M82.8,32.2A45.36,45.36,0,0,0,84.5,20,44.35,44.35,0,0,0,81.8,4.7l-15,5.5A29.75,29.75,0,0,1,68.5,20a32.32,32.32,0,0,1-.8,7"/><path class="f" d="M84.2,33.9A42.75,42.75,0,0,0,58,25"/><ellipse class="g" cx="60" cy="60" rx="5" ry="7.5"/><ellipse class="g" cx="60" cy="90" rx="5" ry="7.5"/><ellipse class="g" cx="75" cy="75" rx="5" ry="7.5"/><ellipse class="g" cx="45" cy="75" rx="5" ry="7.5"/><ellipse class="g" cx="75" cy="105" rx="5" ry="7.5"/><ellipse class="g" cx="90" cy="90" rx="5" ry="7.5"/><ellipse class="g" cx="75" cy="45" rx="5" ry="7.5"/><ellipse class="g" cx="90" cy="60" rx="5" ry="7.5"/><ellipse class="g" cx="105" cy="75" rx="5" ry="7.5"/><ellipse class="h" cx="60" cy="60" rx="5" ry="7.5"/><ellipse class="h" cx="60" cy="90" rx="5" ry="7.5"/><ellipse class="h" cx="75" cy="75" rx="5" ry="7.5"/><ellipse class="h" cx="45" cy="75" rx="5" ry="7.5"/><ellipse class="h" cx="75" cy="105" rx="5" ry="7.5"/><ellipse class="h" cx="90" cy="90" rx="5" ry="7.5"/><ellipse class="h" cx="75" cy="45" rx="5" ry="7.5"/><ellipse class="h" cx="90" cy="60" rx="5" ry="7.5"/><ellipse class="h" cx="105" cy="75" rx="5" ry="7.5"/><ellipse class="g" cx="105" cy="45" rx="5" ry="7.5"/><ellipse class="h" cx="105" cy="45" rx="5" ry="7.5"/><ellipse class="g" cx="105" cy="105" rx="5" ry="7.5"/><ellipse class="h" cx="105" cy="105" rx="5" ry="7.5"/><ellipse class="g" cx="45" cy="105" rx="5" ry="7.5"/><ellipse class="h" cx="45" cy="105" rx="5" ry="7.5"/><ellipse class="g" cx="45" cy="45" rx="5" ry="7.5"/><ellipse class="h" cx="45" cy="45" rx="5" ry="7.5"/></svg>