<?xml version="1.0" encoding="utf-8"?>
<!-- Generator: Adobe Illustrator 23.0.6, SVG Export Plug-In . SVG Version: 6.00 Build 0)  -->
<svg version="1.1" id="Layer_1" xmlns="http://www.w3.org/2000/svg" xmlns:xlink="http://www.w3.org/1999/xlink" x="0px" y="0px"
	 viewBox="0 0 154 104" style="enable-background:new 0 0 154 104;" xml:space="preserve">
<defs>
	<radialGradient id="fadeGrad" y2="1" x2="0">
		<stop offset="0.5" stop-color="white" stop-opacity="0.95"/>
		<stop offset="1" stop-color="white" stop-opacity=".4"/>
	</radialGradient>
	<mask id="fade" maskContentUnits="objectBoundingBox">
		<rect width="1" height="1" fill="url(#fadeGrad)"/>
	</mask>
</defs>
<style type="text/css">
	.st0{fill:#FFCC80;}
	.st1{fill:#6D4C41;}
	.st2{fill:#C62828;}
	.st3{fill:#7CB342;}
	.st4{fill:#FFB74D;}
	.st5{fill:#5D4037;}
	.st6{fill:#FFCA28;}
	.st7{fill:#689F38;}
	.st8{fill:#B71C1C;}
	.st9{fill:#FFC107;}
	.st10{fill:#02BBFF;}
	.st11{fill:#910B12;}
	.st12{fill:#265A4E;}
	.st13{fill:#FFFFFF;}
	.st14{fill:#558B2F;}
	.st15{fill:#F1FF3B;}
	.st16{fill:#FF470D;}
	.st17{fill:#710300;}
	.st18{fill:#C2FF10;}
	.st19{fill:#FFAC08;}
	.st20{fill:#B0E300;}
	.st21{fill:#BD7E00;}
	.st22{fill:#FFF492;}
	.st23{fill:#529A00;}
	.st24{fill:#0077A0;}
	.st25{fill:#00EEC5;}
	.st26{fill:#7CEBFF;}
	.st27{fill:#001938;}
	.st28{fill:#DD77A0;}
	.st29{fill:#E53935;}
	.st30{fill:#D32F2F;}
	.st31{opacity:0.6;fill:#212121;enable-background:new    ;}
	.st32{fill:#9354FF;}
	.st33{opacity:0.5;}
	.st34{fill:#800090;}
	.st35{opacity:0.7;fill:#800090;enable-background:new    ;}
	.st36{opacity:0.6;}
	.st37{fill:#FFFAD6;}
	.st38{fill:#776200;}
	.st39{fill:#600070;}
</style>
<symbol  id="Burger" viewBox="-5.04 -4.77 10.08 9.54">
	<g>
		<g>
			<path class="st0" d="M-4.05-2.7h8.1c0.249,0,0.45-0.201,0.45-0.45l0,0c0-0.746-0.604-1.35-1.35-1.35l0,0h-6.3
				c-0.746,0-1.35,0.604-1.35,1.35l0,0l0,0C-4.5-2.901-4.299-2.7-4.05-2.7z"/>
			<path d="M3.15-4.77h-6.3c-0.893,0-1.62,0.727-1.62,1.62c0,0.397,0.323,0.72,0.72,0.72h8.1c0.397,0,0.72-0.323,0.72-0.72
				C4.77-4.043,4.043-4.77,3.15-4.77z M-4.05-2.97c-0.099,0-0.18-0.081-0.18-0.18c0-0.596,0.484-1.08,1.08-1.08h6.3
				c0.596,0,1.08,0.484,1.08,1.08c0,0.099-0.081,0.18-0.18,0.18H-4.05z"/>
		</g>
		<g>
			<path class="st0" d="M-3.15,4.5h6.3c0.746,0,1.35-0.604,1.35-1.35V1.8c0-0.249-0.201-0.45-0.45-0.45h-8.1
				c-0.249,0-0.45,0.201-0.45,0.45v1.35C-4.5,3.896-3.896,4.5-3.15,4.5z"/>
			<path d="M4.05,1.08h-8.1c-0.397,0-0.72,0.323-0.72,0.72v1.35c0,0.893,0.727,1.62,1.62,1.62h6.3c0.893,0,1.62-0.727,1.62-1.62V1.8
				C4.77,1.403,4.447,1.08,4.05,1.08z M-3.15,4.23c-0.596,0-1.08-0.484-1.08-1.08V1.8c0-0.099,0.081-0.18,0.18-0.18h8.1
				c0.099,0,0.18,0.081,0.18,0.18v1.35c0,0.596-0.484,1.08-1.08,1.08H-3.15z"/>
		</g>
		<g>
			<path class="st1" d="M-3.78-1.26h7.56c0.398,0,0.72-0.322,0.72-0.72l0,0c0-0.398-0.322-0.72-0.72-0.72h-7.56
				c-0.398,0-0.72,0.322-0.72,0.72l0,0C-4.5-1.582-4.178-1.26-3.78-1.26z"/>
			<path d="M3.78-2.97h-7.56c-0.546,0-0.99,0.444-0.99,0.99s0.444,0.99,0.99,0.99h7.56c0.546,0,0.99-0.444,0.99-0.99
				S4.326-2.97,3.78-2.97z M-3.78-1.53c-0.248,0-0.45-0.202-0.45-0.45s0.202-0.45,0.45-0.45h7.56c0.248,0,0.45,0.202,0.45,0.45
				S4.028-1.53,3.78-1.53H-3.78z"/>
		</g>
		<g>
			<rect x="-3.87" y="0.45" class="st2" width="5.49" height="0.9"/>
			<path d="M1.62,0.18h-5.49c-0.149,0-0.27,0.121-0.27,0.27v0.9c0,0.149,0.121,0.27,0.27,0.27h5.49c0.149,0,0.27-0.121,0.27-0.27
				v-0.9C1.89,0.301,1.769,0.18,1.62,0.18z M-3.6,0.72h4.95v0.36H-3.6V0.72z"/>
		</g>
		<g>
			<rect x="-1.62" y="0.45" class="st2" width="5.49" height="0.9"/>
			<path d="M3.87,0.18h-5.49c-0.149,0-0.27,0.121-0.27,0.27v0.9c0,0.149,0.121,0.27,0.27,0.27h5.49c0.149,0,0.27-0.121,0.27-0.27
				v-0.9C4.14,0.301,4.019,0.18,3.87,0.18z M-1.35,0.72H3.6v0.36h-4.95V0.72z"/>
		</g>
		<g>
			<path class="st3" d="M-4.275,0.45h8.55c0.273,0,0.495-0.222,0.495-0.495l0,0c0-0.273-0.222-0.495-0.495-0.495h-8.55
				c-0.273,0-0.495,0.222-0.495,0.495l0,0C-4.77,0.228-4.548,0.45-4.275,0.45z"/>
			<path d="M4.275-0.81h-8.55c-0.422,0-0.765,0.343-0.765,0.765S-4.697,0.72-4.275,0.72h8.55c0.422,0,0.765-0.343,0.765-0.765
				S4.697-0.81,4.275-0.81z M-4.275,0.18C-4.399,0.18-4.5,0.079-4.5-0.045S-4.399-0.27-4.275-0.27h8.55
				C4.399-0.27,4.5-0.169,4.5-0.045S4.399,0.18,4.275,0.18H-4.275z"/>
		</g>
		<path class="st4" d="M3.15,4.5H1.8c0.746,0,1.35-0.604,1.35-1.35V1.8c0-0.249-0.201-0.45-0.45-0.45h1.35
			c0.249,0,0.45,0.201,0.45,0.45v1.35C4.5,3.896,3.896,4.5,3.15,4.5z"/>
		<path d="M4.05,1.08h-8.1c-0.397,0-0.72,0.323-0.72,0.72v1.35c0,0.893,0.727,1.62,1.62,1.62h6.3c0.893,0,1.62-0.727,1.62-1.62V1.8
			C4.77,1.403,4.447,1.08,4.05,1.08z M-3.15,4.23c-0.596,0-1.08-0.484-1.08-1.08V1.8c0-0.099,0.081-0.18,0.18-0.18h8.1
			c0.099,0,0.18,0.081,0.18,0.18v1.35c0,0.596-0.484,1.08-1.08,1.08H-3.15z"/>
		<path class="st4" d="M4.05-2.7H3.213C3.083-3.328,2.531-3.778,1.89-3.78h-6.232C-4.109-4.222-3.65-4.499-3.15-4.5h6.3
			c0.746,0,1.35,0.604,1.35,1.35l0,0l0,0C4.5-2.901,4.299-2.7,4.05-2.7z"/>
		<path d="M3.15-4.77h-6.3c-0.893,0-1.62,0.727-1.62,1.62c0,0.397,0.323,0.72,0.72,0.72h8.1c0.397,0,0.72-0.323,0.72-0.72
			C4.77-4.043,4.043-4.77,3.15-4.77z M-4.05-2.97c-0.099,0-0.18-0.081-0.18-0.18c0-0.596,0.484-1.08,1.08-1.08h6.3
			c0.596,0,1.08,0.484,1.08,1.08c0,0.099-0.081,0.18-0.18,0.18H-4.05z"/>
		<path class="st5" d="M3.78-1.26H2.43c0.398,0,0.72-0.322,0.72-0.72l0,0c0-0.398-0.322-0.72-0.72-0.72h1.35
			c0.398,0,0.72,0.322,0.72,0.72l0,0C4.5-1.582,4.178-1.26,3.78-1.26z"/>
		<path d="M3.78-2.97h-7.56c-0.546,0-0.99,0.444-0.99,0.99s0.444,0.99,0.99,0.99h7.56c0.546,0,0.99-0.444,0.99-0.99
			S4.326-2.97,3.78-2.97z M-3.78-1.53c-0.248,0-0.45-0.202-0.45-0.45s0.202-0.45,0.45-0.45h7.56c0.248,0,0.45,0.202,0.45,0.45
			S4.028-1.53,3.78-1.53H-3.78z"/>
		<g>
			<path class="st6" d="M4.14-0.54h-8.28c-0.199,0-0.36-0.161-0.36-0.36s0.161-0.36,0.36-0.36h0.09c0.72,0,1.35-0.72,1.35-0.72
				s0.63,0.72,1.35,0.72h2.7c0.72,0,1.35-0.72,1.35-0.72s0.63,0.72,1.35,0.72h0.09c0.199,0,0.36,0.161,0.36,0.36
				S4.339-0.54,4.14-0.54z"/>
			<path d="M2.7-2.25c-0.078,0-0.152,0.034-0.203,0.092C2.492-2.152,1.937-1.53,1.35-1.53h-2.7c-0.581,0-1.141-0.621-1.147-0.628
				C-2.548-2.216-2.622-2.25-2.7-2.25c-0.078,0-0.152,0.034-0.203,0.092C-2.908-2.152-3.463-1.53-4.05-1.53h-0.09
				c-0.347,0-0.63,0.283-0.63,0.63s0.283,0.63,0.63,0.63h8.28c0.347,0,0.63-0.283,0.63-0.63S4.487-1.53,4.14-1.53H4.05
				c-0.581,0-1.141-0.621-1.147-0.628C2.852-2.216,2.778-2.25,2.7-2.25z M-1.35-0.99h2.7c0.574,0,1.081-0.37,1.35-0.611
				C2.969-1.36,3.476-0.99,4.05-0.99h0.09c0.05,0,0.09,0.04,0.09,0.09S4.19-0.81,4.14-0.81h-8.28c-0.05,0-0.09-0.04-0.09-0.09
				s0.04-0.09,0.09-0.09h0.09c0.574,0,1.081-0.37,1.35-0.611C-2.431-1.36-1.924-0.99-1.35-0.99z"/>
		</g>
		<path class="st7" d="M4.275,0.45h-1.35c0.273,0,0.495-0.222,0.495-0.495S3.198-0.54,2.925-0.54h1.35
			c0.273,0,0.495,0.222,0.495,0.495S4.548,0.45,4.275,0.45z"/>
		<path d="M4.275-0.81h-8.55c-0.422,0-0.765,0.343-0.765,0.765S-4.697,0.72-4.275,0.72h8.55c0.422,0,0.765-0.343,0.765-0.765
			S4.697-0.81,4.275-0.81z M-4.275,0.18C-4.399,0.18-4.5,0.079-4.5-0.045S-4.399-0.27-4.275-0.27h8.55
			C4.399-0.27,4.5-0.169,4.5-0.045S4.399,0.18,4.275,0.18H-4.275z"/>
		<rect x="2.79" y="0.45" class="st8" width="1.08" height="0.9"/>
		<path d="M3.87,0.18h-5.49c-0.149,0-0.27,0.121-0.27,0.27v0.9c0,0.149,0.121,0.27,0.27,0.27h5.49c0.149,0,0.27-0.121,0.27-0.27
			v-0.9C4.14,0.301,4.019,0.18,3.87,0.18z M-1.35,0.72H3.6v0.36h-4.95V0.72z"/>
		<path class="st9" d="M2.7-1.98c0,0,0.63,0.72,1.35,0.72h0.09c0.199,0,0.36,0.161,0.36,0.36S4.339-0.54,4.14-0.54H2.79
			C2.986-0.546,3.144-0.704,3.15-0.9C3.15-1.17,2.7-1.44,2.7-1.98z"/>
		<path d="M2.7-2.25c-0.078,0-0.152,0.034-0.203,0.092C2.492-2.152,1.937-1.53,1.35-1.53h-2.7c-0.581,0-1.141-0.621-1.147-0.628
			C-2.548-2.216-2.622-2.25-2.7-2.25c-0.078,0-0.152,0.034-0.203,0.092C-2.908-2.152-3.463-1.53-4.05-1.53h-0.09
			c-0.347,0-0.63,0.283-0.63,0.63s0.283,0.63,0.63,0.63h8.28c0.347,0,0.63-0.283,0.63-0.63S4.487-1.53,4.14-1.53H4.05
			c-0.581,0-1.141-0.621-1.147-0.628C2.852-2.216,2.778-2.25,2.7-2.25z M-1.35-0.99h2.7c0.574,0,1.081-0.37,1.35-0.611
			C2.969-1.36,3.476-0.99,4.05-0.99h0.09c0.05,0,0.09,0.04,0.09,0.09S4.19-0.81,4.14-0.81h-8.28c-0.05,0-0.09-0.04-0.09-0.09
			s0.04-0.09,0.09-0.09h0.09c0.574,0,1.081-0.37,1.35-0.611C-2.431-1.36-1.924-0.99-1.35-0.99z"/>
	</g>
</symbol>
<symbol  id="Central_Perk" viewBox="-5.353 -4.77 10.705 9.54">
	<g>
		<g>
			<path d="M1.244,1.575c-0.02,0-0.039,0.001-0.059,0.004C1.178,1.58,1.169,1.58,1.161,1.58C1.089,1.583,0.976,1.588,0.867,1.648
				c-0.102,0.051-0.186,0.14-0.23,0.246c-0.034,0.082-0.042,0.17-0.025,0.254c0.025,0.174,0.057,0.491,0.065,0.649
				c0.007,0.201,0.15,0.369,0.36,0.422c0.011,0.003,0.021,0.005,0.032,0.007c0.112,0.019,0.226,0.001,0.334-0.02
				C1.428,3.2,1.452,3.193,1.476,3.184C1.77,3.066,1.802,2.825,1.802,2.727c0-0.015-0.001-0.03-0.002-0.045
				c-0.006-0.055-0.01-0.149-0.014-0.24C1.778,2.29,1.771,2.132,1.751,2.018C1.749,2.008,1.747,1.999,1.745,1.99
				C1.682,1.738,1.486,1.575,1.244,1.575z M1.373,1.89C1.373,1.89,1.373,1.889,1.373,1.89C1.373,1.889,1.373,1.89,1.373,1.89z
				 M1.373,1.89L1.373,1.89L1.373,1.89z M1.487,2.779L1.487,2.779L1.487,2.779z M1.487,2.78L1.487,2.78L1.487,2.78z M1.487,2.781
				L1.487,2.781L1.487,2.781z"/>
			<path d="M2.243,0.837c-0.054,0-0.233,0.01-0.373,0.127C1.685,1.111,1.659,1.367,1.746,1.54C1.814,1.676,2.008,2.099,2.01,2.104
				c0.082,0.178,0.279,0.272,0.469,0.223S2.796,2.1,2.782,1.905C2.778,1.853,2.744,1.396,2.715,1.22
				c-0.007-0.04-0.02-0.078-0.038-0.115C2.595,0.942,2.425,0.837,2.243,0.837z"/>
			<path d="M3.257-0.822c-0.078,0-0.159,0.019-0.242,0.056c-0.037,0.017-0.078,0.037-0.13,0.063
				c-0.42,0.212-1.538,0.775-2.883,0.775c-1.326,0-2.443-0.556-2.864-0.766c-0.062-0.031-0.112-0.055-0.146-0.071
				c-0.154-0.068-0.297-0.075-0.428-0.02c-0.087,0.037-0.204,0.116-0.27,0.288l-0.737,1.87c-0.01,0.026-0.018,0.045-0.026,0.064
				c-0.068,0.165-0.195,0.473,0.153,0.82c0.779,0.779,2.512,1.568,4.318,1.568S3.541,3.036,4.32,2.257
				C4.667,1.91,4.54,1.602,4.472,1.436c-0.008-0.019-0.016-0.038-0.024-0.06L3.709-0.5C3.646-0.668,3.528-0.749,3.441-0.785
				C3.382-0.809,3.32-0.822,3.257-0.822z M1.073,2.184c0.061-0.003,0.122-0.017,0.182-0.042c0.007,0.005,0.013,0.009,0.02,0.014
				c0.023,0.114,0.05,0.31,0.05,0.391c0,0.034-0.002,0.058-0.007,0.078C1.281,2.64,1.222,2.656,1.193,2.664L1.174,2.669
				C1.166,2.671,1.159,2.673,1.152,2.676c-0.01,0.003-0.026,0.006-0.048,0.009C1.096,2.532,1.085,2.361,1.073,2.184z"/>
			<path d="M-3.823-1.539c-0.077,0-0.156,0.022-0.224,0.068l-0.109,0.072c-0.09,0.06-0.152,0.153-0.172,0.257l-0.648,0.045
				C-5.112-1.088-5.235-1.01-5.301-0.891C-5.368-0.772-5.37-0.627-5.307-0.506c0.151,0.289,0.305,0.538,0.472,0.761
				c0.206,0.293,0.427,0.516,0.616,0.695c0.097,0.092,0.233,0.13,0.364,0.102c0.131-0.028,0.239-0.119,0.29-0.243
				c0.159-0.389,0.318-0.768,0.477-1.148l0.004-0.009c0.072-0.155,0.097-0.377-0.044-0.553l-0.375-0.482
				C-3.583-1.485-3.702-1.539-3.823-1.539z M-3.765-0.399C-3.767-0.402-3.768-0.404-3.77-0.406L-3.765-0.399z M-4.262-0.334
				l0.26-0.018c0.015-0.001,0.03-0.003,0.044-0.005c-0.039,0.093-0.078,0.185-0.116,0.278c-0.035-0.043-0.068-0.088-0.101-0.135
				C-4.178-0.218-4.18-0.221-4.183-0.225C-4.21-0.26-4.236-0.297-4.262-0.334z"/>
			<path d="M3.827-1.53c-0.121,0-0.24,0.054-0.32,0.156L3.129-0.888C2.992-0.716,3.016-0.495,3.087-0.34
				C3.248,0.053,3.409,0.438,3.57,0.823c0.051,0.123,0.16,0.212,0.29,0.24s0.266-0.011,0.362-0.102
				C4.429,0.765,4.64,0.527,4.833,0.273c0.002-0.002,0.004-0.005,0.005-0.007c0.191-0.264,0.353-0.532,0.469-0.774
				c0.058-0.121,0.052-0.263-0.016-0.379s-0.188-0.191-0.322-0.2L4.331-1.131C4.31-1.235,4.249-1.329,4.158-1.389L4.05-1.461
				C3.983-1.508,3.905-1.53,3.827-1.53z M3.765-0.386l0.006-0.007C3.769-0.391,3.767-0.389,3.765-0.386z M4.074-0.073
				C4.036-0.164,3.999-0.255,3.961-0.346c0.015,0.002,0.03,0.003,0.046,0.003l0.257,0.018c-0.025,0.037-0.051,0.074-0.078,0.11
				C4.148-0.164,4.111-0.117,4.074-0.073z"/>
			<path d="M-2.077-2.484c-0.074,0-0.148,0.02-0.213,0.06C-2.409-2.35-2.482-2.219-2.482-2.079v0.531
				c0,0.145,0.078,0.28,0.204,0.352c0.126,0.072,0.282,0.071,0.407-0.003c0.066-0.039,0.397-0.253,0.397-0.628
				c0-0.297-0.218-0.512-0.422-0.614C-1.953-2.47-2.015-2.484-2.077-2.484z M-2.256-1.721c-0.012-0.02-0.028-0.057-0.028-0.106
				c0-0.023,0.004-0.042,0.008-0.057l0.055,0.093L-2.256-1.721z"/>
			<path d="M0.686-2.538c-0.081,0-0.161,0.024-0.23,0.071c-0.11,0.076-0.175,0.2-0.175,0.334v0.729c0,0.114,0.048,0.222,0.132,0.299
				s0.196,0.115,0.31,0.104c0.385-0.035,0.768-0.306,0.755-0.757c0-0.001,0-0.002,0-0.003C1.46-2.247,0.935-2.471,0.83-2.511
				C0.784-2.529,0.735-2.538,0.686-2.538z"/>
			<path d="M2.621-3.825h-5.202c-0.943,0-1.71,0.767-1.71,1.71s0.767,1.71,1.71,1.71h5.202c0.943,0,1.71-0.767,1.71-1.71
				S3.564-3.825,2.621-3.825z M-3.174-2.786c0.007-0.006,0.014-0.012,0.02-0.018C-3.158-2.796-3.161-2.79-3.165-2.783
				C-3.168-2.784-3.171-2.785-3.174-2.786z M3.386-2.007c-0.062,0-0.108-0.046-0.108-0.108s0.046-0.108,0.108-0.108
				s0.108,0.046,0.108,0.108S3.448-2.007,3.386-2.007z M-3.48-2.163c0.017-0.036,0.053-0.06,0.098-0.06
				c0.062,0,0.108,0.046,0.108,0.108S-3.32-2.007-3.382-2.007c-0.038,0-0.079-0.025-0.098-0.063C-3.481-2.085-3.481-2.1-3.481-2.115
				C-3.481-2.131-3.481-2.147-3.48-2.163z M-2.296-1.577C-2.299-1.671-2.3-1.786-2.302-1.9c-0.001-0.082-0.002-0.161-0.004-0.234
				c0.042,0.046,0.084,0.082,0.116,0.108c0.074,0.068,0.109,0.115,0.113,0.197c-0.001,0.075-0.017,0.107-0.078,0.165
				C-2.193-1.627-2.239-1.599-2.296-1.577z M0.495-1.509c-0.002-0.118,0.002-0.288,0.006-0.44c0.001-0.058,0.003-0.113,0.004-0.164
				c0.024,0.01,0.049,0.019,0.075,0.025c0.012,0.003,0.025,0.005,0.037,0.007c0.037,0.063,0.087,0.115,0.14,0.153
				c0.003,0.001,0.007,0.004,0.01,0.006c0.007,0.005,0.026,0.02,0.034,0.027l0.025,0.024c0.028,0.027,0.097,0.096,0.125,0.132
				c0.004,0.016,0.009,0.04,0.01,0.057C0.956-1.67,0.948-1.657,0.923-1.636C0.886-1.611,0.736-1.553,0.631-1.529
				C0.597-1.521,0.549-1.514,0.495-1.509z M-0.409-1.998c0.036,0,0.069-0.003,0.101-0.008c0,0.012-0.001,0.025-0.001,0.037
				C-0.31-1.917-0.312-1.862-0.313-1.808c-0.03-0.006-0.061-0.009-0.094-0.01c0-0.021-0.001-0.043-0.001-0.065
				C-0.408-1.921-0.409-1.96-0.409-1.998z M-0.735-1.827C-0.736-1.827-0.736-1.827-0.735-1.827
				C-0.736-1.827-0.736-1.827-0.735-1.827z M0.949-1.745C0.948-1.748,0.947-1.75,0.946-1.753C0.947-1.75,0.948-1.748,0.949-1.745
				L0.949-1.745z M0.968-1.709L0.968-1.709L0.968-1.709z"/>
		</g>
		<g>
			<path class="st10" d="M-3.13,4.5h6.3c0.747,0,1.35-0.603,1.35-1.35v-6.3c0-0.747-0.603-1.35-1.35-1.35h-6.3
				c-0.747,0-1.35,0.603-1.35,1.35v6.3C-4.48,3.897-3.877,4.5-3.13,4.5z"/>
			<path d="M3.17-4.77h-6.3c-0.893,0-1.62,0.727-1.62,1.62v6.3c0,0.893,0.727,1.62,1.62,1.62h6.3c0.893,0,1.62-0.727,1.62-1.62v-6.3
				C4.79-4.043,4.063-4.77,3.17-4.77z M-3.13,4.23c-0.596,0-1.08-0.484-1.08-1.08v-6.3c0-0.596,0.484-1.08,1.08-1.08h6.3
				c0.596,0,1.08,0.484,1.08,1.08v6.3c0,0.596-0.484,1.08-1.08,1.08C3.17,4.23-3.13,4.23-3.13,4.23z"/>
		</g>
		<path d="M5.312-0.504C5.177-0.234,5.015,0.027,4.835,0.27c-0.171,0.225-0.36,0.441-0.567,0.639l0.189,0.468
			C4.466,1.395,4.475,1.422,4.484,1.44c0.063,0.162,0.189,0.468-0.153,0.81C3.548,3.033,1.82,3.816,0.011,3.816
			s-3.546-0.792-4.32-1.566c-0.342-0.342-0.216-0.648-0.153-0.81c0.009-0.018,0.018-0.036,0.027-0.072l0.18-0.468
			c-0.207-0.198-0.396-0.414-0.567-0.639c-0.18-0.243-0.342-0.504-0.477-0.774C-5.362-0.63-5.353-0.774-5.29-0.891
			c0.072-0.117,0.189-0.189,0.324-0.198l0.639-0.045c0.018-0.108,0.09-0.207,0.18-0.27l0.018-0.009
			c-0.099-0.216-0.153-0.45-0.153-0.702c0-0.945,0.765-1.71,1.71-1.71H2.63c0.945,0,1.71,0.765,1.71,1.71
			c0,0.261-0.063,0.504-0.162,0.72c0.09,0.063,0.153,0.153,0.171,0.261l0.639,0.045C5.123-1.08,5.249-1.008,5.312-0.891
			C5.366-0.774,5.366-0.63,5.312-0.504z M-4.03,1.962c0.666,0.666,2.259,1.449,4.032,1.449l0,0l0,0l0,0
			c1.773,0,3.375-0.792,4.032-1.449c0.18-0.18,0.108-0.261,0.036-0.45L3.332-0.36C3.305-0.432,3.26-0.441,3.179-0.405
			C2.9-0.279,1.604,0.468,0.002,0.468s-2.907-0.747-3.177-0.873C-3.256-0.441-3.301-0.432-3.328-0.36l-0.738,1.872
			C-4.138,1.71-4.21,1.791-4.03,1.962z M2.261-0.405h-4.509C-1.69-0.18-0.889,0.081,0.011,0.081C0.902,0.072,1.703-0.18,2.261-0.405
			z M-3.994-0.342l-0.261,0.018c0.027,0.036,0.054,0.072,0.081,0.108c0.036,0.045,0.072,0.099,0.117,0.144l0.117-0.279
			C-3.967-0.342-3.976-0.342-3.994-0.342z M3.926-2.115c0-0.711-0.585-1.305-1.305-1.305h-5.202c-0.72,0-1.305,0.585-1.305,1.305
			l0,0c0,0.711,0.585,1.305,1.305,1.305h5.202C3.341-0.81,3.926-1.395,3.926-2.115L3.926-2.115z M3.998-0.342
			c-0.018,0-0.027,0-0.045-0.009L4.07-0.072c0.036-0.045,0.081-0.099,0.117-0.144c0.027-0.036,0.054-0.072,0.081-0.108L3.998-0.342z
			"/>
		<g>
			<g>
				<path class="st11" d="M4.043,1.962C3.377,2.628,1.784,3.411,0.011,3.411l0,0l0,0l0,0c-1.773,0-3.375-0.792-4.032-1.449
					c-0.18-0.18-0.108-0.261-0.036-0.45l0.738-1.872c0.027-0.072,0.072-0.081,0.153-0.045c0.279,0.126,1.575,0.873,3.177,0.873
					s2.907-0.747,3.177-0.873C3.269-0.441,3.314-0.432,3.341-0.36l0.738,1.872C4.142,1.71,4.214,1.791,4.043,1.962z"/>
				<path class="st11" d="M-3.931,0.657c-0.171-0.162-0.378-0.369-0.567-0.639c-0.189-0.252-0.333-0.504-0.441-0.711l0.918-0.063
					c0.117-0.009,0.108-0.126,0.108-0.126l-0.018-0.18l0.108-0.072l0.378,0.486c0.036,0.045-0.009,0.135-0.009,0.135
					C-3.607-0.117-3.769,0.27-3.931,0.657z"/>
				<path class="st11" d="M4.511,0.027C4.313,0.288,4.115,0.504,3.944,0.666C3.782,0.279,3.62-0.108,3.458-0.504
					c0,0-0.045-0.09-0.009-0.135l0.378-0.486l0.108,0.072l-0.018,0.18c0,0-0.009,0.126,0.108,0.126l0.918,0.063
					C4.844-0.477,4.7-0.234,4.511,0.027z"/>
			</g>
			<g>
				<path class="st12" d="M2.621-0.81h-5.202c-0.711,0-1.305-0.585-1.305-1.305l0,0c0-0.711,0.585-1.305,1.305-1.305h5.202
					c0.72,0,1.305,0.585,1.305,1.305l0,0C3.926-1.395,3.341-0.81,2.621-0.81z"/>
			</g>
		</g>
		<g>
			<path class="st13" d="M-0.736,3.123c-0.045,0-0.144-0.009-0.189-0.018c-0.09-0.018-0.081-0.072-0.081-0.108
				c0.027-0.333,0.081-1.062,0.081-1.062s-0.261,0.72-0.387,1.017C-1.33,2.997-1.375,3.051-1.474,3.024
				c-0.054-0.018-0.171-0.036-0.225-0.063s-0.108-0.045-0.09-0.162c0.081-0.504,0.261-1.458,0.369-2.115
				c0.009-0.054,0.036-0.126,0.216-0.099c0.162,0.027,0.117,0.162,0.108,0.225C-1.15,1.17-1.24,1.836-1.24,1.836
				s0.198-0.567,0.342-1.062c0.009-0.036,0.036-0.099,0.117-0.099c0.054,0,0.153-0.009,0.198,0.018
				c0.054,0.027,0.081,0.108,0.081,0.153c-0.027,0.549-0.09,1.62-0.126,2.196C-0.628,3.069-0.628,3.132-0.736,3.123z"/>
			<path class="st13" d="M-1.582,0.693c-0.045-0.009-0.108-0.018-0.18-0.036c-0.045-0.009-0.099-0.054-0.153,0.108
				C-1.969,0.954-2.041,1.197-2.077,1.35c-0.027,0.099,0.018,0.117,0.063,0.135C-1.96,1.512-1.861,1.539-1.78,1.584
				C-1.753,1.602-1.717,1.62-1.744,1.71c-0.027,0.081-0.054,0.072-0.108,0.063C-1.897,1.764-1.996,1.737-2.05,1.719
				C-2.095,1.701-2.185,1.674-2.221,1.8C-2.275,1.98-2.32,2.223-2.374,2.403C-2.383,2.43-2.392,2.484-2.32,2.502
				c0.117,0.027,0.189,0.036,0.306,0.09c0.045,0.018,0.135,0.054,0.081,0.153c-0.018,0.036-0.009,0.099-0.153,0.063
				c-0.153-0.045-0.468-0.162-0.621-0.225c-0.045-0.018-0.072-0.054-0.054-0.135C-2.599,1.89-2.32,0.972-2.158,0.405
				c0.009-0.036,0.036-0.072,0.135-0.045c0.171,0.036,0.342,0.09,0.513,0.144c0.036,0.009,0.108,0.036,0.072,0.144
				C-1.474,0.72-1.537,0.702-1.582,0.693z"/>
			<path class="st13" d="M0.569,2.961c0,0.018,0.009,0.054,0.009,0.081c0,0.036-0.009,0.09-0.108,0.099
				C0.236,3.15-0.25,3.15-0.475,3.132c-0.027,0-0.081-0.018-0.081-0.063c0-0.027,0-0.072,0.009-0.099
				c0.009-0.054,0.009-0.063,0.081-0.063c0.063,0,0.126,0.009,0.18,0.009c0.072-0.009,0.099-0.054,0.099-0.09
				c0.009-0.504,0.027-1.503,0.036-1.998c0-0.036,0.009-0.117,0.063-0.126c0.045-0.009,0.144-0.018,0.198-0.009S0.2,0.765,0.2,0.801
				C0.191,1.305,0.209,2.349,0.218,2.835c0,0.054,0.027,0.099,0.09,0.09s0.108-0.009,0.171-0.018
				C0.488,2.907,0.56,2.916,0.569,2.961z"/>
			<path class="st13" d="M-2.617,0.918c-0.09-0.036-0.108-0.063-0.09-0.171c0.018-0.081,0.063-0.162,0.09-0.252
				c0.009-0.027,0-0.108-0.027-0.126c-0.018-0.009-0.081,0.009-0.09,0.027C-3.013,1.044-3.202,1.44-3.4,1.854
				c-0.036,0.072-0.009,0.135,0.054,0.18c0.054,0.036,0.099,0.054,0.144-0.009c0.036-0.054,0.09-0.225,0.135-0.279
				c0.072-0.09,0.135-0.09,0.207-0.045c0.18,0.09,0.126,0.144,0.117,0.207c-0.018,0.09-0.09,0.27-0.135,0.342
				c-0.09,0.135-0.378,0.099-0.567-0.009c-0.153-0.09-0.189-0.099-0.279-0.243C-3.76,1.935-3.76,1.782-3.733,1.719
				c0.18-0.405,0.54-1.206,0.702-1.449c0.054-0.081,0.117-0.189,0.261-0.207c0.117-0.018,0.225,0.018,0.306,0.072
				C-2.41,0.171-2.239,0.288-2.23,0.387c0,0.144-0.081,0.369-0.135,0.477C-2.437,0.954-2.473,0.981-2.617,0.918z"/>
			<path class="st13" d="M2.675,2.583C2.621,2.619,2.486,2.664,2.423,2.655c-0.036,0-0.108-0.036-0.126-0.072
				C2.036,2.07,1.676,1.161,1.487,0.648C1.478,0.621,1.496,0.549,1.514,0.522c0.027-0.027,0.153-0.045,0.189-0.045
				c0.045,0,0.063,0.036,0.081,0.063c0.045,0.117,0.117,0.333,0.171,0.432c0.009,0.027,0.036,0.063,0.099,0.045
				C2.099,1.008,2.171,0.99,2.207,0.954c0.018-0.018,0.036-0.063,0.027-0.081C2.216,0.765,2.18,0.531,2.162,0.414
				C2.153,0.324,2.189,0.297,2.225,0.27c0.027-0.027,0.117-0.045,0.144-0.045C2.423,0.234,2.45,0.288,2.45,0.315
				c0.081,0.54,0.234,1.611,0.288,2.088C2.747,2.475,2.747,2.547,2.675,2.583z M2.315,1.287c0-0.018-0.027-0.054-0.072-0.045
				c-0.036,0-0.099,0.009-0.117,0.036C2.099,1.305,2.099,1.341,2.108,1.359c0.072,0.144,0.27,0.576,0.27,0.576
				S2.333,1.449,2.315,1.287z"/>
			<path class="st13" d="M3.584,1.962C3.602,1.998,3.611,2.07,3.548,2.124C3.503,2.16,3.413,2.232,3.359,2.25
				C3.323,2.259,3.278,2.259,3.251,2.196C3.071,1.737,2.693,0.72,2.513,0.297C2.495,0.261,2.504,0.189,2.567,0.162
				c0.144-0.072,0.369-0.171,0.54-0.243c0.018-0.009,0.054,0,0.072,0.027c0.018,0.018,0.027,0.072,0.045,0.099
				C3.251,0.09,3.206,0.126,3.17,0.144C3.107,0.171,2.999,0.198,2.927,0.243C2.891,0.261,2.864,0.324,2.9,0.414
				C3.071,0.756,3.206,1.044,3.584,1.962z"/>
			<path class="st13" d="M1.541,1.656C1.532,1.674,1.505,1.701,1.487,1.71C1.442,1.737,1.442,1.827,1.532,1.836
				C1.595,1.845,1.631,1.89,1.667,2.061C1.694,2.178,1.73,2.43,1.73,2.556c0,0.09,0,0.207-0.081,0.324
				C1.568,2.997,1.379,3.042,1.28,3.069C1.172,3.105,0.947,3.114,0.839,3.114c-0.09,0-0.117-0.036-0.126-0.099
				C0.695,2.484,0.596,1.332,0.551,0.819c0-0.036,0.036-0.099,0.072-0.108S0.74,0.684,0.776,0.693c0.063,0.009,0.09,0.09,0.09,0.135
				c0.027,0.252,0.072,0.666,0.099,0.9c0.009,0.036,0.054,0.09,0.144,0.054c0.045-0.018,0.126-0.054,0.108-0.144
				C1.19,1.431,1.118,0.963,1.082,0.702c0-0.027,0-0.063,0.063-0.081c0.036-0.009,0.126-0.027,0.162-0.027
				c0.054,0,0.081,0.072,0.09,0.099C1.442,0.9,1.514,1.323,1.568,1.539C1.577,1.566,1.559,1.629,1.541,1.656z M1.343,2.088
				C1.334,2.052,1.307,1.98,1.235,1.98c-0.045,0-0.144,0-0.189,0.027C1.028,2.016,0.992,2.052,1.001,2.07
				c0.018,0.18,0.063,0.531,0.072,0.711c0,0.018,0.018,0.036,0.054,0.045c0.054,0.009,0.144,0,0.189-0.018s0.081-0.036,0.072-0.081
				C1.37,2.574,1.37,2.25,1.343,2.088z"/>
		</g>
		<g>
			<path class="st13" d="M-3.382-2.412c-0.162,0-0.297,0.135-0.297,0.297s0.135,0.297,0.297,0.297s0.297-0.135,0.297-0.297
				C-3.085-2.277-3.211-2.412-3.382-2.412z"/>
			<path class="st13" d="M-0.322-2.52c-0.009-0.027-0.045-0.063-0.081-0.072c-0.09-0.018-0.288,0-0.378,0
				c-0.018,0-0.045-0.027-0.054-0.072c0-0.036-0.009-0.135,0-0.198c0-0.027,0.027-0.081,0.099-0.081s0.234,0,0.306,0
				c0.063,0,0.09-0.018,0.09-0.072c0-0.018,0.009-0.054,0-0.072c-0.009-0.027,0.009-0.081-0.072-0.081c-0.306-0.009-0.837,0-1.125,0
				c-0.018,0-0.054,0.036-0.054,0.054c0,0.045,0,0.072,0,0.099c0,0.036,0.018,0.063,0.054,0.063c0.009,0,0.054,0,0.072,0
				c0.054,0.018,0.054,0.054,0.054,0.081c0.009,0.045,0.009,0.135-0.009,0.18c-0.009,0.018,0,0.072-0.054,0.072
				S-1.6-2.583-1.591-2.484c0,0.108,0.045,0.099,0.081,0.099c0.045,0.009,0.099-0.027,0.09,0.108c0,0.189,0.009,0.585,0.009,0.765
				c0,0.108-0.054,0.099-0.09,0.108c-0.081,0.018-0.09,0.108-0.09,0.153c0,0.09,0.045,0.099,0.081,0.099
				c0.261-0.009,0.783,0,1.098,0.009c0.027,0,0.072-0.018,0.081-0.072c0.009-0.036,0-0.099,0-0.126
				c-0.009-0.072-0.063-0.072-0.09-0.072c-0.099,0-0.234,0-0.315-0.009c-0.027,0-0.072-0.009-0.072-0.063
				c0-0.189-0.009-0.594-0.009-0.783c0-0.126,0.054-0.126,0.099-0.126c0.09,0,0.225-0.009,0.306-0.009
				c0.072,0,0.09-0.018,0.09-0.063C-0.322-2.448-0.322-2.502-0.322-2.52z"/>
			<path class="st13" d="M2.864-3.267C2.747-3.24,2.693-3.195,2.666-3.141C2.54-2.907,2.27-2.421,2.27-2.421s0-0.459,0-0.666
				c0-0.027-0.027-0.081-0.072-0.09c-0.099-0.018-0.306-0.009-0.396,0c-0.063,0.009-0.081,0.063-0.081,0.09
				c0.009,0.063-0.009,0.135-0.009,0.18c0,0.018-0.027,0.054-0.045,0.054C1.514-2.844,1.478-2.718,1.559-2.619
				C1.748-2.412,1.712-2.25,1.712-2.124c0,0.225,0.009,0.63,0.009,0.882c0,0.081,0.054,0.09,0.09,0.09
				C1.91-1.134,2.072-1.125,2.162-1.161c0.036-0.018,0.09-0.063,0.09-0.117c0-0.216,0.018-0.63,0.018-0.63s0.369,0.468,0.477,0.63
				c0.153,0.216,0.405,0.09,0.405,0.09s-0.441-0.666-0.63-0.927C2.495-2.151,2.468-2.232,2.513-2.304
				c0.153-0.261,0.549-0.954,0.549-0.954S2.909-3.276,2.864-3.267z"/>
			<path class="st13" d="M3.386-2.412c-0.162,0-0.297,0.135-0.297,0.297s0.135,0.297,0.297,0.297s0.297-0.135,0.297-0.297
				C3.683-2.277,3.548-2.412,3.386-2.412z"/>
			<path class="st13" d="M-1.879-1.368c-0.234,0.225-0.558,0.261-0.963,0.252c-0.036,0-0.09-0.009-0.09-0.09s0.054-0.099,0.09-0.117
				c0.063-0.027,0.144-0.072,0.144-0.144c-0.009-0.216-0.009-0.648-0.018-0.855C-2.725-2.448-2.77-2.448-2.797-2.475
				c-0.045-0.036-0.036-0.108,0.009-0.144c0.018-0.018,0.072-0.045,0.081-0.09c0.009-0.099,0-0.189-0.009-0.288
				c0-0.081,0.045-0.144,0.108-0.135c0.108,0,0.36-0.009,0.477,0c0.099,0.009,0.099,0.063,0.099,0.099
				c0,0.144-0.027,0.414-0.018,0.54c0,0.054,0.072,0.108,0.126,0.162c0.108,0.09,0.252,0.234,0.252,0.495
				C-1.672-1.629-1.744-1.494-1.879-1.368z M-2.077-2.088v0.531c0,0,0.198-0.108,0.198-0.279C-1.879-1.989-2.077-2.088-2.077-2.088z
				"/>
			<path class="st13" d="M1.379-3.159C1.244-2.934,1.073-2.61,0.974-2.412C0.956-2.385,0.92-2.322,0.992-2.277
				c0.027,0.018,0.072,0.054,0.09,0.072c0.063,0.063,0.198,0.189,0.234,0.27C1.352-1.863,1.37-1.701,1.361-1.629
				c-0.018,0.081-0.054,0.18-0.18,0.288C1.082-1.26,0.848-1.188,0.722-1.152C0.569-1.116,0.236-1.098,0.083-1.125
				C-0.052-1.143-0.016-1.224,0.02-1.278c0.027-0.036,0.072-0.072,0.072-0.18C0.083-1.656,0.101-2.061,0.101-2.259
				c0-0.072,0-0.162-0.126-0.243c-0.036-0.027-0.063-0.135,0.081-0.153c0.018,0,0.036-0.054,0.036-0.072c0-0.126,0-0.243,0-0.342
				c0-0.036,0.054-0.099,0.081-0.099c0.117,0,0.306,0,0.423,0.009c0.054,0,0.072,0.063,0.072,0.09c0,0.198,0,0.567,0,0.567
				S0.911-3.015,1.046-3.15c0.036-0.036,0.099-0.117,0.189-0.126c0.036,0,0.099-0.009,0.144,0C1.433-3.249,1.415-3.213,1.379-3.159z
				 M0.686-1.404c0,0,0.387-0.036,0.387-0.342C1.064-1.989,0.686-2.133,0.686-2.133V-1.404z"/>
		</g>
	</g>
</symbol>
<symbol  id="Pear" viewBox="-4.77 -5.684 9.54 11.368">
	<g>
		<g>
			<path class="st3" d="M0.828,2.785C0.153,3.306-0.677,3.588-1.53,3.586h-1.62c-0.746,0-1.35-0.604-1.35-1.35v-6.3
				c0-0.746,0.604-1.35,1.35-1.35l0,0h6.3c0.746,0,1.35,0.604,1.35,1.35l0,0l0,0v6.3c0,0.746-0.604,1.35-1.35,1.35H1.53
				C1.004,3.585,0.484,3.478,0,3.271"/>
			<path d="M3.15-5.684h-6.3c-0.893,0-1.62,0.727-1.62,1.62v6.3c0,0.893,0.727,1.62,1.62,1.62h1.62c0.525,0,1.045-0.1,1.53-0.293
				c0.488,0.193,1.002,0.292,1.529,0.293H3.15c0.893,0,1.62-0.727,1.62-1.62v-6.3C4.77-4.957,4.043-5.684,3.15-5.684z M-1.522,3.316
				c-0.003,0-0.005,0-0.007,0H-3.15c-0.596,0-1.08-0.484-1.08-1.08v-6.3c0-0.596,0.484-1.08,1.08-1.08h6.3
				c0.596,0,1.08,0.484,1.08,1.08v6.3c0,0.596-0.484,1.08-1.08,1.08H1.53C1.243,3.315,0.96,3.282,0.684,3.215
				C0.79,3.148,0.893,3.076,0.993,2.999c0.118-0.091,0.14-0.261,0.049-0.379S0.781,2.48,0.663,2.571
				c-0.234,0.181-0.49,0.331-0.76,0.448C-0.103,3.021-0.11,3.024-0.116,3.027C-0.559,3.216-1.038,3.316-1.522,3.316z"/>
		</g>
		<path class="st7" d="M3.15,3.586H2.79v-6.03c0-0.298-0.242-0.54-0.54-0.54h-4.5c-0.298,0-0.54,0.242-0.54,0.54v6.03h-0.36
			c-0.746,0-1.35-0.604-1.35-1.35v-6.3c0-0.746,0.604-1.35,1.35-1.35l0,0h6.3c0.746,0,1.35,0.604,1.35,1.35l0,0l0,0v6.3
			C4.5,2.982,3.896,3.586,3.15,3.586z"/>
		<path class="st14" d="M3.51,3.532v-6.786c0-0.447-0.363-0.81-0.81-0.81h-5.4c-0.447,0-0.81,0.363-0.81,0.81v6.786
			C-4.093,3.371-4.498,2.841-4.5,2.236v-6.3c0-0.746,0.604-1.35,1.35-1.35l0,0h6.3c0.746,0,1.35,0.604,1.35,1.35l0,0l0,0v6.3
			C4.498,2.841,4.093,3.371,3.51,3.532z"/>
		<path d="M3.15-5.684h-6.3c-0.893,0-1.62,0.727-1.62,1.62v6.3c0,0.893,0.727,1.62,1.62,1.62h1.62c0.525,0,1.045-0.1,1.53-0.293
			c0.488,0.193,1.002,0.292,1.529,0.293H3.15c0.893,0,1.62-0.727,1.62-1.62v-6.3C4.77-4.957,4.043-5.684,3.15-5.684z M-1.522,3.316
			c-0.003,0-0.005,0-0.007,0H-3.15c-0.596,0-1.08-0.484-1.08-1.08v-6.3c0-0.596,0.484-1.08,1.08-1.08h6.3
			c0.596,0,1.08,0.484,1.08,1.08v6.3c0,0.596-0.484,1.08-1.08,1.08H1.53C1.243,3.315,0.96,3.282,0.684,3.215
			C0.79,3.148,0.893,3.076,0.993,2.999c0.118-0.091,0.14-0.261,0.049-0.379S0.781,2.48,0.663,2.571
			c-0.234,0.181-0.49,0.331-0.76,0.448C-0.103,3.021-0.11,3.024-0.116,3.027C-0.559,3.216-1.038,3.316-1.522,3.316z"/>
		<g>
			<path class="st1" d="M0.702,2.938c0.101,0.357,0.152,0.727,0.153,1.098c0,0.47-0.082,0.936-0.243,1.377l-1.35-0.495
				c0.1-0.283,0.152-0.581,0.153-0.882c-0.001-0.212-0.025-0.423-0.072-0.63"/>
			<path d="M0.962,2.865l-0.52,0.146C0.536,3.345,0.584,3.69,0.585,4.037c0,0.349-0.048,0.693-0.143,1.026l-0.848-0.311
				c0.06-0.233,0.09-0.473,0.091-0.715c-0.001-0.234-0.028-0.465-0.079-0.69l-0.527,0.119c0.042,0.187,0.064,0.38,0.065,0.572
				c-0.001,0.268-0.047,0.535-0.138,0.79c-0.049,0.139,0.023,0.293,0.162,0.344l1.35,0.495C0.585,5.692,0.66,5.689,0.725,5.658
				c0.065-0.03,0.115-0.085,0.14-0.152c0.173-0.472,0.26-0.967,0.259-1.47C1.124,3.64,1.069,3.246,0.962,2.865z"/>
		</g>
		<path d="M0.828,2.65c-0.029,0-0.058,0.009-0.082,0.028C0.1,3.177-0.705,3.451-1.522,3.451c-0.003,0-0.005-0.001-0.008,0
			c-0.074,0-0.135,0.06-0.135,0.135s0.06,0.135,0.135,0.135c0.003,0,0.005,0,0.008,0c0.876,0,1.739-0.294,2.433-0.829
			c0.059-0.046,0.07-0.13,0.024-0.189C0.908,2.668,0.868,2.65,0.828,2.65z"/>
	</g>
</symbol>
<symbol  id="Ramen" viewBox="-4.77 -4.77 9.54 9.54">
	<g>
		<g>
			<path class="st15" d="M-3.15,4.5h6.3c0.747,0,1.35-0.603,1.35-1.35v-6.3c0-0.747-0.603-1.35-1.35-1.35h-6.3
				c-0.747,0-1.35,0.603-1.35,1.35v6.3C-4.5,3.897-3.897,4.5-3.15,4.5z"/>
			<path class="st16" d="M3.15-4.77h-6.3c-0.893,0-1.62,0.727-1.62,1.62v6.3c0,0.893,0.727,1.62,1.62,1.62h6.3
				c0.893,0,1.62-0.727,1.62-1.62v-6.3C4.77-4.043,4.043-4.77,3.15-4.77z M-3.15,4.23c-0.596,0-1.08-0.484-1.08-1.08v-6.3
				c0-0.596,0.484-1.08,1.08-1.08h6.3c0.596,0,1.08,0.484,1.08,1.08v6.3c0,0.596-0.484,1.08-1.08,1.08
				C3.15,4.23-3.15,4.23-3.15,4.23z"/>
		</g>
		<path class="st13" d="M0-1.305c-1.219,0-1.862,0.281-2.43,0.528C-2.964-0.544-3.469-0.324-4.5-0.324v0.9
			c1.219,0,1.862-0.281,2.43-0.528C-1.536-0.185-1.031-0.405,0-0.405c1.028,0,1.532,0.221,2.066,0.454
			C2.663,0.31,3.28,0.576,4.502,0.576l-0.004-0.9c-0.009,0-0.019,0-0.028,0c-1.013,0-1.514-0.219-2.043-0.451
			C1.86-1.023,1.217-1.305,0-1.305z"/>
		<path class="st16" d="M0-0.945c-1.219,0-1.862,0.281-2.43,0.528C-2.964-0.184-3.469,0.036-4.5,0.036v0.9
			c1.219,0,1.862-0.281,2.43-0.528C-1.536,0.175-1.031-0.045,0-0.045c1.028,0,1.532,0.221,2.066,0.454
			C2.657,0.668,3.269,0.936,4.47,0.936c0.011,0,0.022,0,0.032,0l-0.004-0.9c-0.009,0-0.019,0-0.028,0
			c-1.013,0-1.514-0.219-2.043-0.451C1.86-0.663,1.217-0.945,0-0.945z"/>
		<path d="M-1.998,1.458c0.018-0.036,0.027-0.063,0.027-0.099c0-0.045-0.045-0.09-0.117-0.126c-0.036-0.018-0.063-0.027-0.099-0.027
			c-0.018,0-0.045,0.009-0.063,0.018C-2.268,1.233-2.277,1.251-2.286,1.26c-0.009,0.027-0.063,0.144-0.153,0.351h-0.063h-0.243
			V1.386c0-0.018,0-0.045,0-0.072c0-0.018-0.009-0.036-0.018-0.054c-0.018-0.036-0.072-0.054-0.153-0.054S-3.06,1.233-3.078,1.278
			C-3.087,1.314-3.087,1.35-3.087,1.377v1.08c0,0.027,0,0.045,0,0.072c0,0.018,0.009,0.036,0.018,0.054
			c0.018,0.036,0.072,0.054,0.153,0.054h0.423c0.126,0,0.243-0.045,0.333-0.126c0.054-0.045,0.099-0.099,0.126-0.162
			C-1.998,2.277-1.98,2.196-1.98,2.115c0.009-0.135-0.045-0.27-0.144-0.36C-2.097,1.701-2.052,1.593-1.998,1.458z M-2.745,1.962
			h0.252c0.045,0,0.081,0.018,0.117,0.045s0.063,0.081,0.054,0.126c0,0.054-0.018,0.099-0.054,0.135
			c-0.036,0.027-0.072,0.045-0.117,0.045h-0.243V1.962C-2.736,1.962-2.745,1.962-2.745,1.962z"/>
		<path d="M-1.224,2.142C-1.215,2.214-1.17,2.25-1.071,2.25c0.036,0,0.072,0,0.117-0.009C-0.936,2.232-0.909,2.223-0.9,2.196
			c0.009-0.018,0.018-0.036,0.018-0.054s0-0.045,0-0.072V1.386c0-0.018,0-0.045,0-0.072c0-0.018-0.009-0.036-0.018-0.054
			c-0.018-0.036-0.063-0.054-0.135-0.054c-0.045-0.009-0.099,0-0.144,0.027c-0.027,0.018-0.036,0.045-0.045,0.081
			c-0.054-0.072-0.153-0.117-0.243-0.108c-0.126,0-0.234,0.063-0.315,0.153c-0.09,0.099-0.144,0.225-0.144,0.36
			s0.054,0.261,0.144,0.36c0.081,0.099,0.198,0.153,0.324,0.153c0.045,0,0.081-0.009,0.117-0.027
			c0.027-0.009,0.054-0.027,0.072-0.045C-1.251,2.169-1.233,2.16-1.224,2.142z M-1.584,1.728c0-0.045,0.027-0.081,0.054-0.117
			c0.036-0.036,0.081-0.054,0.126-0.054s0.09,0.018,0.117,0.054c0.027,0.027,0.045,0.072,0.045,0.117s-0.018,0.09-0.045,0.117
			c-0.027,0.036-0.072,0.054-0.126,0.054c-0.045,0-0.09-0.018-0.126-0.054C-1.566,1.818-1.584,1.782-1.584,1.728L-1.584,1.728z"/>
		<path d="M-0.387,2.115C-0.342,2.196-0.261,2.25-0.162,2.25c0.126,0.009,0.243-0.063,0.297-0.171
			c0.018,0.018,0.036,0.045,0.054,0.063c0.027,0.027,0.063,0.054,0.099,0.072C0.333,2.241,0.378,2.25,0.423,2.25
			c0.099,0,0.198-0.045,0.261-0.117c0.072-0.081,0.108-0.216,0.108-0.396V1.395c0-0.018,0-0.045,0-0.072
			c0-0.018-0.009-0.036-0.018-0.054C0.756,1.233,0.702,1.215,0.621,1.215S0.486,1.233,0.468,1.269
			C0.459,1.287,0.45,1.305,0.45,1.323s0,0.045,0,0.072v0.351c0,0.117-0.036,0.171-0.117,0.171c-0.036,0-0.072-0.018-0.09-0.045
			C0.225,1.836,0.216,1.791,0.216,1.746V1.404c0-0.027,0-0.045,0-0.072c0-0.018-0.009-0.036-0.018-0.054
			C0.18,1.242,0.126,1.224,0.045,1.224S-0.09,1.242-0.108,1.278c-0.009,0.018-0.018,0.036-0.018,0.054s0,0.045,0,0.072v0.342
			c0,0.117-0.036,0.171-0.117,0.171S-0.36,1.863-0.36,1.746V1.395c0-0.018,0-0.045,0-0.072c0-0.018-0.009-0.036-0.018-0.054
			C-0.396,1.233-0.45,1.215-0.531,1.215s-0.135,0.018-0.153,0.054c-0.009,0.018-0.018,0.036-0.018,0.054c0,0.027,0,0.045,0,0.072
			v0.693c0,0.018,0,0.045,0,0.072c0,0.018,0.009,0.036,0.018,0.054C-0.666,2.25-0.621,2.268-0.54,2.268
			c0.054,0.009,0.099-0.009,0.144-0.036C-0.387,2.187-0.387,2.151-0.387,2.115z"/>
		<path d="M1.935,1.854c0.009-0.063-0.018-0.135-0.063-0.18C1.836,1.638,1.791,1.62,1.737,1.62H1.269
			c0-0.036,0.027-0.072,0.063-0.09c0.036-0.027,0.081-0.036,0.126-0.036c0.063,0,0.126,0.009,0.18,0.027L1.656,1.53
			C1.683,1.539,1.71,1.548,1.737,1.548c0.045,0,0.081-0.027,0.108-0.09c0.018-0.027,0.027-0.054,0.027-0.09
			c0-0.117-0.135-0.171-0.414-0.171c-0.09,0-0.18,0.018-0.261,0.054c-0.072,0.027-0.135,0.072-0.18,0.135
			C0.936,1.485,0.891,1.611,0.891,1.737C0.882,1.89,0.945,2.034,1.053,2.133c0.108,0.099,0.252,0.153,0.396,0.144
			c0.162,0.009,0.306-0.063,0.396-0.189C1.908,2.016,1.935,1.935,1.935,1.854z M1.521,1.8c0.054,0,0.072,0.018,0.072,0.063
			c0,0.027-0.009,0.054-0.036,0.072S1.494,1.962,1.458,1.962c-0.045,0-0.09-0.018-0.126-0.054C1.296,1.881,1.269,1.845,1.269,1.8
			C1.269,1.8,1.521,1.8,1.521,1.8z"/>
		<path d="M2.637,2.25c0.126,0,0.243-0.054,0.324-0.153c0.09-0.099,0.135-0.234,0.126-0.369V1.386c0-0.018,0-0.045,0-0.072
			c0-0.018-0.009-0.036-0.018-0.045C3.051,1.233,2.997,1.215,2.916,1.215S2.772,1.242,2.754,1.287
			C2.745,1.323,2.745,1.35,2.745,1.386v0.342c0.009,0.09-0.063,0.162-0.144,0.171c-0.009,0-0.018,0-0.027,0
			c-0.045,0-0.09-0.018-0.126-0.045C2.412,1.818,2.394,1.773,2.403,1.728V1.377c0-0.018,0-0.045,0-0.072
			c0-0.018-0.009-0.036-0.018-0.045C2.367,1.224,2.313,1.206,2.232,1.206S2.097,1.224,2.079,1.26C2.07,1.278,2.07,1.296,2.061,1.314
			c0,0.018,0,0.045,0,0.072v0.693c0,0.018,0,0.045,0,0.063S2.07,2.178,2.079,2.196c0.018,0.036,0.072,0.045,0.153,0.045
			s0.126-0.018,0.144-0.045s0.018-0.054,0.018-0.081C2.403,2.133,2.412,2.142,2.43,2.151c0.018,0.018,0.036,0.027,0.054,0.045
			C2.538,2.232,2.583,2.25,2.637,2.25z"/>
		<path class="st17" d="M-2.043,3.843c0.009-0.009,0.009-0.018,0.009-0.036s0-0.027,0-0.045V3.06c0-0.063-0.018-0.09-0.045-0.099
			c-0.018-0.009-0.036-0.009-0.063-0.009c-0.018,0-0.036,0-0.063,0.009c-0.009,0-0.018,0.009-0.027,0.018
			C-2.241,2.988-2.25,2.997-2.25,3.006c-0.009,0.018-0.009,0.045-0.009,0.063v0.423c-0.018-0.027-0.054-0.072-0.09-0.126
			L-2.43,3.258l-0.027-0.027c-0.009-0.009-0.018-0.018-0.027-0.027C-2.502,3.195-2.52,3.186-2.538,3.186s-0.036,0-0.054,0.009
			c-0.009,0.009-0.027,0.018-0.036,0.027V3.24c-0.018,0.018-0.054,0.063-0.099,0.135s-0.081,0.108-0.081,0.108V3.06
			c0-0.018,0-0.036,0-0.045s-0.009-0.027-0.009-0.036c-0.009-0.027-0.045-0.036-0.099-0.036s-0.081,0.009-0.099,0.036
			c-0.009,0.009-0.009,0.018-0.009,0.036s0,0.027,0,0.045v0.702c0,0.018,0,0.027,0,0.045c0,0.009,0.009,0.027,0.009,0.036
			c0.009,0.018,0.045,0.036,0.099,0.036c0.018,0,0.036,0,0.063-0.009c0.009,0,0.027-0.009,0.036-0.018l0.009-0.009l0.288-0.378
			c0.144,0.189,0.243,0.315,0.288,0.378c0.018,0.027,0.045,0.036,0.099,0.036C-2.088,3.879-2.052,3.87-2.043,3.843z"/>
		<path class="st17" d="M-1.494,3.546c0.009,0.045,0.036,0.072,0.099,0.072c0.027,0,0.054,0,0.072-0.009
			c0.018,0,0.027-0.018,0.036-0.027s0.009-0.018,0.009-0.036c0-0.018,0-0.027,0-0.045v-0.45c0-0.018,0-0.027,0-0.045
			c0-0.009-0.009-0.027-0.009-0.036c-0.009-0.018-0.045-0.036-0.09-0.036c-0.027,0-0.063,0-0.09,0.018
			c-0.018,0.009-0.027,0.027-0.027,0.054C-1.53,2.961-1.593,2.934-1.656,2.934c-0.081,0-0.153,0.036-0.207,0.099
			c-0.126,0.126-0.126,0.333,0,0.468C-1.809,3.564-1.737,3.6-1.656,3.6c0.027,0,0.054-0.009,0.081-0.018
			c0.018-0.009,0.036-0.018,0.045-0.027C-1.512,3.564-1.503,3.555-1.494,3.546z M-1.728,3.285c0-0.027,0.009-0.054,0.036-0.072
			c0.018-0.018,0.054-0.036,0.081-0.036s0.063,0.009,0.081,0.036c0.018,0.018,0.027,0.045,0.027,0.072S-1.512,3.339-1.53,3.366
			c-0.018,0.027-0.045,0.036-0.081,0.036c-0.027,0-0.063-0.009-0.081-0.036C-1.71,3.339-1.728,3.312-1.728,3.285z"/>
		<path class="st17" d="M-0.711,3.609C-0.693,3.6-0.684,3.591-0.675,3.582c0.009-0.018,0.018-0.036,0.018-0.063
			s-0.009-0.063-0.027-0.09C-0.693,3.402-0.72,3.384-0.756,3.384c-0.018,0-0.027,0-0.045,0.009
			c-0.018,0.009-0.036,0.009-0.054,0.009c-0.027,0-0.045-0.009-0.063-0.027s-0.027-0.036-0.027-0.063v-0.27c0-0.018,0-0.036,0-0.045
			c0-0.009-0.009-0.027-0.009-0.036c-0.009-0.027-0.045-0.036-0.099-0.036c-0.036,0-0.063,0.009-0.09,0.018
			C-1.161,2.961-1.17,2.979-1.17,2.997V3.51c0,0.018,0,0.027,0,0.045c0,0.009,0.009,0.018,0.009,0.036
			c0.009,0.027,0.045,0.036,0.099,0.036S-0.981,3.618-0.963,3.6c0.009-0.009,0.018-0.027,0.018-0.045
			c0,0.009,0.009,0.018,0.018,0.018C-0.909,3.582-0.891,3.6-0.873,3.609s0.045,0.018,0.072,0.018c0.018,0,0.036,0,0.054,0
			L-0.711,3.609z"/>
		<path class="st17" d="M-0.288,2.952c-0.081,0-0.162,0.036-0.216,0.099c-0.054,0.063-0.09,0.153-0.081,0.234V3.51
			c0,0.018,0,0.036,0,0.045s0.009,0.018,0.009,0.036c0.009,0.027,0.045,0.036,0.099,0.036c0.063,0,0.09-0.018,0.108-0.045
			C-0.36,3.564-0.36,3.537-0.36,3.519V3.294c0-0.063,0.054-0.108,0.117-0.108c0.027,0,0.054,0.009,0.072,0.027
			c0.018,0.018,0.036,0.054,0.027,0.081V3.51c0,0.018,0,0.036,0,0.045s0.009,0.027,0.009,0.036c0.009,0.018,0.045,0.036,0.099,0.036
			s0.09-0.009,0.099-0.036c0.009-0.009,0.009-0.018,0.009-0.036c0-0.009,0-0.027,0-0.045V3.06c0-0.018,0-0.036,0-0.045
			S0.063,2.988,0.063,2.979C0.054,2.961,0.018,2.943-0.036,2.943S-0.117,2.952-0.135,2.97c-0.009,0.018-0.009,0.036-0.009,0.054
			c-0.009-0.009-0.018-0.018-0.027-0.027C-0.18,2.988-0.189,2.979-0.207,2.97C-0.225,2.961-0.252,2.952-0.288,2.952z"/>
		<path class="st17" d="M0.396,3.285c0-0.036,0.009-0.063,0.036-0.081C0.45,3.186,0.477,3.177,0.504,3.177s0.054,0.009,0.072,0.027
			C0.594,3.213,0.612,3.222,0.63,3.231c0.027,0,0.054-0.027,0.09-0.072c0.018-0.018,0.027-0.045,0.027-0.063
			c0-0.036-0.027-0.063-0.072-0.09C0.621,2.97,0.558,2.952,0.495,2.952c-0.081,0-0.162,0.036-0.225,0.09
			C0.234,3.069,0.207,3.105,0.189,3.15C0.162,3.195,0.153,3.249,0.153,3.303s0.009,0.099,0.036,0.153
			C0.207,3.501,0.234,3.537,0.27,3.564c0.063,0.054,0.144,0.081,0.225,0.081c0.027,0,0.063-0.009,0.09-0.018
			C0.612,3.618,0.63,3.609,0.657,3.6l0.018-0.009l0.036-0.027c0.018-0.009,0.036-0.036,0.036-0.063S0.738,3.447,0.72,3.429
			C0.693,3.384,0.657,3.357,0.63,3.357S0.585,3.366,0.558,3.384C0.54,3.402,0.513,3.411,0.495,3.402
			c-0.027,0-0.054-0.009-0.081-0.027C0.396,3.348,0.387,3.312,0.396,3.285z"/>
		<path class="st17" d="M1.206,3.618c0.081,0,0.162-0.036,0.216-0.099s0.09-0.153,0.081-0.234V3.06c0-0.018,0-0.036,0-0.045
			S1.494,2.988,1.494,2.979C1.485,2.952,1.449,2.943,1.395,2.943S1.314,2.952,1.296,2.979C1.287,2.988,1.287,2.997,1.287,3.015
			s0,0.027,0,0.045v0.216c0,0.027-0.009,0.063-0.027,0.081C1.242,3.375,1.215,3.384,1.188,3.384S1.134,3.375,1.107,3.357
			C1.089,3.339,1.071,3.321,1.071,3.294V3.06c0-0.018,0-0.027,0-0.045c0-0.009-0.009-0.027-0.009-0.036
			C1.053,2.952,1.017,2.943,0.963,2.943s-0.09,0.009-0.099,0.036C0.855,2.988,0.855,2.997,0.855,3.015s0,0.027,0,0.045v0.756
			c0,0.018,0,0.027,0,0.045c0,0.009,0.009,0.018,0.009,0.036c0.009,0.027,0.045,0.036,0.099,0.036s0.09-0.009,0.099-0.036
			c0.009-0.009,0.009-0.018,0.009-0.036s0-0.027,0-0.045V3.537C1.098,3.582,1.152,3.609,1.206,3.618z"/>
		<path class="st17" d="M2.043,3.546c0.009,0.045,0.036,0.072,0.099,0.072c0.027,0,0.054,0,0.072-0.009
			c0.018,0,0.027-0.018,0.036-0.027s0.009-0.018,0.009-0.036c0-0.018,0-0.027,0-0.045v-0.45c0-0.018,0-0.027,0-0.045
			c0-0.009-0.009-0.027-0.009-0.036C2.241,2.952,2.214,2.934,2.16,2.934c-0.027,0-0.063,0-0.09,0.018
			C2.052,2.961,2.043,2.979,2.043,3.006C2.007,2.961,1.944,2.934,1.881,2.934c-0.081,0-0.153,0.036-0.207,0.099
			c-0.126,0.126-0.126,0.333,0,0.468C1.728,3.564,1.8,3.6,1.881,3.609c0.027,0,0.054-0.009,0.081-0.018
			C1.98,3.582,1.998,3.573,2.016,3.564C2.025,3.564,2.034,3.555,2.043,3.546z M1.809,3.285c0-0.027,0.009-0.054,0.036-0.072
			c0.018-0.018,0.054-0.036,0.081-0.036s0.063,0.009,0.081,0.036c0.018,0.018,0.027,0.045,0.027,0.072S2.025,3.339,2.007,3.366
			C1.989,3.393,1.953,3.402,1.926,3.402S1.863,3.393,1.845,3.366C1.827,3.339,1.809,3.312,1.809,3.285z"/>
		<path class="st17" d="M2.745,3.618c0.081,0,0.162-0.036,0.207-0.099c0.063-0.063,0.09-0.153,0.09-0.234V3.06
			c0-0.018,0-0.027,0-0.045c0-0.009-0.009-0.027-0.009-0.036C3.024,2.952,2.988,2.943,2.934,2.943S2.835,2.961,2.826,2.988
			C2.817,3.006,2.817,3.033,2.817,3.051v0.225c0,0.027-0.009,0.063-0.027,0.081S2.736,3.384,2.709,3.384S2.646,3.375,2.628,3.357
			S2.592,3.303,2.601,3.276V3.06c0-0.018,0-0.027,0-0.045c0-0.009-0.009-0.027-0.009-0.036C2.583,2.952,2.547,2.943,2.493,2.943
			s-0.09,0.009-0.099,0.036C2.385,2.988,2.385,2.997,2.385,3.015s0,0.027,0,0.045v0.45c0,0.018,0,0.027,0,0.045
			c0,0.009,0.009,0.018,0.009,0.036c0.009,0.018,0.045,0.027,0.099,0.027s0.081-0.009,0.099-0.027
			c0.009-0.018,0.009-0.036,0.009-0.054C2.61,3.546,2.619,3.555,2.628,3.564s0.018,0.018,0.036,0.027
			C2.682,3.609,2.709,3.618,2.745,3.618z"/>
		
			<ellipse transform="matrix(0.3681 -0.9298 0.9298 0.3681 1.1545 -4.1488)" class="st18" cx="-2.475" cy="-2.924" rx="0.585" ry="0.765"/>
		<ellipse transform="matrix(0.866 -0.5 0.5 0.866 0.468 -1.404)" class="st18" cx="-2.386" cy="-1.575" rx="0.765" ry="0.585"/>
		<ellipse class="st19" cx="-2.115" cy="-2.205" rx="0.765" ry="0.495"/>
		<ellipse transform="matrix(0.866 -0.5 0.5 0.866 1.5579 1.5836)" class="st19" cx="3.734" cy="-2.115" rx="0.765" ry="0.495"/>
		<path class="st20" d="M4.5-2.268L2.439-2.862C2.34-2.889,2.286-2.988,2.313-3.087S2.439-3.24,2.538-3.213l0,0L4.5-2.646V-2.268z"
			/>
		<path class="st20" d="M4.5-2.025L2.808-3.303C2.727-3.357,2.709-3.474,2.763-3.555S2.934-3.654,3.015-3.6c0,0,0.009,0,0.009,0.009
			l1.467,1.116v0.45H4.5z"/>
		<path class="st20" d="M4.5-1.089L2.277-1.863c-0.09-0.036-0.144-0.135-0.108-0.225s0.135-0.144,0.225-0.108l0,0L4.5-1.467V-1.089z
			"/>
		<path class="st20" d="M4.5-0.792C4.482-0.801,4.455-0.81,4.437-0.819L1.998-2.673C1.917-2.727,1.899-2.844,1.953-2.925
			C2.007-3.006,2.124-3.024,2.205-2.97c0,0,0.009,0,0.009,0.009L4.5-1.233V-0.792z"/>
		<path class="st21" d="M-3.672-2.259C-3.969-2.295-4.257-2.412-4.5-2.601V-3.15c0-0.135,0.018-0.279,0.063-0.405
			c0.306-0.144,0.648-0.18,0.972-0.126c0.666,0.099,1.152,0.504,1.098,0.891S-3.015-2.16-3.672-2.259z"/>
		<path class="st22" d="M-3.672-2.079C-3.969-2.115-4.257-2.232-4.5-2.421V-3.15c0-0.072,0.009-0.135,0.018-0.198
			c0.243-0.144,0.621-0.207,1.026-0.153C-2.79-3.402-2.304-2.997-2.358-2.61C-2.412-2.223-3.015-1.98-3.672-2.079z"/>
		<path class="st21" d="M-3.825-1.278C-4.068-1.332-4.293-1.431-4.5-1.575v-0.999C-4.185-2.682-3.843-2.7-3.519-2.61
			c0.657,0.153,1.116,0.567,1.035,0.936C-2.565-1.305-3.168-1.134-3.825-1.278z"/>
		<path class="st22" d="M-3.915-1.098C-4.122-1.143-4.32-1.224-4.5-1.332V-2.43c0.288-0.081,0.594-0.081,0.891-0.009
			c0.657,0.153,1.116,0.567,1.035,0.936C-2.655-1.134-3.258-0.954-3.915-1.098z"/>
		<path class="st23" d="M-4.095-0.441C-4.239-0.477-4.383-0.549-4.5-0.648v-0.711c0.207-0.099,0.45-0.117,0.675-0.045
			C-3.42-1.296-3.15-0.99-3.231-0.72C-3.312-0.45-3.69-0.333-4.095-0.441z"/>
		<path class="st16" d="M3.15-4.77h-6.3c-0.893,0-1.62,0.727-1.62,1.62v6.3c0,0.893,0.727,1.62,1.62,1.62h6.3
			c0.893,0,1.62-0.727,1.62-1.62v-6.3C4.77-4.043,4.043-4.77,3.15-4.77z M-3.15,4.23c-0.596,0-1.08-0.484-1.08-1.08v-6.3
			c0-0.596,0.484-1.08,1.08-1.08h6.3c0.596,0,1.08,0.484,1.08,1.08v6.3c0,0.596-0.484,1.08-1.08,1.08C3.15,4.23-3.15,4.23-3.15,4.23
			z"/>
	</g>
</symbol>
<symbol  id="Stitch" viewBox="-5.034 -5.664 10.068 11.328">
	<g>
		<g>
			<path class="st24" d="M3.15,3.606H0.745c0.01,0.069,0.021,0.138,0.036,0.207c0.109,0.492,0.363,0.94,0.73,1.285
				C0.754,4.887,0.139,4.335-0.152,3.606l0,0C-0.17,3.73-0.18,3.856-0.18,3.981c-0.001,0.504,0.15,0.996,0.434,1.413
				C-0.43,5.029-0.908,4.37-1.041,3.606H-3.15c-0.746,0-1.35-0.604-1.35-1.35v-6.3c0-0.746,0.604-1.35,1.35-1.35l0,0h6.3
				c0.746,0,1.35,0.604,1.35,1.35l0,0v6.3C4.5,3.002,3.896,3.606,3.15,3.606z"/>
			<path d="M3.15-5.664h-6.3c-0.893,0-1.62,0.727-1.62,1.62v6.3c0,0.893,0.727,1.62,1.62,1.62h1.891
				c0.195,0.753,0.691,1.386,1.386,1.756c0.11,0.059,0.245,0.035,0.328-0.058c0.083-0.092,0.092-0.23,0.022-0.332
				C0.342,5.044,0.241,4.828,0.176,4.601c0.343,0.356,0.778,0.622,1.262,0.757c0.12,0.033,0.247-0.019,0.308-0.127
				c0.061-0.108,0.04-0.244-0.05-0.329C1.398,4.621,1.185,4.269,1.075,3.876H3.15c0.893,0,1.62-0.727,1.62-1.62v-6.3
				C4.77-4.937,4.043-5.664,3.15-5.664z M-3.15,3.336c-0.596,0-1.08-0.484-1.08-1.08v-6.3c0-0.596,0.484-1.08,1.08-1.08h6.3
				c0.596,0,1.08,0.484,1.08,1.08v6.3c0,0.596-0.484,1.08-1.08,1.08H0.745c-0.078,0-0.153,0.034-0.204,0.093
				S0.467,3.566,0.478,3.644c0.009,0.066,0.021,0.145,0.04,0.227c0.034,0.153,0.08,0.302,0.138,0.445
				c-0.241-0.224-0.433-0.5-0.557-0.811C0.054,3.392-0.062,3.322-0.183,3.337c-0.121,0.014-0.218,0.108-0.236,0.228
				C-0.439,3.702-0.45,3.841-0.45,3.98c0,0.159,0.013,0.317,0.039,0.471c-0.182-0.263-0.307-0.566-0.365-0.893
				C-0.798,3.43-0.91,3.336-1.041,3.336H-3.15z"/>
		</g>
		<path class="st25" d="M1.42,0.006C1.267-0.188,1.15-0.69,1.11-0.934c-0.132-0.77,0.228-1.13,0.949-1.31
			C2.36-2.3,2.669-2.3,2.97-2.244c0.707,0.18,1.067,0.54,0.949,1.31C3.881-0.69,3.765-0.187,3.61,0.006
			C2.958,0.816,2.058,0.816,1.42,0.006z"/>
		<ellipse cx="2.516" cy="-1.115" rx="0.983" ry="0.826"/>
		<circle class="st26" cx="2.31" cy="-0.909" r="0.223"/>
		<path class="st25" d="M-3.608,0.006c-0.153-0.194-0.27-0.696-0.309-0.94c-0.133-0.77,0.227-1.13,0.947-1.31
			c0.302-0.056,0.611-0.056,0.913,0c0.707,0.18,1.067,0.54,0.95,1.31c-0.038,0.244-0.152,0.747-0.31,0.94
			C-2.07,0.816-2.97,0.816-3.608,0.006z"/>
		<ellipse cx="-2.513" cy="-1.115" rx="0.983" ry="0.826"/>
		<circle class="st26" cx="-2.718" cy="-0.909" r="0.223"/>
		<g>
			<ellipse class="st27" cx="0" cy="-1.614" rx="1.305" ry="0.99"/>
			<path d="M0-2.762c-0.806,0-1.463,0.515-1.463,1.147S-0.806-0.466,0-0.466s1.462-0.515,1.462-1.148S0.806-2.762,0-2.762z M0-0.782
				c-0.633,0-1.148-0.373-1.148-0.833S-0.633-2.447,0-2.447s1.148,0.373,1.148,0.833S0.633-0.782,0-0.782z"/>
		</g>
		<path d="M0.45-2.522l0.026-0.013C0.76-2.46,1.008-2.285,1.175-2.043c-0.11,0.106-0.258,0.163-0.41,0.158
			c-0.23,0-0.424-0.115-0.479-0.27H0.27C0.202-2.304,0.025-2.37-0.124-2.301c-0.065,0.03-0.117,0.082-0.146,0.146h-0.014
			C-0.339-2-0.532-1.885-0.763-1.885c-0.153,0.005-0.301-0.052-0.41-0.158C-0.965-2.374-0.518-2.604,0-2.604
			c0.152,0,0.304,0.021,0.45,0.062V-2.522z"/>
		<path class="st27" d="M1.242,0.551c-0.016,0-0.031,0.002-0.047,0.007c-0.78,0.244-1.608,0.254-2.393,0.028
			C-1.281,0.562-1.369,0.61-1.393,0.694c-0.024,0.084,0.024,0.171,0.108,0.195C-0.44,1.132,0.45,1.122,1.29,0.859
			c0.083-0.026,0.129-0.114,0.103-0.197C1.371,0.594,1.309,0.551,1.242,0.551z"/>
		<path class="st27" d="M0.98-0.25c-0.019,0-0.037,0.003-0.056,0.01C0.33-0.015-0.328-0.004-0.93-0.207
			c-0.082-0.028-0.172,0.016-0.2,0.099c-0.028,0.082,0.016,0.172,0.099,0.2c0.671,0.226,1.404,0.213,2.066-0.037
			c0.081-0.031,0.122-0.122,0.092-0.203C1.104-0.211,1.044-0.25,0.98-0.25z"/>
		<path class="st25" d="M-3.69-5.462c0.17-0.075,0.354-0.113,0.54-0.112h6.3c0.186,0,0.37,0.038,0.54,0.112
			C3.661-4.598,3.51-3.865,2.61-3.504C1.921-3.229,0.9-3.189,0-3.189s-1.921-0.04-2.61-0.315C-3.51-3.864-3.659-4.597-3.69-5.462z"
			/>
		<g>
			<path class="st28" d="M-1.17,2.483c0.179,0.093,0.257,0.307,0.18,0.493c-0.18,0.54-0.72,0.72-1.44,0.9
				c-0.873,0.219-1.62,0-1.98-0.36c-0.459-0.459-0.415-1.276-0.18-1.98c0.18-0.54,0.72-0.72,0.72-0.72s-0.209,0.672-0.18,0.9
				c0.09,0.72,0.434,0.927,0.72,1.08s0.79,0.118,1.26,0C-1.764,2.709-1.464,2.604-1.17,2.483z"/>
			<path d="M-3.87,0.636c-0.019,0-0.038,0.003-0.057,0.009c-0.026,0.009-0.628,0.216-0.834,0.834
				c-0.146,0.437-0.417,1.524,0.224,2.164c0.46,0.46,1.304,0.62,2.151,0.407c0.731-0.183,1.353-0.385,1.565-1.012
				c0.108-0.269-0.008-0.582-0.266-0.716C-1.134,2.299-1.19,2.296-1.239,2.316C-1.525,2.434-1.821,2.537-2.12,2.622
				c-0.482,0.121-0.915,0.127-1.126,0.014c-0.243-0.13-0.545-0.291-0.626-0.944c-0.016-0.13,0.091-0.56,0.173-0.824
				c0.02-0.064,0.002-0.135-0.046-0.182C-3.778,0.654-3.824,0.636-3.87,0.636z M-3.118,3.783c-0.527,0-0.944-0.174-1.165-0.395
				C-4.628,3.043-4.68,2.371-4.42,1.592c0.056-0.169,0.156-0.297,0.257-0.39C-4.209,1.399-4.246,1.611-4.23,1.737
				c0.097,0.772,0.471,1.033,0.814,1.216c0.404,0.216,1.043,0.103,1.389,0.016c0.284-0.081,0.562-0.176,0.831-0.283
				c0.053,0.058,0.07,0.144,0.039,0.22C-1.159,2.91-1.16,2.914-1.162,2.918C-1.302,3.339-1.697,3.506-2.475,3.7
				C-2.701,3.758-2.917,3.783-3.118,3.783z"/>
		</g>
		<path d="M3.15-5.664h-6.3c-0.893,0-1.62,0.727-1.62,1.62v5.313c-0.03,0.058-0.055,0.119-0.076,0.18
			c-0.152,0.454-0.431,1.582,0.245,2.257c0.482,0.482,1.359,0.651,2.237,0.431c0.276-0.061,0.555-0.149,0.823-0.262h0.282
			c0.195,0.753,0.691,1.386,1.386,1.756c0.11,0.059,0.245,0.035,0.328-0.058c0.083-0.092,0.092-0.23,0.022-0.332
			C0.342,5.043,0.241,4.827,0.176,4.6c0.343,0.356,0.778,0.622,1.262,0.757C1.558,5.39,1.685,5.338,1.746,5.23
			c0.061-0.108,0.04-0.244-0.05-0.329C1.398,4.62,1.185,4.268,1.075,3.875h0.466c0.268,0.113,0.547,0.201,0.831,0.264
			c0.869,0.218,1.747,0.049,2.229-0.433l0,0C5.277,3.03,4.998,1.903,4.846,1.45C4.825,1.388,4.799,1.327,4.77,1.269v-5.313
			C4.77-4.937,4.043-5.664,3.15-5.664z M-3.12,3.693c-0.501,0-0.892-0.162-1.099-0.368C-4.54,3.004-4.583,2.367-4.334,1.621
			c0.017-0.051,0.04-0.101,0.067-0.148C-4.243,1.432-4.23,1.385-4.23,1.337v-5.382c0-0.596,0.484-1.08,1.08-1.08h6.3
			c0.596,0,1.08,0.484,1.08,1.08v5.382c0,0.048,0.013,0.095,0.037,0.136C4.294,1.52,4.317,1.57,4.335,1.622
			C4.584,2.367,4.541,3.004,4.22,3.325l0,0C3.933,3.612,3.289,3.813,2.497,3.614c-0.276-0.061-0.54-0.146-0.791-0.256
			C1.67,3.344,1.634,3.336,1.597,3.336H0.745c-0.078,0-0.153,0.034-0.204,0.093S0.467,3.566,0.478,3.644
			c0.009,0.066,0.021,0.145,0.04,0.227c0.034,0.153,0.08,0.302,0.138,0.445c-0.241-0.224-0.433-0.5-0.557-0.811
			C0.054,3.392-0.062,3.322-0.183,3.337c-0.121,0.014-0.218,0.108-0.236,0.228C-0.439,3.702-0.45,3.841-0.45,3.98
			c0,0.159,0.013,0.317,0.039,0.471c-0.182-0.263-0.307-0.566-0.365-0.893C-0.798,3.43-0.91,3.336-1.041,3.336h-0.556
			c-0.037,0-0.074,0.008-0.108,0.022c-0.252,0.11-0.515,0.195-0.784,0.254C-2.712,3.668-2.925,3.693-3.12,3.693z"/>
		<g>
			<path class="st28" d="M1.17,2.483C0.991,2.576,0.913,2.79,0.99,2.976c0.18,0.54,0.72,0.72,1.44,0.9c0.873,0.219,1.62,0,1.98-0.36
				c0.459-0.459,0.415-1.276,0.18-1.98c-0.18-0.54-0.72-0.72-0.72-0.72s0.209,0.672,0.18,0.9c-0.09,0.72-0.434,0.927-0.72,1.08
				c-0.286,0.153-0.79,0.118-1.26,0C1.764,2.709,1.464,2.604,1.17,2.483z"/>
			<path d="M3.87,0.636c-0.046,0-0.092,0.018-0.126,0.051C3.696,0.734,3.678,0.805,3.698,0.869c0.082,0.264,0.19,0.694,0.173,0.824
				C3.789,2.346,3.487,2.507,3.245,2.637c-0.21,0.112-0.644,0.106-1.131-0.016C1.821,2.538,1.525,2.434,1.239,2.316
				C1.19,2.296,1.135,2.298,1.087,2.322C0.829,2.455,0.713,2.769,0.821,3.038C1.033,3.665,1.656,3.867,2.386,4.05
				c0.847,0.212,1.691,0.052,2.151-0.407c0.64-0.64,0.369-1.727,0.224-2.164C4.555,0.861,3.953,0.654,3.927,0.645
				C3.908,0.639,3.889,0.636,3.87,0.636z M2.812,3.079c0.217,0,0.431-0.032,0.603-0.124c0.343-0.183,0.717-0.444,0.814-1.216
				c0.016-0.126-0.021-0.337-0.066-0.533c0.102,0.093,0.201,0.22,0.257,0.388c0.26,0.779,0.209,1.45-0.136,1.796
				C3.979,3.695,3.302,3.91,2.475,3.703C1.697,3.509,1.302,3.342,1.162,2.921C1.161,2.917,1.159,2.913,1.158,2.909
				c-0.031-0.076-0.014-0.162,0.039-0.22c0.27,0.108,0.547,0.202,0.826,0.282C2.222,3.02,2.52,3.079,2.812,3.079z"/>
		</g>
		<path d="M-3.87,0.546c-0.028,0-0.057,0.004-0.085,0.014c-0.027,0.009-0.671,0.23-0.891,0.891c-0.151,0.453-0.43,1.581,0.245,2.256
			c0.482,0.482,1.359,0.651,2.237,0.431c0.759-0.19,1.406-0.402,1.631-1.077c0.095-0.284,0.011-0.488-0.076-0.608
			c-0.226-0.314-0.756-0.467-1.62-0.467c-0.239,0-0.345-0.102-0.365-0.146c0.021-0.013,0.078-0.034,0.184-0.034
			c0.149,0,0.27-0.121,0.27-0.27s-0.121-0.27-0.27-0.27c-0.207,0-0.377,0.047-0.505,0.139c-0.142,0.102-0.223,0.257-0.223,0.424
			c0,0.342,0.34,0.696,0.908,0.696c0.743,0,1.101,0.131,1.182,0.243c0.009,0.013,0.029,0.04,0.002,0.122
			C-1.373,3.271-1.75,3.427-2.495,3.613c-0.792,0.198-1.437-0.002-1.724-0.289C-4.54,3.003-4.583,2.366-4.334,1.62
			C-4.2,1.219-3.789,1.072-3.785,1.071c0.141-0.047,0.218-0.2,0.171-0.341C-3.652,0.617-3.757,0.546-3.87,0.546z"/>
		<path d="M3.87,0.546c-0.113,0-0.218,0.072-0.256,0.185C3.567,0.872,3.643,1.025,3.785,1.072c0.002,0.001,0.416,0.149,0.549,0.549
			C4.583,2.367,4.54,3.004,4.219,3.325C3.932,3.612,3.288,3.813,2.496,3.614c-0.745-0.186-1.122-0.342-1.25-0.723
			C1.219,2.809,1.238,2.782,1.248,2.769C1.329,2.657,1.687,2.526,2.43,2.526c0.569,0,0.908-0.354,0.908-0.696
			c0-0.168-0.081-0.322-0.223-0.424c-0.128-0.093-0.298-0.14-0.505-0.14c-0.149,0-0.27,0.121-0.27,0.27s0.121,0.27,0.27,0.27
			c0.106,0,0.163,0.021,0.185,0.034C2.775,1.884,2.669,1.986,2.43,1.986c-0.864,0-1.394,0.153-1.62,0.467
			C0.723,2.574,0.639,2.777,0.734,3.061c0.225,0.675,0.872,0.887,1.631,1.077c0.877,0.22,1.755,0.051,2.236-0.431
			c0.676-0.676,0.397-1.803,0.245-2.256c-0.22-0.66-0.863-0.882-0.891-0.891C3.927,0.55,3.898,0.546,3.87,0.546z"/>
	</g>
</symbol>
<symbol  id="Strawberry" viewBox="-4.769 -5.684 9.539 11.368">
	<g>
		<g>
			<path class="st29" d="M0.828,2.785C0.153,3.306-0.676,3.588-1.529,3.586h-1.62c-0.746,0-1.35-0.604-1.35-1.35v-6.3
				c0-0.746,0.604-1.35,1.35-1.35l0,0h6.3c0.746,0,1.35,0.604,1.35,1.35l0,0l0,0v6.3c0,0.746-0.604,1.35-1.35,1.35h-1.62
				C1.005,3.585,0.485,3.478,0,3.271"/>
			<path d="M3.151-5.684h-6.3c-0.893,0-1.62,0.727-1.62,1.62v6.3c0,0.893,0.727,1.62,1.62,1.62h1.62c0.525,0,1.045-0.1,1.53-0.293
				c0.488,0.193,1.002,0.292,1.529,0.293h1.62c0.893,0,1.62-0.727,1.62-1.62v-6.3C4.77-4.957,4.043-5.684,3.151-5.684z
				 M-1.522,3.316c-0.003,0-0.005,0-0.007,0H-3.15c-0.596,0-1.08-0.484-1.08-1.08v-6.3c0-0.596,0.484-1.08,1.08-1.08h6.3
				c0.596,0,1.08,0.484,1.08,1.08v6.3c0,0.596-0.484,1.08-1.08,1.08H1.53c-0.287,0-0.57-0.034-0.846-0.101
				C0.79,3.148,0.893,3.076,0.993,2.999c0.118-0.091,0.14-0.261,0.049-0.379S0.781,2.48,0.663,2.571
				c-0.234,0.181-0.49,0.331-0.76,0.448C-0.103,3.021-0.11,3.024-0.116,3.027C-0.558,3.216-1.037,3.316-1.522,3.316z"/>
		</g>
		<path class="st30" d="M3.151,3.586h-0.36v-6.03c0-0.298-0.242-0.54-0.54-0.54h-4.5c-0.298,0-0.54,0.242-0.54,0.54v6.03h-0.36
			c-0.746,0-1.35-0.604-1.35-1.35v-6.3c0-0.746,0.604-1.35,1.35-1.35l0,0h6.3c0.746,0,1.35,0.604,1.35,1.35l0,0l0,0v6.3
			C4.5,2.982,3.896,3.586,3.151,3.586z"/>
		<path class="st2" d="M3.51,3.532v-6.786c0-0.447-0.363-0.81-0.81-0.81h-5.4c-0.447,0-0.81,0.363-0.81,0.81v6.786
			C-4.093,3.371-4.498,2.841-4.5,2.236v-6.3c0-0.746,0.604-1.35,1.35-1.35l0,0h6.3c0.746,0,1.35,0.604,1.35,1.35l0,0l0,0v6.3
			C4.499,2.841,4.093,3.371,3.51,3.532z"/>
		<path d="M3.151-5.684h-6.3c-0.893,0-1.62,0.727-1.62,1.62v6.3c0,0.893,0.727,1.62,1.62,1.62h1.62c0.525,0,1.045-0.1,1.53-0.293
			c0.488,0.193,1.002,0.292,1.529,0.293h1.62c0.893,0,1.62-0.727,1.62-1.62v-6.3C4.77-4.957,4.043-5.684,3.151-5.684z M-1.522,3.316
			c-0.003,0-0.005,0-0.007,0H-3.15c-0.596,0-1.08-0.484-1.08-1.08v-6.3c0-0.596,0.484-1.08,1.08-1.08h6.3
			c0.596,0,1.08,0.484,1.08,1.08v6.3c0,0.596-0.484,1.08-1.08,1.08H1.53c-0.287,0-0.57-0.034-0.846-0.101
			C0.79,3.148,0.893,3.076,0.993,2.999c0.118-0.091,0.14-0.261,0.049-0.379S0.781,2.48,0.663,2.571
			c-0.234,0.181-0.49,0.331-0.76,0.448C-0.103,3.021-0.11,3.024-0.116,3.027C-0.558,3.216-1.037,3.316-1.522,3.316z"/>
		<g>
			<path class="st1" d="M0.702,2.938c0.101,0.357,0.152,0.727,0.153,1.098c0.001,0.47-0.082,0.936-0.243,1.377l-1.35-0.495
				c0.1-0.283,0.152-0.581,0.153-0.882c-0.001-0.212-0.025-0.423-0.072-0.63"/>
			<path d="M0.963,2.865l-0.52,0.147C0.537,3.346,0.584,3.69,0.586,4.037c0,0.349-0.048,0.693-0.143,1.026l-0.848-0.311
				c0.059-0.233,0.09-0.473,0.091-0.715c-0.001-0.234-0.028-0.465-0.079-0.691l-0.526,0.12c0.042,0.187,0.064,0.379,0.065,0.572
				c-0.001,0.269-0.047,0.535-0.138,0.791C-1.042,4.968-0.97,5.122-0.831,5.172l1.35,0.495c0.067,0.025,0.142,0.022,0.207-0.009
				c0.065-0.03,0.115-0.085,0.14-0.152c0.173-0.472,0.26-0.967,0.259-1.47C1.124,3.639,1.069,3.246,0.963,2.865z"/>
		</g>
		<path d="M0.828,2.65c-0.029,0-0.058,0.009-0.082,0.028C0.1,3.177-0.705,3.451-1.522,3.451c-0.003,0-0.005,0-0.008,0
			c-0.074,0-0.135,0.06-0.135,0.135s0.06,0.135,0.135,0.135c0.003,0,0.005,0,0.008,0c0.876,0,1.739-0.294,2.433-0.829
			c0.059-0.046,0.07-0.13,0.024-0.189C0.909,2.668,0.868,2.65,0.828,2.65z"/>
		<ellipse class="st8" cx="-1.349" cy="0.436" rx="0.45" ry="0.675"/>
		<ellipse class="st8" cx="-1.349" cy="-2.264" rx="0.45" ry="0.675"/>
		<ellipse class="st8" cx="0" cy="-0.914" rx="0.45" ry="0.675"/>
		<ellipse class="st8" cx="-2.7" cy="-0.914" rx="0.45" ry="0.675"/>
		<ellipse class="st8" cx="0" cy="-3.614" rx="0.45" ry="0.675"/>
		<ellipse class="st8" cx="1.35" cy="-2.264" rx="0.45" ry="0.675"/>
		<ellipse class="st8" cx="0" cy="1.786" rx="0.45" ry="0.675"/>
		<ellipse class="st8" cx="1.35" cy="0.436" rx="0.45" ry="0.675"/>
		<ellipse class="st8" cx="2.701" cy="-0.914" rx="0.45" ry="0.675"/>
		<ellipse class="st31" cx="-1.349" cy="0.436" rx="0.45" ry="0.675"/>
		<ellipse class="st31" cx="-1.349" cy="-2.264" rx="0.45" ry="0.675"/>
		<ellipse class="st31" cx="0" cy="-0.914" rx="0.45" ry="0.675"/>
		<ellipse class="st31" cx="-2.7" cy="-0.914" rx="0.45" ry="0.675"/>
		<ellipse class="st31" cx="0" cy="-3.614" rx="0.45" ry="0.675"/>
		<ellipse class="st31" cx="1.35" cy="-2.264" rx="0.45" ry="0.675"/>
		<ellipse class="st31" cx="0" cy="1.786" rx="0.45" ry="0.675"/>
		<ellipse class="st31" cx="1.35" cy="0.436" rx="0.45" ry="0.675"/>
		<ellipse class="st31" cx="2.701" cy="-0.914" rx="0.45" ry="0.675"/>
		<ellipse class="st8" cx="2.701" cy="1.786" rx="0.45" ry="0.675"/>
		<ellipse class="st31" cx="2.701" cy="1.786" rx="0.45" ry="0.675"/>
		<ellipse class="st8" cx="2.701" cy="-3.614" rx="0.45" ry="0.675"/>
		<ellipse class="st31" cx="2.701" cy="-3.614" rx="0.45" ry="0.675"/>
		<ellipse class="st8" cx="-2.7" cy="-3.614" rx="0.45" ry="0.675"/>
		<ellipse class="st31" cx="-2.7" cy="-3.614" rx="0.45" ry="0.675"/>
		<ellipse class="st8" cx="-2.7" cy="1.786" rx="0.45" ry="0.675"/>
		<ellipse class="st31" cx="-2.7" cy="1.786" rx="0.45" ry="0.675"/>
	</g>
</symbol>
<symbol  id="Thanos" viewBox="-4.77 -5.04 9.54 10.08">
	<g>
		<g>
			<path class="st32" d="M3.15,4.77h-6.3c-0.746,0-1.35-0.604-1.35-1.35v-6.3c0-0.746,0.604-1.35,1.35-1.35l0,0h0.509
				c0.135,0,0.265-0.054,0.36-0.149L-2.04-4.62c0.095-0.096,0.225-0.149,0.36-0.149h3.359c0.135,0,0.265,0.054,0.36,0.149
				L2.28-4.379C2.375-4.283,2.505-4.23,2.64-4.23h0.509c0.746,0,1.35,0.604,1.35,1.35v6.3C4.5,4.166,3.896,4.77,3.15,4.77z"/>
			<path d="M1.68-5.04h-3.359c-0.208,0-0.404,0.081-0.551,0.229L-2.471-4.57C-2.516-4.525-2.577-4.5-2.64-4.5h-0.51
				c-0.893,0-1.62,0.727-1.62,1.62v6.3c0,0.893,0.727,1.62,1.62,1.62h6.3c0.893,0,1.62-0.727,1.62-1.62v-6.3
				c0-0.893-0.727-1.62-1.62-1.62H2.641c-0.064,0-0.124-0.025-0.169-0.07L2.231-4.811C2.083-4.959,1.888-5.04,1.68-5.04z M-3.15,4.5
				c-0.596,0-1.08-0.484-1.08-1.08v-6.3c0-0.596,0.484-1.08,1.08-1.08h0.509c0.208,0,0.404-0.081,0.551-0.229l0.241-0.241
				C-1.804-4.475-1.743-4.5-1.68-4.5h3.359c0.064,0,0.124,0.025,0.169,0.07l0.241,0.241C2.236-4.042,2.432-3.961,2.64-3.96h0.51
				c0.596,0,1.08,0.484,1.08,1.08v6.3c0,0.596-0.484,1.08-1.08,1.08H-3.15z"/>
		</g>
		<g class="st33">
			<path class="st34" d="M-3.015-4.32c-0.074,0-0.134,0.059-0.135,0.133l-0.017,1.305c0.009,0.389-0.154,0.751-0.449,0.998
				c-0.057,0.048-0.065,0.133-0.017,0.19s0.133,0.065,0.19,0.017c0.358-0.3,0.557-0.74,0.545-1.207l0.017-1.3
				C-2.88-4.259-2.94-4.32-3.014-4.321C-3.014-4.32-3.014-4.32-3.015-4.32z"/>
		</g>
		<g class="st33">
			<path class="st34" d="M-2.229-4.5c-0.074,0-0.134,0.06-0.135,0.134l-0.021,1.935c0,0.403-0.203,0.772-0.541,0.987
				c-0.063,0.04-0.081,0.123-0.041,0.186s0.123,0.082,0.186,0.041c0.417-0.266,0.666-0.719,0.666-1.214l0.021-1.934
				c0.001-0.075-0.059-0.136-0.134-0.136C-2.228-4.5-2.229-4.5-2.229-4.5z"/>
		</g>
		<path class="st35" d="M0-4.815c-0.075,0-0.135,0.06-0.135,0.135v2.745C-0.135-1.86-0.075-1.8,0-1.8s0.135-0.06,0.135-0.135V-4.68
			C0.135-4.755,0.075-4.815,0-4.815z"/>
		<path class="st35" d="M-2.545,2.443c-0.035,0-0.071,0.014-0.097,0.041c-0.052,0.054-0.05,0.139,0.003,0.191
			C-2.413,2.894-2.115,3.014-1.8,3.014h3.69c0.288,0,0.568-0.104,0.786-0.292c0.057-0.049,0.063-0.134,0.014-0.19
			C2.641,2.475,2.556,2.469,2.5,2.518C2.33,2.664,2.113,2.744,1.889,2.745H-1.8c-0.244,0-0.476-0.094-0.651-0.264
			C-2.478,2.456-2.511,2.443-2.545,2.443z"/>
		<path class="st35" d="M-2.545,3.343c-0.035,0-0.071,0.014-0.097,0.041c-0.052,0.054-0.05,0.139,0.003,0.191
			C-2.413,3.794-2.115,3.914-1.8,3.914h3.69c0.288,0,0.568-0.104,0.786-0.292c0.057-0.049,0.063-0.134,0.014-0.19
			C2.641,3.375,2.556,3.369,2.5,3.417C2.33,3.563,2.113,3.643,1.889,3.644H-1.8c-0.244,0-0.476-0.094-0.651-0.264
			C-2.478,3.356-2.511,3.343-2.545,3.343z"/>
		<g class="st33">
			<path class="st34" d="M0.855-4.815c-0.075,0-0.135,0.06-0.135,0.135s0.06,0.135,0.135,0.135c0.397,0,0.72,0.424,0.72,0.945
				C1.58-3.334,1.488-3.078,1.317-2.878L1.283-2.839l0.022,0.952c0,0.491,0.249,0.945,0.666,1.211
				c0.063,0.04,0.146,0.022,0.186-0.041s0.021-0.146-0.041-0.186C1.777-1.119,1.575-1.487,1.575-1.889l-0.02-0.853
				c0.193-0.244,0.295-0.547,0.29-0.859C1.845-4.27,1.401-4.815,0.855-4.815z"/>
		</g>
		<g class="st36">
			<path class="st34" d="M-0.45-4.815c-0.384,0-0.585,0.611-0.585,1.215C-1.042-3.314-0.99-3.031-0.882-2.763v0.873
				c0.008,0.524-0.207,1.028-0.587,1.386c-0.054,0.051-0.057,0.136-0.006,0.191c0.051,0.054,0.136,0.057,0.191,0.006
				c0.436-0.409,0.681-0.987,0.673-1.584v-0.925l-0.011-0.025c-0.101-0.24-0.149-0.494-0.143-0.754c0-0.615,0.208-0.948,0.315-0.948
				c0.075,0,0.135-0.06,0.135-0.135S-0.375-4.815-0.45-4.815z"/>
		</g>
		<g class="st33">
			<path class="st34" d="M-0.855-4.815c-0.546,0-0.99,0.545-0.99,1.215c-0.006,0.31,0.097,0.613,0.29,0.857l-0.02,0.85
				c0,0.405-0.203,0.773-0.541,0.989c-0.063,0.04-0.081,0.123-0.041,0.186s0.123,0.081,0.186,0.041
				c0.417-0.266,0.666-0.719,0.666-1.214l0.022-0.949l-0.034-0.039c-0.171-0.2-0.263-0.456-0.258-0.72
				c0-0.524,0.323-0.947,0.72-0.947c0.075,0,0.135-0.06,0.135-0.135S-0.78-4.815-0.855-4.815z"/>
		</g>
		<g class="st36">
			<path class="st34" d="M0.45-4.815c-0.075,0-0.135,0.06-0.135,0.135s0.06,0.135,0.135,0.135c0.107,0,0.315,0.334,0.315,0.945
				c0.006,0.264-0.042,0.518-0.142,0.758L0.612-2.817v0.927C0.604-1.294,0.849-0.716,1.286-0.307
				c0.054,0.051,0.14,0.048,0.191-0.006c0.051-0.054,0.048-0.14-0.006-0.191C1.09-0.861,0.875-1.365,0.883-1.888v-0.875
				c0.108-0.268,0.16-0.55,0.153-0.84C1.035-4.204,0.834-4.815,0.45-4.815z M0.882-2.79L0.882-2.79L0.882-2.79z"/>
		</g>
		<g class="st33">
			<path class="st34" d="M3.015-4.32c-0.001,0-0.001,0-0.002,0C2.938-4.319,2.879-4.258,2.88-4.183l0.017,1.305
				C2.885-2.416,3.084-1.977,3.442-1.677c0.057,0.048,0.142,0.04,0.19-0.017s0.04-0.142-0.017-0.19
				C3.32-2.131,3.157-2.493,3.166-2.877l-0.017-1.31C3.149-4.261,3.089-4.32,3.015-4.32z"/>
		</g>
		<g class="st33">
			<path class="st34" d="M2.229-4.5L2.229-4.5C2.153-4.499,2.094-4.438,2.094-4.364l0.021,1.935c0,0.493,0.249,0.947,0.666,1.212
				c0.063,0.04,0.146,0.022,0.186-0.041s0.021-0.146-0.041-0.186C2.587-1.66,2.385-2.028,2.385-2.43L2.364-4.366
				C2.363-4.44,2.303-4.5,2.229-4.5z"/>
		</g>
		<path d="M1.68-5.04h-3.359c-0.208,0-0.404,0.081-0.551,0.229L-2.471-4.57C-2.516-4.525-2.577-4.5-2.64-4.5h-0.51
			c-0.893,0-1.62,0.727-1.62,1.62v6.3c0,0.893,0.727,1.62,1.62,1.62h6.3c0.893,0,1.62-0.727,1.62-1.62v-6.3
			c0-0.893-0.727-1.62-1.62-1.62H2.641c-0.064,0-0.124-0.025-0.169-0.07L2.231-4.811C2.083-4.959,1.888-5.04,1.68-5.04z M-3.15,4.5
			c-0.596,0-1.08-0.484-1.08-1.08v-6.3c0-0.596,0.484-1.08,1.08-1.08h0.509c0.208,0,0.404-0.081,0.551-0.229l0.241-0.241
			C-1.804-4.475-1.743-4.5-1.68-4.5h3.359c0.064,0,0.124,0.025,0.169,0.07l0.241,0.241C2.236-4.042,2.432-3.961,2.64-3.96h0.51
			c0.596,0,1.08,0.484,1.08,1.08v6.3c0,0.596-0.484,1.08-1.08,1.08H-3.15z"/>
		<g>
			<path class="st37" d="M-2.745,0.675c0,0,0.463,0.436,1.08,0.436c0.557,0,1.08-0.436,1.08-0.436
				c-0.339-0.157-0.707-0.242-1.08-0.249C-2.192,0.426-2.745,0.675-2.745,0.675z"/>
			<path d="M-1.662,0.291c-0.552,0-1.115,0.25-1.138,0.261c-0.041,0.019-0.07,0.056-0.078,0.101
				c-0.007,0.044,0.008,0.09,0.041,0.121c0.02,0.019,0.509,0.472,1.173,0.472c0.599,0,1.144-0.448,1.166-0.467
				c0.036-0.03,0.054-0.075,0.047-0.121c-0.006-0.046-0.035-0.086-0.077-0.105C-0.886,0.387-1.268,0.299-1.662,0.291z M-2.47,0.714
				C-2.269,0.646-1.96,0.56-1.665,0.56c0.274,0.006,0.542,0.055,0.8,0.146c-0.189,0.118-0.492,0.269-0.8,0.269
				C-2.004,0.976-2.294,0.83-2.47,0.714z"/>
		</g>
		<g>
			<path class="st37" d="M2.745,0.675c0,0-0.463,0.436-1.08,0.436c-0.557,0-1.08-0.436-1.08-0.436
				c0.339-0.157,0.707-0.242,1.08-0.249C2.192,0.426,2.745,0.675,2.745,0.675z"/>
			<path d="M1.665,0.291C1.268,0.299,0.886,0.387,0.528,0.553C0.486,0.572,0.457,0.612,0.451,0.658S0.463,0.75,0.498,0.779
				c0.023,0.019,0.567,0.467,1.166,0.467c0.663,0,1.152-0.453,1.173-0.472C2.87,0.743,2.885,0.698,2.878,0.653
				C2.871,0.609,2.841,0.571,2.8,0.552C2.777,0.541,2.214,0.291,1.665,0.291z M0.865,0.707c0.258-0.091,0.527-0.14,0.803-0.146
				c0.293,0,0.602,0.085,0.802,0.153C2.293,0.829,2.002,0.975,1.665,0.975C1.357,0.976,1.054,0.824,0.865,0.707z"/>
		</g>
		<circle class="st38" cx="-1.664" cy="0.817" r="0.293"/>
		<circle class="st38" cx="1.664" cy="0.817" r="0.293"/>
		<path d="M-1.662,0.291c-0.552,0-1.115,0.25-1.138,0.261c-0.041,0.019-0.07,0.056-0.078,0.101c-0.007,0.044,0.008,0.09,0.041,0.121
			c0.02,0.019,0.509,0.472,1.173,0.472c0.599,0,1.144-0.448,1.166-0.467c0.036-0.03,0.054-0.075,0.047-0.121
			c-0.006-0.046-0.035-0.086-0.077-0.105C-0.886,0.387-1.268,0.299-1.662,0.291z M-2.47,0.714C-2.269,0.646-1.96,0.56-1.665,0.56
			c0.274,0.006,0.542,0.055,0.8,0.146c-0.189,0.118-0.492,0.269-0.8,0.269C-2.004,0.976-2.294,0.83-2.47,0.714z"/>
		<path d="M1.665,0.291C1.268,0.299,0.886,0.387,0.528,0.553C0.486,0.572,0.457,0.612,0.451,0.658S0.463,0.75,0.498,0.779
			c0.023,0.019,0.567,0.467,1.166,0.467c0.663,0,1.152-0.453,1.173-0.472C2.87,0.743,2.885,0.698,2.878,0.653
			C2.871,0.609,2.841,0.571,2.8,0.552C2.777,0.541,2.214,0.291,1.665,0.291z M0.865,0.707c0.258-0.091,0.527-0.14,0.803-0.146
			c0.293,0,0.602,0.085,0.802,0.153C2.293,0.829,2.002,0.975,1.665,0.975C1.357,0.976,1.054,0.824,0.865,0.707z"/>
		<path class="st39" d="M-0.63,1.08c-0.034,0-0.068,0.01-0.099,0.03c-0.235,0.154-0.939,0.555-1.376,0.555
			c-0.5,0-0.673-0.104-0.675-0.105c-0.081-0.058-0.191-0.038-0.249,0.043c-0.058,0.081-0.037,0.195,0.043,0.253
			c0.039,0.028,0.266,0.169,0.88,0.169c0.634,0,1.536-0.59,1.574-0.615c0.083-0.055,0.106-0.166,0.051-0.249
			C-0.514,1.108-0.572,1.08-0.63,1.08z"/>
		<path class="st39" d="M0.63,1.08c-0.059,0-0.116,0.028-0.15,0.081C0.425,1.244,0.448,1.356,0.531,1.41
			c0.038,0.025,0.94,0.615,1.574,0.615c0.615,0,0.841-0.141,0.88-0.169c0.081-0.058,0.099-0.171,0.041-0.251
			C2.969,1.526,2.86,1.507,2.779,1.561C2.768,1.568,2.59,1.665,2.105,1.665c-0.438,0-1.142-0.401-1.376-0.555
			C0.699,1.09,0.664,1.08,0.63,1.08z"/>
		<path d="M1.35-2.565h-2.52c-0.124,0-0.225,0.101-0.225,0.225c0,0.124,0.101,0.225,0.225,0.225h2.52
			c0.124,0,0.225-0.101,0.225-0.225C1.575-2.464,1.474-2.565,1.35-2.565z"/>
		<path d="M0-1.575c-0.002,0-0.004,0-0.006,0c-0.253,0.008-0.5,0.101-0.696,0.261C-0.779-1.251-0.79-1.138-0.727-1.061
			s0.176,0.088,0.253,0.025c0.135-0.11,0.305-0.174,0.48-0.18C0.105-1.219,0.183-1.302,0.18-1.402C0.177-1.498,0.097-1.575,0-1.575z
			"/>
		<path d="M0-1.575c-0.097,0-0.177,0.077-0.18,0.174c-0.003,0.099,0.075,0.182,0.174,0.186C0.15-1.21,0.304-1.158,0.431-1.068
			c-0.023,0.042-0.074,0.1-0.12,0.123C0.072-0.825,0.072-0.354,0.114,0.02c0.011,0.099,0.102,0.169,0.199,0.159
			c0.099-0.011,0.17-0.1,0.159-0.199C0.444-0.272,0.453-0.555,0.491-0.633c0.141-0.079,0.296-0.261,0.311-0.434
			c0.009-0.102-0.03-0.194-0.107-0.252c-0.19-0.155-0.437-0.248-0.69-0.255C0.004-1.575,0.002-1.575,0-1.575z M0.474-1.036
			C0.473-1.037,0.472-1.038,0.47-1.039C0.471-1.038,0.473-1.037,0.474-1.036z M0.496-0.642L0.496-0.642L0.496-0.642z"/>
		<path d="M0-1.575c-0.002,0-0.004,0-0.006,0c-0.253,0.008-0.5,0.1-0.696,0.26C-0.774-1.262-0.813-1.17-0.804-1.068
			c0.016,0.173,0.17,0.355,0.311,0.434c0.038,0.078,0.048,0.361,0.019,0.613c-0.011,0.099,0.06,0.188,0.159,0.199
			c0.097,0.011,0.188-0.06,0.199-0.159c0.042-0.374,0.042-0.846-0.196-0.965c-0.046-0.023-0.097-0.081-0.12-0.123
			c0.131-0.092,0.282-0.142,0.437-0.147c0.099-0.003,0.177-0.086,0.174-0.186C0.177-1.498,0.097-1.575,0-1.575z M-0.48-1.031
			c0.002-0.001,0.003-0.003,0.005-0.004C-0.476-1.034-0.478-1.033-0.48-1.031z"/>
		<path d="M0-1.575c-0.097,0-0.177,0.077-0.18,0.174c-0.003,0.099,0.075,0.182,0.174,0.186c0.174,0.006,0.345,0.07,0.48,0.18
			c0.077,0.063,0.19,0.052,0.253-0.025s0.052-0.19-0.025-0.253c-0.196-0.16-0.443-0.253-0.696-0.261
			C0.004-1.575,0.002-1.575,0-1.575z"/>
	</g>
</symbol>
<g mask="url(#fade)">
	<use xlink:href="#Central_Perk"  width="10.705" height="9.54" id="XMLID_1_" x="-5.353" y="-4.77" transform="matrix(1 0 0 -1 6.9799 7)" style="overflow:visible;"/>
	<use xlink:href="#Ramen"  width="9.54" height="9.54" x="-4.77" y="-4.77" transform="matrix(1 0 0 -1 47 7)" style="overflow:visible;"/>
	<use xlink:href="#Strawberry"  width="9.539" height="11.368" x="-4.769" y="-5.684" transform="matrix(1 0 0 -1 56.9995 6.0861)" style="overflow:visible;"/>
	<use xlink:href="#Central_Perk"  width="10.705" height="9.54" id="XMLID_2_" x="-5.353" y="-4.77" transform="matrix(1 0 0 -1 16.98 7)" style="overflow:visible;"/>
	<use xlink:href="#Central_Perk"  width="10.705" height="9.54" id="XMLID_3_" x="-5.353" y="-4.77" transform="matrix(1 0 0 -1 26.98 7)" style="overflow:visible;"/>
	<use xlink:href="#Central_Perk"  width="10.705" height="9.54" id="XMLID_4_" x="-5.353" y="-4.77" transform="matrix(1 0 0 -1 36.98 7)" style="overflow:visible;"/>
	<use xlink:href="#Burger"  width="10.08" height="9.54" x="-5.04" y="-4.77" transform="matrix(1 0 0 -1 97 7)" style="overflow:visible;"/>
	<use xlink:href="#Burger"  width="10.08" height="9.54" x="-5.04" y="-4.77" transform="matrix(1 0 0 -1 107 7)" style="overflow:visible;"/>
	<use xlink:href="#Ramen"  width="9.54" height="9.54" x="-4.77" y="-4.77" transform="matrix(1 0 0 -1 77 7)" style="overflow:visible;"/>
	<use xlink:href="#Ramen"  width="9.54" height="9.54" x="-4.77" y="-4.77" transform="matrix(1 0 0 -1 87 7)" style="overflow:visible;"/>
	<use xlink:href="#Stitch"  width="10.068" height="11.328" x="-5.034" y="-5.664" transform="matrix(1 0 0 -1 117 6.1059)" style="overflow:visible;"/>
	<use xlink:href="#Strawberry"  width="9.539" height="11.368" x="-4.769" y="-5.684" transform="matrix(1 0 0 -1 66.9995 6.0861)" style="overflow:visible;"/>
	<use xlink:href="#Thanos"  width="9.54" height="10.08" id="XMLID_20_" x="-4.77" y="-5.04" transform="matrix(1 0 0 -1 147 7.27)" style="overflow:visible;"/>
	<use xlink:href="#Thanos"  width="9.54" height="10.08" id="XMLID_22_" x="-4.77" y="-5.04" transform="matrix(1 0 0 -1 137 7.27)" style="overflow:visible;"/>
	<use xlink:href="#Thanos"  width="9.54" height="10.08" id="XMLID_21_" x="-4.77" y="-5.04" transform="matrix(1 0 0 -1 127 7.27)" style="overflow:visible;"/>
	<use xlink:href="#Burger"  width="10.08" height="9.54" x="-5.04" y="-4.77" transform="matrix(1 0 0 -1 7 17)" style="overflow:visible;"/>
	<use xlink:href="#Central_Perk"  width="10.705" height="9.54" id="XMLID_5_" x="-5.353" y="-4.77" transform="matrix(1 0 0 -1 146.98 17)" style="overflow:visible;"/>
	<use xlink:href="#Burger"  width="10.08" height="9.54" x="-5.04" y="-4.77" transform="matrix(1 0 0 -1 17 17)" style="overflow:visible;"/>
	<use xlink:href="#Burger"  width="10.08" height="9.54" x="-5.04" y="-4.77" transform="matrix(1 0 0 -1 97 17)" style="overflow:visible;"/>
	<use xlink:href="#Burger"  width="10.08" height="9.54" x="-5.04" y="-4.77" transform="matrix(1 0 0 -1 107 17)" style="overflow:visible;"/>
	<use xlink:href="#Ramen"  width="9.54" height="9.54" x="-4.77" y="-4.77" transform="matrix(1 0 0 -1 47 17)" style="overflow:visible;"/>
	<use xlink:href="#Ramen"  width="9.54" height="9.54" x="-4.77" y="-4.77" transform="matrix(1 0 0 -1 37 17)" style="overflow:visible;"/>
	<use xlink:href="#Ramen"  width="9.54" height="9.54" x="-4.77" y="-4.77" transform="matrix(1 0 0 -1 27 17)" style="overflow:visible;"/>
	<use xlink:href="#Ramen"  width="9.54" height="9.54" x="-4.77" y="-4.77" transform="matrix(1 0 0 -1 87 17)" style="overflow:visible;"/>
	<use xlink:href="#Stitch"  width="10.068" height="11.328" x="-5.034" y="-5.664" transform="matrix(1 0 0 -1 57 16.1059)" style="overflow:visible;"/>
	<use xlink:href="#Stitch"  width="10.068" height="11.328" x="-5.034" y="-5.664" transform="matrix(1 0 0 -1 117 16.1059)" style="overflow:visible;"/>
	<use xlink:href="#Strawberry"  width="9.539" height="11.368" x="-4.769" y="-5.684" transform="matrix(1 0 0 -1 66.9995 16.0861)" style="overflow:visible;"/>
	<use xlink:href="#Strawberry"  width="9.539" height="11.368" x="-4.769" y="-5.684" transform="matrix(1 0 0 -1 76.9995 16.0861)" style="overflow:visible;"/>
	<use xlink:href="#Pear"  width="9.54" height="11.368" x="-4.77" y="-5.684" transform="matrix(1 0 0 -1 127 16.0862)" style="overflow:visible;"/>
	<use xlink:href="#Thanos"  width="9.54" height="10.08" id="XMLID_19_" x="-4.77" y="-5.04" transform="matrix(1 0 0 -1 137 17.27)" style="overflow:visible;"/>
	<use xlink:href="#Pear"  width="9.54" height="11.368" x="-4.77" y="-5.684" transform="matrix(1 0 0 -1 27 26.0861)" style="overflow:visible;"/>
	<use xlink:href="#Central_Perk"  width="10.705" height="9.54" id="XMLID_6_" x="-5.353" y="-4.77" transform="matrix(1 0 0 -1 146.98 27)" style="overflow:visible;"/>
	<use xlink:href="#Burger"  width="10.08" height="9.54" x="-5.04" y="-4.77" transform="matrix(1 0 0 -1 7 27)" style="overflow:visible;"/>
	<use xlink:href="#Burger"  width="10.08" height="9.54" x="-5.04" y="-4.77" transform="matrix(1 0 0 -1 17 27)" style="overflow:visible;"/>
	<use xlink:href="#Ramen"  width="9.54" height="9.54" x="-4.77" y="-4.77" transform="matrix(1 0 0 -1 87 27)" style="overflow:visible;"/>
	<use xlink:href="#Stitch"  width="10.068" height="11.328" x="-5.034" y="-5.664" transform="matrix(1 0 0 -1 57 26.1059)" style="overflow:visible;"/>
	<use xlink:href="#Stitch"  width="10.068" height="11.328" x="-5.034" y="-5.664" transform="matrix(1 0 0 -1 67 26.1059)" style="overflow:visible;"/>
	<use xlink:href="#Stitch"  width="10.068" height="11.328" x="-5.034" y="-5.664" transform="matrix(1 0 0 -1 77 26.1059)" style="overflow:visible;"/>
	<use xlink:href="#Stitch"  width="10.068" height="11.328" x="-5.034" y="-5.664" transform="matrix(1 0 0 -1 107 26.106)" style="overflow:visible;"/>
	<use xlink:href="#Stitch"  width="10.068" height="11.328" x="-5.034" y="-5.664" transform="matrix(1 0 0 -1 117 26.106)" style="overflow:visible;"/>
	<use xlink:href="#Strawberry"  width="9.539" height="11.368" x="-4.769" y="-5.684" transform="matrix(1 0 0 -1 46.9995 26.0862)" style="overflow:visible;"/>
	<use xlink:href="#Pear"  width="9.54" height="11.368" x="-4.77" y="-5.684" transform="matrix(1 0 0 -1 37 26.0861)" style="overflow:visible;"/>
	<use xlink:href="#Pear"  width="9.54" height="11.368" x="-4.77" y="-5.684" transform="matrix(1 0 0 -1 137 26.0861)" style="overflow:visible;"/>
	<use xlink:href="#Pear"  width="9.54" height="11.368" x="-4.77" y="-5.684" transform="matrix(1 0 0 -1 127 26.0861)" style="overflow:visible;"/>
	<use xlink:href="#Thanos"  width="9.54" height="10.08" id="XMLID_24_" x="-4.77" y="-5.04" transform="matrix(1 0 0 -1 97 27.27)" style="overflow:visible;"/>
	<use xlink:href="#Stitch"  width="10.068" height="11.328" x="-5.034" y="-5.664" transform="matrix(1 0 0 -1 7 36.1059)" style="overflow:visible;"/>
	<use xlink:href="#Thanos"  width="9.54" height="10.08" id="XMLID_13_" x="-4.77" y="-5.04" transform="matrix(1 0 0 -1 57 37.27)" style="overflow:visible;"/>
	<use xlink:href="#Central_Perk"  width="10.705" height="9.54" id="XMLID_7_" x="-5.353" y="-4.77" transform="matrix(1 0 0 -1 146.98 37)" style="overflow:visible;"/>
	<use xlink:href="#Burger"  width="10.08" height="9.54" x="-5.04" y="-4.77" transform="matrix(1 0 0 -1 67 37)" style="overflow:visible;"/>
	<use xlink:href="#Burger"  width="10.08" height="9.54" x="-5.04" y="-4.77" transform="matrix(1 0 0 -1 77 37)" style="overflow:visible;"/>
	<use xlink:href="#Strawberry"  width="9.539" height="11.368" x="-4.769" y="-5.684" transform="matrix(1 0 0 -1 116.9995 36.0861)" style="overflow:visible;"/>
	<use xlink:href="#Strawberry"  width="9.539" height="11.368" x="-4.769" y="-5.684" transform="matrix(1 0 0 -1 126.9995 36.0861)" style="overflow:visible;"/>
	<use xlink:href="#Strawberry"  width="9.539" height="11.368" x="-4.769" y="-5.684" transform="matrix(1 0 0 -1 36.9995 36.0861)" style="overflow:visible;"/>
	<use xlink:href="#Strawberry"  width="9.539" height="11.368" x="-4.769" y="-5.684" transform="matrix(1 0 0 -1 46.9995 36.0862)" style="overflow:visible;"/>
	<use xlink:href="#Pear"  width="9.54" height="11.368" x="-4.77" y="-5.684" transform="matrix(1 0 0 -1 17 36.0861)" style="overflow:visible;"/>
	<use xlink:href="#Pear"  width="9.54" height="11.368" x="-4.77" y="-5.684" transform="matrix(1 0 0 -1 27 36.0861)" style="overflow:visible;"/>
	<use xlink:href="#Pear"  width="9.54" height="11.368" x="-4.77" y="-5.684" transform="matrix(1 0 0 -1 137 36.0861)" style="overflow:visible;"/>
	<use xlink:href="#Thanos"  width="9.54" height="10.08" id="XMLID_18_" x="-4.77" y="-5.04" transform="matrix(1 0 0 -1 97 37.27)" style="overflow:visible;"/>
	<use xlink:href="#Thanos"  width="9.54" height="10.08" id="XMLID_17_" x="-4.77" y="-5.04" transform="matrix(1 0 0 -1 87 37.27)" style="overflow:visible;"/>
	<use xlink:href="#Thanos"  width="9.54" height="10.08" id="XMLID_23_" x="-4.77" y="-5.04" transform="matrix(1 0 0 -1 107 37.27)" style="overflow:visible;"/>
	<use xlink:href="#Central_Perk"  width="10.705" height="9.54" id="XMLID_8_" x="-5.353" y="-4.77" transform="matrix(1 0 0 -1 146.98 47)" style="overflow:visible;"/>
	<use xlink:href="#Burger"  width="10.08" height="9.54" x="-5.04" y="-4.77" transform="matrix(1 0 0 -1 67 47)" style="overflow:visible;"/>
	<use xlink:href="#Burger"  width="10.08" height="9.54" x="-5.04" y="-4.77" transform="matrix(1 0 0 -1 77 47)" style="overflow:visible;"/>
	<use xlink:href="#Ramen"  width="9.54" height="9.54" x="-4.77" y="-4.77" transform="matrix(1 0 0 -1 97 47)" style="overflow:visible;"/>
	<use xlink:href="#Ramen"  width="9.54" height="9.54" x="-4.77" y="-4.77" transform="matrix(1 0 0 -1 107 47)" style="overflow:visible;"/>
	<use xlink:href="#Ramen"  width="9.54" height="9.54" x="-4.77" y="-4.77" transform="matrix(1 0 0 -1 117 47)" style="overflow:visible;"/>
	<use xlink:href="#Stitch"  width="10.068" height="11.328" x="-5.034" y="-5.664" transform="matrix(1 0 0 -1 7 46.1059)" style="overflow:visible;"/>
	<use xlink:href="#Stitch"  width="10.068" height="11.328" x="-5.034" y="-5.664" transform="matrix(1 0 0 -1 17 46.1059)" style="overflow:visible;"/>
	<use xlink:href="#Stitch"  width="10.068" height="11.328" x="-5.034" y="-5.664" transform="matrix(1 0 0 -1 27 46.1059)" style="overflow:visible;"/>
	<use xlink:href="#Stitch"  width="10.068" height="11.328" x="-5.034" y="-5.664" transform="matrix(1 0 0 -1 87 46.1059)" style="overflow:visible;"/>
	<use xlink:href="#Strawberry"  width="9.539" height="11.368" x="-4.769" y="-5.684" transform="matrix(1 0 0 -1 126.9995 46.0861)" style="overflow:visible;"/>
	<use xlink:href="#Strawberry"  width="9.539" height="11.368" x="-4.769" y="-5.684" transform="matrix(1 0 0 -1 136.9995 46.0861)" style="overflow:visible;"/>
	<use xlink:href="#Strawberry"  width="9.539" height="11.368" x="-4.769" y="-5.684" transform="matrix(1 0 0 -1 36.9995 46.0861)" style="overflow:visible;"/>
	<use xlink:href="#Thanos"  width="9.54" height="10.08" id="XMLID_14_" x="-4.77" y="-5.04" transform="matrix(1 0 0 -1 57 47.27)" style="overflow:visible;"/>
	<use xlink:href="#Thanos"  width="9.54" height="10.08" id="XMLID_15_" x="-4.77" y="-5.04" transform="matrix(1 0 0 -1 47 47.27)" style="overflow:visible;"/>
	<use xlink:href="#Ramen"  width="9.54" height="9.54" x="-4.77" y="-4.77" transform="matrix(1 0 0 -1 97 57)" style="overflow:visible;"/>
	<use xlink:href="#Stitch"  width="10.068" height="11.328" x="-5.034" y="-5.664" transform="matrix(1 0 0 -1 87 56.1059)" style="overflow:visible;"/>
	<use xlink:href="#Pear"  width="9.54" height="11.368" x="-4.77" y="-5.684" transform="matrix(1 0 0 -1 67 56.0861)" style="overflow:visible;"/>
	<use xlink:href="#Pear"  width="9.54" height="11.368" x="-4.77" y="-5.684" transform="matrix(1 0 0 -1 77 56.0861)" style="overflow:visible;"/>
	<use xlink:href="#Thanos"  width="9.54" height="10.08" id="XMLID_16_" x="-4.77" y="-5.04" transform="matrix(1 0 0 -1 57 57.27)" style="overflow:visible;"/>
	<use xlink:href="#Central_Perk"  width="10.705" height="9.54" id="XMLID_9_" x="-5.353" y="-4.77" transform="matrix(1 0 0 -1 96.98 67)" style="overflow:visible;"/>
	<use xlink:href="#Stitch"  width="10.068" height="11.328" x="-5.034" y="-5.664" transform="matrix(1 0 0 -1 77 66.1059)" style="overflow:visible;"/>
	<use xlink:href="#Stitch"  width="10.068" height="11.328" x="-5.034" y="-5.664" transform="matrix(1 0 0 -1 87 66.1059)" style="overflow:visible;"/>
	<use xlink:href="#Pear"  width="9.54" height="11.368" x="-4.77" y="-5.684" transform="matrix(1 0 0 -1 57 66.0861)" style="overflow:visible;"/>
	<use xlink:href="#Pear"  width="9.54" height="11.368" x="-4.77" y="-5.684" transform="matrix(1 0 0 -1 67 66.0861)" style="overflow:visible;"/>
	<use xlink:href="#Central_Perk"  width="10.705" height="9.54" id="XMLID_10_" x="-5.353" y="-4.77" transform="matrix(1 0 0 -1 96.98 77)" style="overflow:visible;"/>
	<use xlink:href="#Ramen"  width="9.54" height="9.54" x="-4.77" y="-4.77" transform="matrix(1 0 0 -1 77 77)" style="overflow:visible;"/>
	<use xlink:href="#Ramen"  width="9.54" height="9.54" x="-4.77" y="-4.77" transform="matrix(1 0 0 -1 87 77)" style="overflow:visible;"/>
	<use xlink:href="#Stitch"  width="10.068" height="11.328" x="-5.034" y="-5.664" transform="matrix(1 0 0 -1 57 76.1059)" style="overflow:visible;"/>
	<use xlink:href="#Stitch"  width="10.068" height="11.328" x="-5.034" y="-5.664" transform="matrix(1 0 0 -1 67 76.1059)" style="overflow:visible;"/>
	<use xlink:href="#Central_Perk"  width="10.705" height="9.54" id="XMLID_11_" x="-5.353" y="-4.77" transform="matrix(1 0 0 -1 96.98 87)" style="overflow:visible;"/>
	<use xlink:href="#Burger"  width="10.08" height="9.54" x="-5.04" y="-4.77" transform="matrix(1 0 0 -1 67 87)" style="overflow:visible;"/>
	<use xlink:href="#Burger"  width="10.08" height="9.54" x="-5.04" y="-4.77" transform="matrix(1 0 0 -1 77 87)" style="overflow:visible;"/>
	<use xlink:href="#Ramen"  width="9.54" height="9.54" x="-4.77" y="-4.77" transform="matrix(1 0 0 -1 87 87)" style="overflow:visible;"/>
	<use xlink:href="#Stitch"  width="10.068" height="11.328" x="-5.034" y="-5.664" transform="matrix(1 0 0 -1 57 86.1059)" style="overflow:visible;"/>
	<use xlink:href="#Central_Perk"  width="10.705" height="9.54" id="XMLID_12_" x="-5.353" y="-4.77" transform="matrix(1 0 0 -1 96.98 97)" style="overflow:visible;"/>
	<use xlink:href="#Burger"  width="10.08" height="9.54" x="-5.04" y="-4.77" transform="matrix(1 0 0 -1 67 97)" style="overflow:visible;"/>
	<use xlink:href="#Burger"  width="10.08" height="9.54" x="-5.04" y="-4.77" transform="matrix(1 0 0 -1 77 97)" style="overflow:visible;"/>
	<use xlink:href="#Ramen"  width="9.54" height="9.54" x="-4.77" y="-4.77" transform="matrix(1 0 0 -1 87 97)" style="overflow:visible;"/>
	<use xlink:href="#Stitch"  width="10.068" height="11.328" x="-5.034" y="-5.664" transform="matrix(1 0 0 -1 57 96.1059)" style="overflow:visible;"/>
</g>
<g>
	<path class="st13" d="M4.964,18.753c-0.237-0.372-0.457-0.879-0.66-1.522C4.101,16.588,4,15.91,4,15.2
		c0-1.319,0.295-2.267,0.888-2.842c0.591-0.575,1.362-0.863,2.31-0.863h22.128c0.236,0.372,0.457,0.88,0.66,1.522
		c0.203,0.643,0.305,1.319,0.305,2.03c0,1.32-0.297,2.268-0.889,2.842c-0.592,0.576-1.362,0.863-2.31,0.863h-5.633V42.2
		c-0.372,0.101-0.956,0.203-1.751,0.304s-1.582,0.152-2.36,0.152s-1.464-0.06-2.055-0.178c-0.592-0.118-1.091-0.33-1.497-0.634
		c-0.407-0.305-0.71-0.728-0.913-1.269c-0.204-0.541-0.305-1.251-0.305-2.132v-19.69H4.964z"/>
	<path class="st13" d="M32.57,16.368c0-1.455,0.423-2.605,1.27-3.451c0.845-0.845,1.995-1.269,3.45-1.269h16.749
		c0.236,0.373,0.448,0.863,0.634,1.472c0.186,0.609,0.279,1.252,0.279,1.929c0,1.287-0.279,2.2-0.837,2.741
		c-0.559,0.541-1.294,0.812-2.209,0.812H41.199v4.72h11.419c0.237,0.372,0.449,0.855,0.635,1.446
		c0.186,0.592,0.279,1.227,0.279,1.903c0,1.286-0.272,2.2-0.812,2.741c-0.542,0.541-1.269,0.812-2.183,0.812h-9.338v5.329h13.044
		c0.236,0.373,0.448,0.863,0.634,1.472c0.186,0.609,0.279,1.252,0.279,1.929c0,1.286-0.279,2.208-0.837,2.766
		c-0.558,0.559-1.294,0.838-2.208,0.838H37.29c-1.455,0-2.606-0.423-3.45-1.269c-0.847-0.845-1.27-1.996-1.27-3.451V16.368z"/>
	<path class="st13" d="M56.929,18.753c-0.237-0.372-0.457-0.879-0.66-1.522c-0.203-0.642-0.305-1.32-0.305-2.03
		c0-1.319,0.296-2.267,0.889-2.842c0.591-0.575,1.361-0.863,2.308-0.863H81.29c0.236,0.372,0.456,0.88,0.66,1.522
		c0.203,0.643,0.304,1.319,0.304,2.03c0,1.32-0.296,2.268-0.888,2.842c-0.592,0.576-1.363,0.863-2.31,0.863h-5.633v23.448
		c-0.373,0.101-0.956,0.203-1.751,0.304s-1.582,0.152-2.36,0.152c-0.779,0-1.464-0.06-2.056-0.178s-1.09-0.33-1.497-0.634
		c-0.406-0.305-0.71-0.728-0.913-1.269s-0.305-1.251-0.305-2.132V18.753H56.929z"/>
	<path class="st13" d="M93.366,32.456v9.745c-0.373,0.101-0.956,0.203-1.751,0.304s-1.582,0.152-2.36,0.152
		c-0.779,0-1.464-0.06-2.055-0.178c-0.592-0.118-1.084-0.33-1.472-0.634c-0.389-0.305-0.685-0.728-0.888-1.269
		s-0.305-1.251-0.305-2.132V14.54c0-0.711,0.194-1.26,0.584-1.65c0.388-0.388,0.921-0.702,1.599-0.939
		c1.149-0.406,2.487-0.702,4.009-0.888c1.522-0.186,3.147-0.28,4.872-0.28c4.668,0,8.187,0.982,10.556,2.944
		c2.369,1.963,3.553,4.619,3.553,7.969c0,2.098-0.542,3.891-1.625,5.38s-2.369,2.639-3.857,3.451
		c1.218,1.659,2.419,3.215,3.604,4.669c1.184,1.455,2.114,2.775,2.791,3.959c-0.339,1.185-0.956,2.09-1.852,2.715
		c-0.897,0.626-1.904,0.939-3.02,0.939c-0.745,0-1.388-0.085-1.929-0.254c-0.542-0.169-1.015-0.406-1.421-0.71
		c-0.407-0.305-0.779-0.677-1.117-1.117c-0.338-0.439-0.66-0.914-0.964-1.421l-4.264-6.851
		C96.054,32.456,93.366,32.456,93.366,32.456z M96.564,25.706c1.286,0,2.301-0.33,3.046-0.989c0.744-0.66,1.116-1.632,1.116-2.919
		c0-1.286-0.414-2.259-1.244-2.918c-0.83-0.66-2.14-0.99-3.933-0.99c-0.508,0-0.913,0.018-1.218,0.051
		c-0.304,0.034-0.643,0.085-1.015,0.152v7.613C93.316,25.706,96.564,25.706,96.564,25.706z"/>
	<path class="st13" d="M122.293,42.201c-0.372,0.101-0.956,0.203-1.751,0.304s-1.582,0.152-2.36,0.152s-1.464-0.06-2.055-0.178
		c-0.592-0.118-1.091-0.33-1.497-0.634c-0.406-0.305-0.71-0.728-0.913-1.269s-0.305-1.251-0.305-2.132V11.647
		c0.372-0.067,0.965-0.16,1.776-0.279c0.812-0.118,1.59-0.178,2.335-0.178c0.777,0,1.463,0.06,2.055,0.178
		c0.591,0.119,1.091,0.33,1.497,0.634c0.406,0.305,0.71,0.728,0.913,1.269s0.305,1.252,0.305,2.132V42.201z"/>
	<path class="st13" d="M135.586,30.172c-1.49-0.507-2.842-1.023-4.06-1.548c-1.218-0.524-2.268-1.159-3.147-1.903
		c-0.88-0.744-1.566-1.632-2.056-2.665c-0.49-1.032-0.735-2.292-0.735-3.781c0-2.876,1.108-5.177,3.324-6.903
		s5.321-2.589,9.313-2.589c1.455,0,2.809,0.102,4.061,0.305c1.251,0.203,2.326,0.516,3.223,0.939
		c0.896,0.423,1.598,0.964,2.106,1.624s0.762,1.43,0.762,2.31c0,0.88-0.203,1.633-0.61,2.259c-0.406,0.626-0.897,1.16-1.471,1.599
		c-0.745-0.473-1.743-0.888-2.995-1.243c-1.251-0.355-2.622-0.533-4.11-0.533c-1.523,0-2.639,0.211-3.349,0.634
		s-1.067,0.957-1.067,1.599c0,0.507,0.22,0.922,0.66,1.243c0.44,0.322,1.099,0.618,1.98,0.888l2.689,0.863
		c3.18,1.015,5.625,2.31,7.334,3.883c1.707,1.573,2.563,3.714,2.563,6.42c0,2.877-1.134,5.202-3.401,6.979
		c-2.267,1.776-5.6,2.664-9.998,2.664c-1.557,0-3.003-0.127-4.339-0.38c-1.337-0.254-2.505-0.626-3.503-1.117
		c-0.998-0.49-1.776-1.099-2.334-1.827c-0.558-0.727-0.837-1.565-0.837-2.512c0-0.981,0.287-1.819,0.863-2.512
		c0.574-0.693,1.2-1.226,1.877-1.599c0.948,0.745,2.107,1.388,3.477,1.929c1.37,0.542,2.868,0.812,4.491,0.812
		c1.658,0,2.825-0.253,3.502-0.761c0.677-0.508,1.015-1.099,1.015-1.777c0-0.676-0.272-1.192-0.811-1.548
		c-0.542-0.356-1.304-0.702-2.285-1.04L135.586,30.172z"/>
</g>
</svg>
