<?xml version="1.0" encoding="utf-8"?>
<!-- Generator: Adobe Illustrator 22.1.0, SVG Export Plug-In . SVG Version: 6.00 Build 0)  -->
<svg version="1.1" id="Layer_1" xmlns="http://www.w3.org/2000/svg" xmlns:xlink="http://www.w3.org/1999/xlink" x="0px" y="0px"
	 viewBox="0 0 150 150" style="enable-background:new 0 0 150 150;" xml:space="preserve">
<style type="text/css">
	.st0{fill:#FFFFFF;}
</style>
<title>L</title>
<path class="st0" d="M133.8,80.6c-1.5-3-3.3-5.9-5.3-8.6c-1.1-1.5-2.3-2.9-3.5-4.2V57.7c0.4-1.2,0.6-2.8,0-4.5V40
	c0-8.3-6.7-15-15-15H40c-8.3,0-15,6.7-15,15v12.4c-1.3,2.6-0.6,4.9,0,6.3v8.7c-1.4,1.5-2.7,3-3.9,4.6c-2,2.7-3.8,5.6-5.3,8.6
	c-0.7,1.3-0.6,2.9,0.1,4.2c0.8,1.3,2.1,2.1,3.6,2.2l5.4,0.4V110c0,8.3,6.7,15,15,15h70c8.3,0,15-6.7,15-15V87.5l5-0.3
	c1.5-0.1,2.9-0.9,3.6-2.2C134.4,83.6,134.4,82,133.8,80.6z"/>
</svg>
