<?xml version="1.0" encoding="utf-8"?>
<!-- Generator: Adobe Illustrator 23.0.6, SVG Export Plug-In . SVG Version: 6.00 Build 0)  -->
<svg version="1.1" id="Layer_1" xmlns="http://www.w3.org/2000/svg" xmlns:xlink="http://www.w3.org/1999/xlink" x="0px" y="0px"
	 viewBox="0 0 150 150" style="enable-background:new 0 0 150 150;" xml:space="preserve">
<style type="text/css">
	.st0{fill:#FFFFFF;}
</style>
<title>L</title>
<path class="st0" d="M127.2,32.5c-2.6-4.5-6.4-6-8.7-6.4c0.8-1.6,1.4-3.3,1.6-5.3c0-0.2-0.1-0.4-0.3-0.5c-0.2-0.1-0.4,0-0.6,0.1
	c-1.8,1.9-3.5,3.3-5.8,4.4c-1.1-0.2-2.2-0.4-3.4-0.4h-2.7c1.4-1.8,1.9-3.8,2.2-6.2c0-0.2-0.1-0.4-0.3-0.5c-0.2-0.1-0.4-0.1-0.6,0.1
	c-3,2.6-7.8,5.8-13.8,6.1c1.6-1.9,3.1-5,3.1-8.8c0-0.2-0.1-0.4-0.3-0.5c-0.2-0.1-0.4-0.1-0.5,0.1c-2.4,2.1-8.5,6.6-15.8,7.2
	c3.9-2.7,5.8-5.8,5.8-9.3c0-0.2-0.1-0.4-0.3-0.4c-0.2-0.1-0.4-0.1-0.5,0c-6.1,4.3-15.7,4.9-24.9,5.4c-11,0.6-22.4,1.3-28.5,8.2
	c-1.8,0.1-6.8,1.1-10.1,6.5c-4.1,6.7-2.9,21.2-2.2,29.9l0.1,1.9c0.2,3.1,0.4,7.5,0.5,12c0.3,9,0.6,19.3,1.8,25.3
	c0.2,1,1,3.3,1.4,4.2v4.3c0,8.5,7,15.5,15.5,15.5h70c8.5,0,15.5-7,15.5-15.5v-3.9c0.2-0.5,1.3-3.4,1.5-4.4
	c1.1-5.9,1.4-15.6,1.7-24.2c0.2-5,0.3-9.7,0.6-13.1l0.1-1.9C130.1,53.8,131.3,39.3,127.2,32.5z"/>
</svg>
