<?xml version="1.0" encoding="utf-8"?>
<!-- Generator: Adobe Illustrator 22.1.0, SVG Export Plug-In . SVG Version: 6.00 Build 0)  -->
<svg version="1.1" id="Layer_1" xmlns="http://www.w3.org/2000/svg" xmlns:xlink="http://www.w3.org/1999/xlink" x="0px" y="0px"
	 viewBox="0 0 150 150" style="enable-background:new 0 0 150 150;" xml:space="preserve">
<style type="text/css">
	.st0{fill:none;stroke:#000000;stroke-width:9;stroke-linecap:round;stroke-linejoin:round;stroke-miterlimit:10;}
	.st1{fill:#02BBFF;stroke:#000000;stroke-width:6;stroke-miterlimit:10;}
	.st2{fill:#910B12;}
	.st3{fill:#265A4E;}
	.st4{fill:#FFFFFF;}
</style>
<g>
	<path class="st0" d="M86.5,52.7c0.4,0.3,1.5,0.2,2.1,0.3c0.8,0,1.1-0.8,1.2-1.2c0.3-1.7,0.3-5.3,0.5-7.1c0-0.5-0.3-0.7-0.8-0.9
		c-0.5-0.1-1.5-0.3-2.1-0.2c-0.4,0.1-0.6,0.3-0.6,0.5c-0.1,2-0.5,5.9-0.8,7.9C85.9,52.2,86.2,52.6,86.5,52.7z"/>
	<path class="st0" d="M99.7,61.2c0.4,0,0.7-0.3,0.8-0.5c0.3-1.8,0.7-7.2,0.7-7.2s-2.2,4.8-3,6.4c-0.1,0.2-0.1,0.7,0.2,0.9
		C98.7,61.1,99.4,61.2,99.7,61.2z"/>
	<path class="st0" d="M37.8,78.9c0.3,0.8,0.8,0.9,1.7,0.5c3.1-1.4,17.5-9.7,35.3-9.7c17.8,0,32.3,8.3,35.3,9.7
		c0.9,0.4,1.4,0.3,1.7-0.5l8.2-20.8c0.8-2.1,1.6-3-0.4-5c-7.4-7.4-25.1-16.1-44.8-16.1v0c0,0,0,0,0,0l0,0
		c-19.7,0-37.5,8.8-44.8,16.1c-2,2-1.2,2.9-0.4,5L37.8,78.9z M112.1,50c0.6,0.2,1.6,1,2.1,1.4c0.7,0.6,0.6,1.4,0.4,1.8
		c-4.2,10.2-5.7,13.4-7.5,17.4c-0.4,1-0.1,1.6,0.3,1.9c0.8,0.5,2,0.8,2.7,1.1c0.3,0.2,0.8,0.6,0.6,1.1c-0.1,0.3-0.3,0.8-0.5,1.1
		c-0.2,0.3-0.6,0.3-0.8,0.3c-1.9-0.8-4.3-1.9-6-2.7c-0.8-0.4-0.8-1.2-0.6-1.5c2-4.7,6.2-16,8.2-21.1C111.2,49.9,111.8,49.9,112.1,50
		z M101.7,45.4c0.7-0.1,2.2,0.5,2.8,0.8c0.7,0.4,0.8,1.3,0.8,1.7c-0.6,5.3-2.3,17.2-3.2,23.2c-0.1,0.4-0.3,1-0.9,1
		c-0.4,0.1-1.4-0.2-1.6-0.5c-0.3-0.3-0.8-0.6-0.7-1.6c0.2-1.3,0.6-3.9,0.8-5.1c0-0.2-0.2-0.8-0.3-0.9c-0.4-0.3-1.3-0.6-1.7-0.7
		c-0.6-0.1-0.9,0.3-1.1,0.5c-0.6,1.2-1.3,3.6-1.9,4.8c-0.1,0.3-0.4,0.7-0.9,0.7c-0.5,0-1.8-0.2-2.1-0.5c-0.2-0.2-0.4-1-0.3-1.4
		c2.1-5.7,6.1-15.8,9-21.5C100.6,45.8,101.3,45.5,101.7,45.4z M84.1,40.5c1.2,0,3.7,0.1,4.9,0.5c1.1,0.3,3.2,0.8,4.1,2.1
		c0.8,1.3,0.9,2.6,0.9,3.6c0,1.4-0.4,4.1-0.7,5.5c-0.4,1.8-0.8,2.4-1.5,2.5c-1,0.1-0.9,1.1-0.5,1.4c0.2,0.1,0.5,0.4,0.6,0.6
		c0.2,0.3,0.5,1,0.3,1.4c-0.6,2.4-1.4,7.1-1.9,9.4c-0.1,0.4-0.4,1.1-1,1.1c-0.4,0-1.4-0.2-1.8-0.3c-0.7-0.2-0.8-0.5-0.7-0.9
		c0.4-2.9,1.2-8.2,1.5-10.4c0.1-1-0.8-1.4-1.2-1.6c-1-0.5-1.5,0.2-1.6,0.6c-0.3,2.6-0.9,7.2-1.1,10c0,0.4-0.3,1.4-1,1.5
		c-0.4,0-1.3-0.1-1.7-0.2c-0.4-0.1-0.8-0.8-0.8-1.2c0.6-5.7,1.6-18.5,1.8-24.4C82.7,40.9,83,40.5,84.1,40.5z M68.6,40.9
		c0-0.5,0.6-0.7,0.9-0.7C72,40,77.4,40,80,40.1c1.1,0.1,1.1,0.7,1.2,1.1c0,0.2-0.1,0.6-0.1,0.9c-0.1,0.5-0.8,0.6-1.2,0.6
		c-0.7-0.1-1.1-0.1-1.9-0.2c-0.8-0.1-1,0.4-1,1c-0.1,5.4-0.3,17-0.2,22.6c0,0.4-0.3,1.1-1,1.2c-0.5,0.1-1.6,0-2.2-0.1
		c-0.6-0.1-0.7-1-0.7-1.4c-0.1-5.5-0.3-16.6-0.4-22.2c0-0.4-0.4-0.9-1.1-1c-0.5-0.1-1.2,0.1-2,0.1c-0.7,0-0.8-0.1-0.9-0.7
		C68.6,41.7,68.6,41.1,68.6,40.9z M55.9,42.1c0.6-0.2,1.9-0.5,2.5-0.7c1.1-0.3,1.6,0.3,1.8,0.8c1.4,3.4,4.3,11.3,4.3,11.3
		s-0.6-8.1-0.9-11.8c0-0.4-0.1-1,0.9-1.2c0.5-0.1,1.6-0.2,2.1-0.2c1.2,0,1.2,0.6,1.2,1c0.4,6.4,1.1,18.2,1.4,24.4
		c0,0.5-0.3,1.4-0.9,1.7c-0.5,0.2-1.6,0.2-2.2,0.2c-0.9,0-1.2-0.7-1.3-1.1C63.2,61,61,54.6,61,54.6S62,62,62.6,66
		c0.1,0.7,0.6,2.2-1.2,2.5c-2,0.4-2.3-0.4-2.4-1.1c-1.1-7.3-3.2-17.9-4.1-23.5C54.7,42.5,55.3,42.3,55.9,42.1z M44.7,46.5
		c1.7-0.8,5.2-2,6.9-2.5c1.5-0.5,1.4,0.3,1.7,0.7c0.6,1.2-0.4,1.5-0.9,1.7c-1.2,0.6-2.1,0.7-3.4,1c-0.8,0.2-0.6,0.8-0.6,1.1
		c0.6,2,1.1,4.6,1.7,6.7c0.4,1.4,1.4,1,1.9,0.9c0.6-0.2,1.6-0.4,2.2-0.6c0.6-0.1,0.9-0.1,1.2,0.7c0.3,1-0.1,1.2-0.4,1.4
		c-0.9,0.4-1.9,0.8-2.6,1.1c-0.5,0.2-1,0.4-0.7,1.5c0.4,1.7,1.1,4.4,1.8,6.5c0.6,1.8,1.2,1.3,1.7,1.2c0.8-0.2,1.5-0.3,2-0.4
		c0.6-0.1,1.3-0.3,1.6,0.7c0.4,1.2-0.4,1.5-0.8,1.6c-1.9,0.6-3.7,1.2-5.7,1.6c-1.2,0.3-1.4-0.1-1.5-0.5C49,64.4,45.9,54.2,44.1,48
		C43.8,47.1,44.2,46.7,44.7,46.5z M33.3,52.9c1-1.6,1.4-1.7,3.1-2.7c2.1-1.2,5.3-1.6,6.3-0.1c0.5,0.8,1.3,2.8,1.5,3.8
		c0.2,0.7,0.7,1.2-1.3,2.3c-0.9,0.4-1.5,0.5-2.3-0.5c-0.5-0.6-1.1-2.5-1.5-3.1c-0.4-0.7-1-0.5-1.6-0.1c-0.7,0.4-1,1.2-0.6,2
		c2.2,4.6,4.2,9,7.4,16.2c0.1,0.2,0.8,0.4,1,0.3c0.3-0.2,0.4-1.1,0.3-1.4c-0.3-1-0.8-2-1-2.8c-0.3-1.2-0.1-1.4,1-1.9
		c1.6-0.7,2-0.3,2.6,0.7c0.7,1.2,1.6,3.7,1.5,5.3c0,1.1-1.9,2.3-2.6,2.8c-0.9,0.6-2.1,1-3.4,0.8c-1.6-0.2-2.2-1.4-2.9-2.3
		c-1.9-2.7-5.8-11.5-7.8-16.1C32.9,55.2,32.9,53.5,33.3,52.9z"/>
	<path class="st0" d="M31.1,86.8l1.2,0.8l4.2-5.4c0.4-0.5-0.1-1.5-0.1-1.5c-1.8-4.3-3.6-8.6-5.4-13c-1.9,1.8-4.2,4.1-6.3,7.1
		c-2.1,2.8-3.7,5.6-4.9,7.9l10.2,0.7c1.3,0.1,1.2,1.4,1.2,1.4L31.1,86.8z"/>
	<path class="st0" d="M124.9,74.7c-2.2-2.9-4.4-5.3-6.3-7.1c-1.8,4.3-3.6,8.6-5.4,13c0,0-0.5,1-0.1,1.5l4.2,5.4l1.2-0.8l-0.2-2
		c0,0-0.1-1.4,1.2-1.4l10.2-0.7C128.6,80.3,127,77.6,124.9,74.7z"/>
	<path class="st0" d="M51.7,92.2l0,5.9c0,0,2.2-1.1,2.2-2.8C53.9,93.5,51.7,92.2,51.7,92.2z"/>
	<path class="st0" d="M86.7,94.4c0.1-3.4-4.3-3.8-4.3-3.8l0,8.1C82.4,98.7,86.6,97.1,86.7,94.4z"/>
	<path class="st0" d="M103.9,84H46.1c-8,0-14.5,6.5-14.5,14.5v0c0,7.9,6.5,14.5,14.5,14.5h57.8c8,0,14.5-6.5,14.5-14.5v0
		C118.4,90.5,111.9,84,103.9,84z M37.2,101.8c-1.8,0-3.3-1.5-3.3-3.3c0-1.8,1.5-3.3,3.3-3.3c1.8,0,3.3,1.5,3.3,3.3
		C40.5,100.3,39.1,101.8,37.2,101.8z M53.4,100.9c-0.6,0.5-1.4,1.2-1.4,1.8c-0.1,1.4,0.2,4.4,0.2,6c0,0.4,0,1.1-1.1,1.1
		c-1.3,0.1-4.2,0-5.3,0c-0.6,0-1.2-0.6-1.2-1.5c0-1.1,0.1-2,0.1-3.2c0-0.5-0.6-0.8-0.9-1c-0.4-0.4-0.6-1.2-0.1-1.6
		c0.4-0.3,0.9-0.3,0.9-1.7c0.1-2.3,0.1-7.1,0.2-9.5c0-0.8-0.9-1.3-1.6-1.6c-0.4-0.1-1-0.4-1-1.3c0-0.9,0.7-1,1-1
		c4.5-0.1,8.1,0.3,10.7,2.8c1.5,1.4,2.3,2.9,2.3,5.2C56.1,98.3,54.5,99.9,53.4,100.9z M71.2,103c-0.1,0.3-0.5,0.7-0.9,0.8
		c-1,0.2-3.2,0-4.2,0c-0.2,0-0.5,0.3-0.6,0.8c0,0.4-0.1,1.5,0,2.2c0,0.3,0.3,0.9,1.1,0.9c0.8,0,2.6,0,3.4,0c0.7,0,1,0.2,1,0.8
		c0,0.2,0.1,0.6,0,0.8c-0.1,0.3,0.1,0.9-0.8,0.9c-3.4,0.1-9.3,0-12.5,0c-0.2,0-0.6-0.4-0.6-0.6c0-0.5,0-0.8,0-1.1
		c0-0.4,0.2-0.7,0.6-0.7c0.1,0,0.6,0,0.8,0c0.6-0.2,0.6-0.6,0.6-0.9c0.1-0.5,0.1-1.5-0.1-2c-0.1-0.2,0-0.8-0.6-0.8
		c-0.6,0-1.4-0.4-1.3-1.5c0-1.2,0.5-1.1,0.9-1.1c0.5-0.1,1.1,0.3,1-1.2c0-2.1,0.1-6.5,0.1-8.5c0-1.2-0.6-1.1-1-1.2
		c-0.9-0.2-1-1.2-1-1.7c0-1,0.5-1.1,0.9-1.1c2.9,0.1,8.7,0,12.2-0.1c0.3,0,0.8,0.2,0.9,0.8c0.1,0.4,0,1.1,0,1.4
		c-0.1,0.8-0.7,0.8-1,0.8c-1.1,0-2.6,0-3.5,0.1c-0.3,0-0.8,0.1-0.8,0.7c0,2.1-0.1,6.6-0.1,8.7c0,1.4,0.6,1.4,1.1,1.4
		c1,0,2.5,0.1,3.4,0.1c0.8,0,1,0.2,1,0.7C71.2,102.2,71.2,102.8,71.2,103z M90.1,111.2c-0.5,0.1-1.2,0-1.6,0c-1-0.1-1.7-0.9-2.1-1.4
		c-1.5-1.5-4.2-7.2-4.2-7.2s0,4.1,0,6.3c0,0.3-0.1,1-0.8,1c-1.4,0.1-3.5,0.1-4.7,0.1c-0.4,0-0.9-0.8-0.9-1.1c0.1-1.1,0-2.4,0-3.8
		c0-0.2-0.2-0.7-0.4-0.8c-1.7-0.2-1.3-1.4-0.9-1.7c1.4-0.9,1.4-1.9,1.4-2.7c0-2.2-0.2-6.6-0.1-8.9c0.1-1.1-0.4-1.5-0.8-2
		c-0.4-0.5-0.9-1.4,0.7-1.7c1.8-0.3,5.4-0.1,7.1,0.3c1.3,0.3,4,1.2,5.1,2.1c1.4,1.2,1.8,2.3,2,3.2c0.2,0.8-0.1,2.6-0.5,3.4
		c-0.4,0.9-1.9,2.3-2.6,3c-0.2,0.2-0.7,0.6-1,0.8c-0.7,0.5-0.3,1.2-0.2,1.5c1.1,2.2,3,5.8,4.5,8.3C90.5,110.7,90.7,111.1,90.1,111.2
		z M106.6,111.3c-1.3-0.3-1.9-0.8-2.2-1.4c-1.4-2.6-4.4-8-4.4-8s0,5.1,0,7.4c0,0.3-0.3,0.9-0.8,1c-1.1,0.2-3.4,0.1-4.4,0
		c-0.7-0.1-0.9-0.7-0.9-1c0.1-0.7-0.1-1.5-0.1-2c0-0.2-0.3-0.6-0.5-0.6c-1.7-0.1-2.1-1.5-1.2-2.6c2.1-2.3,1.7-4.1,1.7-5.5
		c0-2.5,0.1-7,0.1-9.8c0-0.9,0.6-1,1-1c1.1-0.2,2.9-0.3,3.9,0.1c0.4,0.2,1,0.7,1,1.3c0,2.4,0.2,7,0.2,7s4.1-5.2,5.3-7
		c1.7-2.4,4.5-1,4.5-1s-4.9,7.4-7,10.3c-0.3,0.4-0.6,1.3-0.1,2.1c1.7,2.9,6.1,10.6,6.1,10.6S107.1,111.4,106.6,111.3z M115.7,98.5
		c0,1.8-1.5,3.3-3.3,3.3c-1.8,0-3.3-1.5-3.3-3.3c0-1.8,1.5-3.3,3.3-3.3C114.2,95.2,115.7,96.7,115.7,98.5z"/>
</g>
<path class="st1" d="M40,25h70c8.3,0,15,6.7,15,15v70c0,8.3-6.7,15-15,15H40c-8.3,0-15-6.7-15-15V40C25,31.7,31.7,25,40,25z"/>
<title>L</title>
<path d="M133.8,80.6c-1.5-3-3.3-5.9-5.3-8.6c-1.9-2.5-4-4.9-6.3-7.1l2.1-5.2c0.1-0.2,0.2-0.5,0.3-0.7c0.7-1.8,2.1-5.2-1.7-9
	c-8.7-8.7-27.9-17.4-48-17.4c-20.1,0-39.4,8.8-48,17.4c-3.8,3.8-2.4,7.2-1.7,9c0.1,0.2,0.2,0.4,0.3,0.8l2,5.2
	c-2.3,2.2-4.4,4.6-6.3,7.1c-2,2.7-3.8,5.6-5.3,8.6c-0.7,1.3-0.6,2.9,0.1,4.2c0.8,1.3,2.1,2.1,3.6,2.2l7.1,0.5c0.2,1.2,1,2.3,2,3
	l0.2,0.1c-1.1,2.4-1.7,5-1.7,7.8c0,10.5,8.5,19,19,19h57.8c10.5,0,19-8.5,19-19c0-2.9-0.7-5.6-1.8-8c1-0.7,1.7-1.7,1.9-2.9l7.1-0.5
	c1.5-0.1,2.9-0.9,3.6-2.2C134.4,83.6,134.4,82,133.8,80.6z M30,53.2c7.4-7.4,25.1-16.1,44.8-16.1l0,0c0,0,0,0,0,0v0
	c19.7,0,37.5,8.8,44.8,16.1c2,2,1.2,2.9,0.4,5l-8.2,20.8c-0.3,0.8-0.8,0.9-1.7,0.5c-3.1-1.4-17.5-9.7-35.3-9.7
	c-17.8,0-32.3,8.3-35.3,9.7c-0.9,0.4-1.4,0.3-1.7-0.5l-8.2-20.8C28.8,56,28,55.1,30,53.2z M99.9,79.5H49.8
	c6.2-2.5,15.1-5.4,25.1-5.4C84.8,74.2,93.7,77,99.9,79.5z M30.4,78.8l-2.9-0.2c0.3-0.4,0.6-0.8,0.9-1.2c0.4-0.5,0.8-1.1,1.3-1.6
	l1.3,3.1C30.7,78.8,30.6,78.8,30.4,78.8z M118.4,98.5c0,7.9-6.5,14.5-14.5,14.5H46.1c-8,0-14.5-6.5-14.5-14.5v0
	c0-7.9,6.5-14.5,14.5-14.5h57.8C111.9,84,118.4,90.5,118.4,98.5L118.4,98.5z M119.2,78.8c-0.2,0-0.3,0-0.5,0.1l1.3-3.1
	c0.4,0.5,0.9,1.1,1.3,1.6c0.3,0.4,0.6,0.8,0.9,1.2L119.2,78.8z"/>
<g>
	<g>
		<path class="st2" d="M119.7,53.2c-7.4-7.4-25.1-16.1-44.8-16.1v0c0,0,0,0,0,0l0,0c-19.7,0-37.5,8.8-44.8,16.1c-2,2-1.2,2.9-0.4,5
			l8.2,20.8c0.3,0.8,0.8,0.9,1.7,0.5c3.1-1.4,17.5-9.7,35.3-9.7c17.8,0,32.3,8.3,35.3,9.7c0.9,0.4,1.4,0.3,1.7-0.5l8.2-20.8
			C120.8,56,121.6,55.1,119.7,53.2z"/>
		<path class="st2" d="M31.1,67.7c-1.9,1.8-4.2,4.1-6.3,7.1c-2.1,2.8-3.7,5.6-4.9,7.9l10.2,0.7c1.3,0.1,1.2,1.4,1.2,1.4l-0.2,2
			l1.2,0.8l4.2-5.4c0.4-0.5-0.1-1.5-0.1-1.5C34.7,76.3,32.9,72,31.1,67.7z"/>
		<path class="st2" d="M124.9,74.7c-2.2-2.9-4.4-5.3-6.3-7.1c-1.8,4.3-3.6,8.6-5.4,13c0,0-0.5,1-0.1,1.5l4.2,5.4l1.2-0.8l-0.2-2
			c0,0-0.1-1.4,1.2-1.4l10.2-0.7C128.6,80.3,127,77.6,124.9,74.7z"/>
	</g>
	<g>
		<path class="st3" d="M103.9,84H46.1c-7.9,0-14.5,6.5-14.5,14.5v0c0,7.9,6.5,14.5,14.5,14.5h57.8c8,0,14.5-6.5,14.5-14.5v0
			C118.4,90.5,111.9,84,103.9,84z"/>
	</g>
</g>
<g>
	<path class="st4" d="M66.6,40.3c-0.5,0-1.6,0.1-2.1,0.2c-1,0.2-0.9,0.8-0.9,1.2c0.3,3.7,0.9,11.8,0.9,11.8s-2.9-8-4.3-11.3
		c-0.2-0.5-0.7-1.1-1.8-0.8c-0.6,0.2-1.9,0.4-2.5,0.7c-0.6,0.3-1.2,0.5-1,1.8c0.9,5.6,2.9,16.2,4.1,23.5c0.1,0.6,0.4,1.4,2.4,1.1
		c1.8-0.3,1.3-1.8,1.2-2.5C62,62,61,54.6,61,54.6s2.2,6.3,3.8,11.8c0.1,0.4,0.4,1.1,1.3,1.1c0.6,0,1.7,0.1,2.2-0.2
		c0.6-0.3,0.9-1.2,0.9-1.7c-0.3-6.1-1-18-1.4-24.4C67.8,40.9,67.8,40.2,66.6,40.3z"/>
	<path class="st4" d="M57.2,67.3c-0.5,0.1-1.2,0.2-2,0.4c-0.5,0.1-1.1,0.6-1.7-1.2c-0.6-2.1-1.4-4.8-1.8-6.5
		c-0.3-1.1,0.2-1.3,0.7-1.5c0.6-0.3,1.7-0.6,2.6-1.1c0.3-0.2,0.7-0.4,0.4-1.4c-0.3-0.9-0.6-0.8-1.2-0.7c-0.5,0.1-1.6,0.4-2.2,0.6
		c-0.5,0.2-1.5,0.5-1.9-0.9c-0.6-2-1.1-4.7-1.7-6.7c-0.1-0.3-0.2-0.9,0.6-1.1c1.3-0.3,2.1-0.4,3.4-1c0.5-0.2,1.5-0.6,0.9-1.7
		c-0.2-0.4-0.1-1.1-1.7-0.7c-1.7,0.5-5.2,1.8-6.9,2.5c-0.5,0.2-0.8,0.6-0.6,1.5c1.8,6.2,4.9,16.4,6.7,22.7c0.1,0.4,0.4,0.8,1.5,0.5
		c1.9-0.4,3.8-1,5.7-1.6c0.4-0.1,1.2-0.4,0.8-1.6C58.4,67,57.7,67.2,57.2,67.3z"/>
	<path class="st4" d="M81.1,42.1c0-0.2,0.1-0.6,0.1-0.9c0-0.4-0.1-1-1.2-1.1c-2.6-0.1-8-0.1-10.5,0.1c-0.3,0-0.9,0.2-0.9,0.7
		c0,0.3,0,0.8,0.1,1.1c0.1,0.6,0.1,0.7,0.9,0.7c0.7,0,1.4-0.1,2-0.1c0.8,0.1,1.1,0.6,1.1,1c0.1,5.6,0.3,16.7,0.4,22.2
		c0,0.4,0.1,1.3,0.7,1.4c0.5,0.1,1.6,0.2,2.2,0.1c0.6-0.1,1-0.8,1-1.2c-0.1-5.6,0.1-17.2,0.2-22.6c0-0.6,0.3-1.1,1-1
		c0.7,0.1,1.2,0.1,1.9,0.2C80.2,42.7,81,42.6,81.1,42.1z"/>
	<path class="st4" d="M45.7,64.8c-1,0.4-1.2,0.7-1,1.9c0.2,0.9,0.7,1.8,1,2.8c0.1,0.3,0,1.2-0.3,1.4c-0.2,0.1-0.9-0.1-1-0.3
		C41.3,63.4,39.2,59,37,54.4c-0.4-0.8-0.1-1.5,0.6-2c0.6-0.4,1.1-0.6,1.6,0.1c0.4,0.6,1,2.5,1.5,3.1c0.8,1,1.5,1,2.3,0.5
		c2-1,1.4-1.6,1.3-2.3c-0.2-1-1-3-1.5-3.8c-1-1.5-4.2-1.1-6.3,0.1c-1.7,1-2.1,1.1-3.1,2.7c-0.4,0.7-0.4,2.4-0.1,3.1
		c2,4.5,6,13.4,7.8,16.1c0.6,0.9,1.3,2.1,2.9,2.3c1.3,0.2,2.5-0.2,3.4-0.8c0.6-0.4,2.5-1.7,2.6-2.8c0-1.6-0.9-4.1-1.5-5.3
		C47.7,64.4,47.3,64.1,45.7,64.8z"/>
	<path class="st4" d="M104.5,46.3c-0.6-0.4-2.1-0.9-2.8-0.8c-0.4,0-1.2,0.4-1.4,0.8c-2.9,5.7-6.9,15.8-9,21.5
		c-0.1,0.3,0.1,1.1,0.3,1.4c0.3,0.3,1.7,0.5,2.1,0.5c0.5,0,0.7-0.4,0.9-0.7c0.5-1.3,1.3-3.7,1.9-4.8c0.1-0.3,0.4-0.7,1.1-0.5
		c0.5,0.1,1.3,0.3,1.7,0.7c0.2,0.2,0.4,0.7,0.3,0.9c-0.2,1.2-0.6,3.8-0.8,5.1c-0.1,1,0.3,1.3,0.7,1.6c0.3,0.3,1.3,0.5,1.6,0.5
		c0.6-0.1,0.9-0.7,0.9-1c0.9-6,2.6-17.9,3.2-23.2C105.3,47.5,105.3,46.7,104.5,46.3z M100.5,60.7c0,0.2-0.3,0.6-0.8,0.5
		c-0.4,0-1.1-0.1-1.3-0.4c-0.3-0.3-0.3-0.7-0.2-0.9c0.8-1.6,3-6.4,3-6.4S100.7,58.9,100.5,60.7z"/>
	<path class="st4" d="M114.6,53.2c0.2-0.4,0.3-1.2-0.4-1.8c-0.5-0.4-1.5-1.2-2.1-1.4c-0.4-0.1-0.9-0.1-1.2,0.6
		c-2,5.1-6.2,16.4-8.2,21.1c-0.2,0.4-0.1,1.2,0.6,1.5c1.6,0.8,4.1,1.9,6,2.7c0.2,0.1,0.6,0,0.8-0.3c0.2-0.2,0.3-0.8,0.5-1.1
		c0.3-0.5-0.2-0.9-0.6-1.1c-0.7-0.3-1.9-0.6-2.7-1.1c-0.4-0.2-0.7-0.9-0.3-1.9C108.9,66.6,110.4,63.4,114.6,53.2z"/>
	<path class="st4" d="M91.9,56.6c-0.1-0.2-0.4-0.5-0.6-0.6c-0.5-0.3-0.5-1.3,0.5-1.4c0.7-0.1,1.1-0.6,1.5-2.5
		c0.3-1.3,0.7-4.1,0.7-5.5c0-1,0-2.3-0.9-3.6c-0.9-1.3-3-1.8-4.1-2.1c-1.2-0.4-3.7-0.5-4.9-0.5c-1,0-1.3,0.4-1.4,1.1
		c-0.2,5.9-1.3,18.7-1.8,24.4c0,0.4,0.4,1.1,0.8,1.2c0.4,0.1,1.3,0.3,1.7,0.2c0.7-0.1,1-1,1-1.5c0.3-2.8,0.8-7.4,1.1-10
		c0.1-0.4,0.6-1,1.6-0.6c0.5,0.2,1.4,0.6,1.2,1.6c-0.3,2.3-1.1,7.5-1.5,10.4c0,0.3,0,0.7,0.7,0.9c0.4,0.1,1.4,0.3,1.8,0.3
		c0.6,0,0.9-0.8,1-1.1c0.5-2.3,1.3-7,1.9-9.4C92.3,57.6,92.1,56.9,91.9,56.6z M89.7,51.8c-0.1,0.4-0.4,1.2-1.2,1.2
		c-0.5,0-1.6,0-2.1-0.3c-0.2-0.1-0.6-0.5-0.5-0.7c0.2-2,0.7-5.9,0.8-7.9c0-0.2,0.2-0.4,0.6-0.5c0.6-0.1,1.6,0,2.1,0.2
		c0.5,0.2,0.9,0.4,0.8,0.9C90,46.4,90,50,89.7,51.8z"/>
</g>
<g>
	<path class="st4" d="M37.2,101.8c-1.8,0-3.3-1.5-3.3-3.3c0-1.8,1.5-3.3,3.3-3.3c1.8,0,3.3,1.5,3.3,3.3
		C40.5,100.3,39.1,101.8,37.2,101.8z"/>
	<path class="st4" d="M71.2,103c-0.1,0.3-0.5,0.7-0.9,0.8c-1,0.2-3.2,0-4.2,0c-0.2,0-0.5,0.3-0.6,0.8c0,0.4-0.1,1.5,0,2.2
		c0,0.3,0.3,0.9,1.1,0.9c0.8,0,2.6,0,3.4,0c0.7,0,1,0.2,1,0.8c0,0.2,0.1,0.6,0,0.8c-0.1,0.3,0.1,0.9-0.8,0.9c-3.4,0.1-9.3,0-12.5,0
		c-0.2,0-0.6-0.4-0.6-0.6c0-0.5,0-0.8,0-1.1c0-0.4,0.2-0.7,0.6-0.7c0.1,0,0.6,0,0.8,0c0.6-0.2,0.6-0.6,0.6-0.9
		c0.1-0.5,0.1-1.5-0.1-2c-0.1-0.2,0-0.8-0.6-0.8c-0.6,0-1.4-0.4-1.3-1.5c0-1.2,0.5-1.1,0.9-1.1c0.5-0.1,1.1,0.3,1-1.2
		c0-2.1,0.1-6.5,0.1-8.5c0-1.2-0.6-1.1-1-1.2c-0.9-0.2-1-1.2-1-1.7c0-1,0.5-1.1,0.9-1.1c2.9,0.1,8.7,0,12.2-0.1
		c0.3,0,0.8,0.2,0.9,0.8c0.1,0.4,0,1.1,0,1.4c-0.1,0.8-0.7,0.8-1,0.8c-1.1,0-2.6,0-3.5,0.1c-0.3,0-0.8,0.1-0.8,0.7
		c0,2.1-0.1,6.6-0.1,8.7c0,1.4,0.6,1.4,1.1,1.4c1,0,2.5,0.1,3.4,0.1c0.8,0,1,0.2,1,0.7C71.2,102.2,71.2,102.8,71.2,103z"/>
	<path class="st4" d="M106.6,111.3c-1.3-0.3-1.9-0.8-2.2-1.4c-1.4-2.6-4.4-8-4.4-8s0,5.1,0,7.4c0,0.3-0.3,0.9-0.8,1
		c-1.1,0.2-3.4,0.1-4.4,0c-0.7-0.1-0.9-0.7-0.9-1c0.1-0.7-0.1-1.5-0.1-2c0-0.2-0.3-0.6-0.5-0.6c-1.7-0.1-2.1-1.5-1.2-2.6
		c2.1-2.3,1.7-4.1,1.7-5.5c0-2.5,0.1-7,0.1-9.8c0-0.9,0.6-1,1-1c1.1-0.2,2.9-0.3,3.9,0.1c0.4,0.2,1,0.7,1,1.3c0,2.4,0.2,7,0.2,7
		s4.1-5.2,5.3-7c1.7-2.4,4.5-1,4.5-1s-4.9,7.4-7,10.3c-0.3,0.4-0.6,1.3-0.1,2.1c1.7,2.9,6.1,10.6,6.1,10.6S107.1,111.4,106.6,111.3z
		"/>
	<path class="st4" d="M112.4,101.8c-1.8,0-3.3-1.5-3.3-3.3c0-1.8,1.5-3.3,3.3-3.3c1.8,0,3.3,1.5,3.3,3.3
		C115.7,100.3,114.2,101.8,112.4,101.8z"/>
	<path class="st4" d="M53.9,90.2c-2.6-2.5-6.2-2.9-10.7-2.8c-0.4,0-1,0.1-1,1c0,0.9,0.6,1.1,1,1.3c0.7,0.3,1.6,0.8,1.6,1.6
		c-0.1,2.4-0.1,7.2-0.2,9.5c-0.1,1.4-0.6,1.4-0.9,1.7c-0.5,0.4-0.4,1.2,0.1,1.6c0.2,0.2,0.8,0.5,0.9,1c0.1,1.1,0,2.1-0.1,3.2
		c0,0.9,0.5,1.6,1.2,1.5c1.2,0,4,0.1,5.3,0c1.1-0.1,1.1-0.7,1.1-1.1c0-1.6-0.3-4.6-0.2-6c0-0.6,0.8-1.2,1.4-1.8
		c1.2-1,2.8-2.6,2.8-5.5C56.2,93.1,55.4,91.6,53.9,90.2z M51.7,98.2l0-5.9c0,0,2.2,1.2,2.2,3.1C53.9,97.1,51.7,98.2,51.7,98.2z"/>
	<path class="st4" d="M90.1,110.1c-1.5-2.5-3.4-6.1-4.5-8.3c-0.2-0.3-0.6-1,0.2-1.5c0.3-0.2,0.8-0.6,1-0.8c0.7-0.7,2.2-2.1,2.6-3
		c0.4-0.8,0.6-2.6,0.5-3.4c-0.2-0.9-0.6-2-2-3.2c-1.1-0.9-3.7-1.7-5.1-2.1c-1.7-0.4-5.4-0.6-7.1-0.3c-1.5,0.2-1.1,1.1-0.7,1.7
		c0.3,0.4,0.8,0.8,0.8,2c-0.1,2.2,0.1,6.7,0.1,8.9c0,0.8,0,1.8-1.4,2.7c-0.4,0.3-0.7,1.5,0.9,1.7c0.2,0,0.4,0.6,0.4,0.8
		c0,1.4,0,2.7,0,3.8c0,0.4,0.6,1.1,0.9,1.1c1.3,0,3.4,0,4.7-0.1c0.6,0,0.8-0.7,0.8-1c0-2.2,0-6.3,0-6.3s2.7,5.7,4.2,7.2
		c0.4,0.4,1.1,1.3,2.1,1.4c0.4,0,1.1,0.1,1.6,0C90.7,111.1,90.5,110.7,90.1,110.1z M82.4,90.6c0,0,4.3,0.4,4.3,3.8
		c-0.1,2.7-4.3,4.3-4.3,4.3L82.4,90.6z"/>
</g>
</svg>
