<?xml version="1.0" encoding="utf-8"?>
<!-- Generator: Adobe Illustrator 23.0.6, SVG Export Plug-In . SVG Version: 6.00 Build 0)  -->
<svg version="1.1" id="Layer_1" xmlns="http://www.w3.org/2000/svg" xmlns:xlink="http://www.w3.org/1999/xlink" x="0px" y="0px"
	 viewBox="0 0 150 150" style="enable-background:new 0 0 150 150;" xml:space="preserve">
<style type="text/css">
	.st0{fill:#F1B186;stroke:#000000;stroke-linecap:round;stroke-linejoin:round;stroke-miterlimit:10;}
	.st1{fill:#232323;stroke:#000000;stroke-linecap:round;stroke-linejoin:round;stroke-miterlimit:10;}
	.st2{fill:#FFFFFF;stroke:#000000;stroke-linecap:round;stroke-linejoin:round;stroke-miterlimit:10;}
	.st3{fill:#F1B186;stroke:#000000;stroke-width:1.5;stroke-linecap:round;stroke-linejoin:round;stroke-miterlimit:10;}
</style>
<path class="st0" d="M40,25h70c8.3,0,15,6.7,15,15v70c0,8.3-6.7,15-15,15H40c-8.3,0-15-6.7-15-15V40C25,31.7,31.7,25,40,25z"/>
<path class="st1" d="M116.3,26.4c0,0,1.5,34.1,2.9,40.8c1.1,5.3,5.8,8.4,5.8,8.4V106c0,0,1.3-3.3,1.5-4.4c1.8-9.2,1.5-28,2.3-37.3
	c0.6-7.9,2.3-24.4-2-31.5C122.9,26.1,116.3,26.4,116.3,26.4z"/>
<title>L</title>
<path class="st1" d="M101,28.4c6.3-3,7.3-5.6,8-10.2c-4.2,3.7-9.5,6.3-15.3,6.3c1.9-1.7,3.8-5.1,3.8-9.3c-3.6,3.1-10.3,7.5-17.9,7.4
	c4.7-2.8,7.1-6.1,7.1-9.9c-13.4,9.6-42.4,1-53.5,13.7c-1.7,0.1-6.7,0.9-9.9,6.3c-4.3,7.1-2.6,23.6-2,31.5c0.7,9.3,0.4,28.2,2.3,37.3
	c0.2,1.2,1.5,4.4,1.5,4.4V75.5c0,0,4.6-3.1,5.8-8.4c0.9-4.4,1.9-20.7,2.4-31.3c7.9,2,23.1,2.6,38.7,2.6c28.5-0.5,46.1-3.9,47.6-17.6
	C115.5,25,112.3,27,101,28.4z"/>
<path class="st1" d="M69.6,90.4c0,0-2.3,1.2-3.2,1.3c-1.3,0.1-2.7-0.9-5-0.8c-2.8,0-3.2,0.9-5.4,1.3c-2.1,0.4-3.1-0.8-5.4-0.5
	c-2.7,0.3-2.3,1.8-4.7,2.4c-1.8,0.5-3.6,0.1-5.3,0.7c-1.9,0.6-3.5,2.1-5.2,2.3c-1.5,0.2-3.1-0.2-5,0.1c-1.7,0.3-3.5,1.8-3.4,3.1
	c0,0.9,0.5,3.3,1.2,3.7c1.1,0.5,3.7-0.6,4.9-0.6c1.3-0.1,3.7,0.6,5,0.5c1.5-0.2,2.9-1,4.4-0.9c1.6,0.1,3.1,1.6,5.4,1.3
	c1.9-0.2,2.1-1.3,4.6-1.4c2.7-0.1,3.7,1.6,5.5,1.6c2.6,0,3.1-1.1,5.4-1.3c2.4-0.1,2.6,1,4.1,1.2c1.9,0.2,5.4-1.6,7.4-1.7
	c1.9,0,5.5,2.1,7.4,1.7c1.5-0.3,2.7-1.3,4.2-1.3c2.3,0.1,2.8,1.2,4.2,1.3c2.3,0.1,2.1-1,5.4-1.1c1.9-0.1,3.3,1.1,4.5,1.1
	c1.6,0,3.9-1.8,5.5-1.8c1.9-0.1,4.2,1.2,5.7,1.3c1.3,0.1,3.7-1.1,5-0.9c1.2,0.2,3.5,1.5,4.6,1c0.8-0.3,1.5-3.1,1-4.2s-2.4-3-3.6-3.3
	c-1.4-0.3-3,0.8-4.8,0.5c-1.4-0.2-3-1.8-4.3-2.3c-1.8-0.6-3.9,0.3-5.7-0.4c-1.3-0.5-3-2.2-4.7-2.4c-2.5-0.2-3.8,0.9-6.1,0.8
	c-2.6-0.1-3.5-1.4-5.3-1.6c-2.4-0.2-3.1,0.9-5,0.8c-2.4-0.2-2.6-1.5-2.6-1.5S69.6,90.4,69.6,90.4z"/>
<path class="st0" d="M66.4,79.5c0,0,0.4,6,0.9,13.5c0.1,2.1,2.3,6.1,7.9,6.1c6,0,8-4.1,8.1-6.2c0.1-2.3,0.4-10.9,0.4-10.9"/>
<g>
	<g>
		<path class="st2" d="M44.2,59.3c0.9-5.9,0.9-7.4,3.4-9.2c2.4-1.9,6.2-2.3,8.9-0.8c4,2.2,4.3,7.5,4.4,10.8
			c0.2,3.9-0.2,7.8-2.8,10.1c-2.1,1.9-6.3,2.2-9.3,1c-1.5-0.6-3.3-2.8-3.9-4.6C44,64.2,44,60.7,44.2,59.3z"/>
		<path d="M52.5,64.7c-0.8,0-1.5-0.7-1.5-1.5c0-0.8,0.7-1.5,1.5-1.5c0.8,0,1.5,0.7,1.5,1.5C54.1,64,53.3,64.7,52.5,64.7z"/>
	</g>
	<g>
		<path class="st2" d="M103.8,60.7c0.1-3.1-0.3-7.6-2.6-10.3c-1.9-2.1-6.2-3-8.5-2c-1.1,0.5-2.5,1.7-3.2,2.8c-1.5,2.2-1.8,5.6-2,8.9
			c-0.2,4.3,0.6,7.6,4.2,9.8c2.7,1.6,6.2,2,8.8,0.2C104.5,67.5,103.7,64.1,103.8,60.7z"/>
		<path d="M96.1,64.7c-0.9,0-1.6-0.7-1.6-1.6c0-0.9,0.7-1.6,1.6-1.6s1.6,0.7,1.6,1.6C97.7,64,97,64.7,96.1,64.7z"/>
	</g>
</g>
<path class="st0" d="M37.8,109.4c18.7-3.5,54.8-3.9,73.5-0.4"/>
<path class="st0" d="M67.6,115.7c4.9,0.9,9.9,0.9,14.8,0"/>
<path class="st3" d="M45.9,44.1c4.1-1.5,8.5-2.1,13.2-0.9"/>
<path class="st3" d="M89.8,43c5.1-0.9,9.7-0.5,13.7,1.1"/>
<path class="st0" d="M50.4,78c4.4,0.3,7.1-0.5,9.6-2.9"/>
<path class="st0" d="M91,75c2.2,1.8,5,2.1,8.4,1.1"/>
</svg>
