<?xml version="1.0" encoding="utf-8"?>
<!-- Generator: Adobe Illustrator 23.0.6, SVG Export Plug-In . SVG Version: 6.00 Build 0)  -->
<svg version="1.1" id="Layer_1" xmlns="http://www.w3.org/2000/svg" xmlns:xlink="http://www.w3.org/1999/xlink" x="0px" y="0px"
	 viewBox="0 0 150 150" style="enable-background:new 0 0 150 150;" xml:space="preserve">
<style type="text/css">
	.st0{fill:#FFFFFF;}
</style>
<title>L</title>
<path class="st0" d="M134.4,89.9c-0.9-0.5-2.3-1.5-2.7-1.9c-1.2-1.4-1.6-2.3-2.1-4c0-0.2-0.1-0.6-0.2-1c0,0,0.1,0,0.1,0
	c2.6-1.2,3.9-4,3.7-8.4c0,0,0,0,0,0c-0.1-1.8-0.3-6.3-3.1-7.6c0.6-8.8,1.3-21.1,1.3-27.6c0.1-10.7-7-15.4-9.6-17.1
	c-3.4-2.2-11.8-2.7-18.3-2.7h-57c-6.5,0-14.9,0.5-18.3,2.7c-2.7,1.7-9.7,6.4-9.6,17.1c0,5,0.4,14.2,1.3,27.5c-1.9,0.9-3,3.4-3.2,7.6
	c-0.2,4.4,1.1,7.3,3.8,8.4c0,0,0.1,0,0.1,0c-0.1,0.4-0.1,0.8-0.2,1.1c-0.5,1.8-0.9,2.6-2.1,4c-0.3,0.4-1.8,1.4-2.7,1.9
	c-0.2,0.1-0.3,0.3-0.2,0.5s0.2,0.4,0.4,0.4c1,0.2,2.2,0,3.7-0.5c-0.7,1.1-1.9,2.2-3.1,3.2c-0.2,0.1-0.2,0.4-0.1,0.6
	c0.1,0.2,0.3,0.3,0.5,0.3c2.1-0.3,3.9-1,5.3-1.9c-0.3,1.2-1,2.6-2.2,4.3c-0.1,0.2-0.1,0.4,0,0.6c0.1,0.1,0.2,0.2,0.4,0.2
	c0.1,0,0.1,0,0.2,0c1.4-0.4,2.7-1,3.9-1.7V110c0,8.5,7,15.5,15.5,15.5h70c8.5,0,15.5-7,15.5-15.5V95.9c1.3,0.7,2.6,1.3,3.9,1.7
	c0.1,0,0.1,0,0.2,0c0.2,0,0.3-0.1,0.4-0.2c0.1-0.2,0.1-0.4,0-0.6c-1.2-1.7-1.9-3.1-2.2-4.3c1.4,0.9,3.2,1.5,5.3,1.9
	c0.2,0,0.4-0.1,0.5-0.3c0.1-0.2,0-0.4-0.1-0.6c-1.1-1-2.3-2-3.1-3.2c1.6,0.5,2.7,0.6,3.7,0.5c0.2,0,0.4-0.2,0.4-0.4
	S134.5,90,134.4,89.9z"/>
</svg>
