<svg xmlns="http://www.w3.org/2000/svg" viewBox="0 0 150 150"><defs><style>.a{fill:#fff;}</style></defs><title>J.flash</title><path class="a" d="M110,130H40a17.7,17.7,0,0,1-7.17-1.5,3,3,0,0,1-1.8-2.86v0A18,18,0,0,1,22,110V51a15.32,15.32,0,0,1-.85-2c-1.68-5-4.78-17.57,2.73-25.07,5.35-5.35,15.1-7.23,24.85-4.79,1.64.36,3.41.85,5.16,1.42a39.51,39.51,0,0,1,4,1.49H61A30.82,30.82,0,0,1,76.41,2.48,3,3,0,0,1,80.3,6.82,24.64,24.64,0,0,0,77,13.94,31.09,31.09,0,0,1,91,5.53a3,3,0,0,1,2.87,5.07A24.73,24.73,0,0,0,87,22h5.13a37.8,37.8,0,0,1,4.07-1.5c1.71-.56,3.48-1.05,5.21-1.43,9.66-2.42,19.41-.54,24.76,4.81h0c7.51,7.51,4.41,20,2.73,25.07a15.32,15.32,0,0,1-.85,2v59a18,18,0,0,1-9,15.59v.06a3,3,0,0,1-1.8,2.85A17.7,17.7,0,0,1,110,130Z"/></svg>