<?xml version="1.0" encoding="utf-8"?>
<!-- Generator: Adobe Illustrator 23.0.6, SVG Export Plug-In . SVG Version: 6.00 Build 0)  -->
<svg version="1.1" id="Layer_1" xmlns="http://www.w3.org/2000/svg" xmlns:xlink="http://www.w3.org/1999/xlink" x="0px" y="0px"
	 viewBox="0 0 150 150" style="enable-background:new 0 0 150 150;" xml:space="preserve">
<style type="text/css">
	.st0{fill:#242424;stroke:#000000;stroke-linecap:round;stroke-linejoin:round;stroke-miterlimit:10;}
	.st1{fill:#F1B186;stroke:#000000;stroke-linecap:round;stroke-linejoin:round;stroke-miterlimit:10;}
	.st2{fill:none;stroke:#000000;stroke-linecap:round;stroke-linejoin:round;stroke-miterlimit:10;}
	.st3{fill:#FFFFFF;stroke:#000000;stroke-linecap:round;stroke-linejoin:round;stroke-miterlimit:10;}
	.st4{fill:none;stroke:#000000;stroke-width:1.5;stroke-linecap:round;stroke-linejoin:round;stroke-miterlimit:10;}
</style>
<path class="st0" d="M128.5,80c0,0,0.4,3.1,0.6,4.1c0.5,1.8,0.9,2.7,2.2,4.2c0.5,0.6,2.8,2,2.8,2c-1.3,0.2-2.9-0.2-4.6-0.8
	c0.5,1.5,1.9,2.9,3.7,4.4c-2.4-0.4-4.5-1.2-6.1-2.5c0.1,1.8,1.1,3.7,2.5,5.7c-3.4-1.1-6.2-2.9-8.8-5.1V80H128.5z"/>
<path class="st0" d="M21.5,80c0,0-0.4,3.1-0.6,4.1c-0.5,1.8-0.9,2.7-2.2,4.2c-0.5,0.6-2.8,2-2.8,2c1.3,0.2,2.9-0.2,4.6-0.8
	c-0.5,1.5-1.9,2.9-3.7,4.4c2.4-0.4,4.5-1.2,6.1-2.5c-0.1,1.8-1.1,3.7-2.5,5.7c3.4-1.1,6.2-2.9,8.8-5.1V80H21.5z"/>
<title>L</title>
<path class="st1" d="M132.7,74.6c-0.1-2.2-0.4-6.8-3.5-7.4c-2.7-0.6-4,2.7-4.3,3.6V40c0-8.3-6.7-15-15-15H40c-8.3,0-15,6.7-15,15
	v30.7c-0.3-0.9-1.5-4.2-4.3-3.6c-3,0.7-3.4,5.3-3.5,7.4c-0.1,2.4,0.1,6.5,3.5,7.9c1.4,0.6,3,0.5,4.3,0.3V110c0,8.3,6.7,15,15,15h70
	c8.3,0,15-6.7,15-15V82.8c1.2,0.2,2.9,0.3,4.3-0.3C132.6,81,132.8,77,132.7,74.6z"/>
<path class="st0" d="M102.9,48.2c0.1,1.1,0.9,1.9,2,2.1l8.9,1.6c1.2,0.2,2.3-0.5,2.7-1.6l2.1-5.9l0,0c-0.4,15,3.9,15.7,6.4,26.3l0,0
	c0.3-1,1.6-4.2,4.3-3.6c0.1,0,0.2,0.1,0.3,0.1c0.5-7.9,1.3-21.1,1.3-27.8c0.1-9.9-5.9-14.4-9.4-16.7c-3.2-2.1-11.5-2.6-18-2.6h-57
	c-6.6,0-14.8,0.5-18,2.6C25,25,19,29.5,19.1,39.4c0,6.7,0.8,20,1.3,27.8c0.1,0,0.2-0.1,0.3-0.1c2.7-0.6,4,2.6,4.3,3.6l0,0
	c4.1-12.2,9-13.9,8.2-27.3l0,0c0.2,0.6,1.6,4.6,2.4,7c0.4,1.1,1.4,1.7,2.6,1.6l13.2-1.6c1.2-0.1,2.1-1.1,2.1-2.3l0.2-3.8l0,0
	l1.7,3.6c0.4,0.9,1.3,1.4,2.3,1.4l17.7-0.9c1.1-0.1,2-0.9,2.2-2c0.7-3.9,1-7.9,1.1-11.8c1.4,3.3,2.5,7.2,2.8,11.8
	c0.2,1.1,1.1,2,2.2,2.1l14.4,1c1,0.1,2-0.5,2.4-1.5c0.7-1.5,1.2-3,1.5-4.4C102.7,44.8,102.9,46.4,102.9,48.2z"/>
<path class="st1" d="M67.3,85.6c0,0-1.6,3.2-1.2,10.4c-0.1,3.1,2.5,6.7,8.7,6.7c6.6,0,8.8-4.5,8.9-6.8C84.3,90.2,83,86,83,86"/>
<path class="st2" d="M37.8,101.1c18.7,6.3,54.8,7.1,73.5,0.7"/>
<g>
	<g>
		<path class="st3" d="M44,72.5c1-5.9,1.4-7.4,3.9-9.2c2.7-2,7.1-2.3,10.2-0.8c4.6,2.2,4.9,7.5,5.1,10.8c0.2,3.9-0.2,7.8-3.2,10.1
			c-2.4,1.9-7.3,2.2-10.7,1c-1.7-0.6-3.8-2.8-4.5-4.6C43.8,77.4,43.8,73.9,44,72.5z"/>
		<path d="M53.6,75c-0.9,0-1.6-0.7-1.6-1.6s0.7-1.6,1.6-1.6s1.6,0.7,1.6,1.6C55.3,74.3,54.5,75,53.6,75z"/>
	</g>
	<g>
		<path class="st3" d="M103.6,73.9c0.1-3.1-0.4-7.6-3-10.3c-2.2-2.1-7.2-3-9.9-2c-1.3,0.5-2.9,1.7-3.7,2.8c-1.8,2.2-2.1,5.6-2.3,8.9
			c-0.2,4.3,0.7,7.6,4.9,9.8c3.2,1.6,7.2,2,10.3,0.2C104.4,80.7,103.5,77.3,103.6,73.9z"/>
		<path d="M94.6,75c-0.9,0-1.6-0.7-1.6-1.6s0.7-1.6,1.6-1.6s1.6,0.7,1.6,1.6S95.5,75,94.6,75z"/>
	</g>
</g>
<g>
	<path class="st4" d="M43.9,62.4c4.7-3.4,9.6-4.2,14.5-3.1"/>
	<path class="st4" d="M88.1,59.6c6.4-2.3,11.4-1.5,15.1,2.4"/>
</g>
<path class="st1" d="M67.1,118.2c5.3,3.3,10.6,3.3,15.9,0"/>
<path class="st1" d="M21.6,70.7c0,0-1.2,1.7-1.2,4.9c0,2.6,2.2,4,2.2,4"/>
<path class="st1" d="M128.2,71.7c0,0,1.6,0.8,1.4,3.9c-0.2,2.3-1.8,3-1.8,3"/>
</svg>
