<?xml version="1.0" encoding="utf-8"?>
<!-- Generator: Adobe Illustrator 23.0.6, SVG Export Plug-In . SVG Version: 6.00 Build 0)  -->
<svg version="1.1" id="Layer_1" xmlns="http://www.w3.org/2000/svg" xmlns:xlink="http://www.w3.org/1999/xlink" x="0px" y="0px"
	 viewBox="0 0 150 150" style="enable-background:new 0 0 150 150;" xml:space="preserve">
<style type="text/css">
	.st0{fill:#FFFFFF;}
</style>
<title>L</title>
<path class="st0" d="M132.6,115.6c0-0.2-0.1-0.3-0.3-0.4c-0.2-0.1-0.4,0-0.5,0.1c-1.7,1.3-4.1,2-5,1.4c-1.4-0.9-1.1-5.1-0.8-10.9
	c0.1-1.7,0.2-3.5,0.3-5.5c0.3-6.2,0.8-12.6,2.4-22c0.3-1.9,0.6-3.6,0.9-5.3c1.3-7.1,2.3-12.6,2.3-21.1c0-12.3-2.1-20.5-6.3-25.2
	c-4.5-5-10.6-7.8-14.8-8.7c-5.8-1.3-14.9-2.5-21.8-1.9c-3.4,0.3-10.7,1.9-13.3,4.3c-0.1,0.1-0.4,0.4-0.7,0.8
	c-0.1-0.2-0.2-0.3-0.3-0.4c-0.1-0.1-0.2-0.2-0.3-0.4c-2.7-2.5-10-4-13.3-4.3c-6.8-0.6-16,0.6-21.7,1.9c-4.1,0.9-10.1,3.6-14.8,8.7
	c-4.3,4.7-6.3,13-6.3,25.2c0,8,0.9,13.3,2.1,20c0.4,2,0.7,4.1,1.1,6.4c1.7,10.2,2.1,17,2.4,22c0.1,2,0.2,3.8,0.3,5.5
	c0.3,5.8,0.6,10-0.8,10.9c-0.9,0.6-3.4-0.1-5-1.4c-0.1-0.1-0.3-0.1-0.5-0.1c-0.2,0.1-0.3,0.2-0.3,0.4c-0.5,4.6,0.4,7.8,2.6,9.7
	c3,3.1,11.8,5.3,15.7,5.1c3.4-0.3,10.5-2.1,15-4.9h48.2c4.4,2.7,11.5,4.6,15,4.9c0.2,0,0.5,0,0.8,0c4.2,0,12.2-2.1,14.9-5
	C132.2,123.5,133.1,120.2,132.6,115.6z"/>
</svg>
