<?xml version="1.0" encoding="utf-8"?>
<!-- Generator: Adobe Illustrator 23.0.6, SVG Export Plug-In . SVG Version: 6.00 Build 0)  -->
<svg version="1.1" id="Layer_1" xmlns="http://www.w3.org/2000/svg" xmlns:xlink="http://www.w3.org/1999/xlink" x="0px" y="0px"
	 viewBox="0 0 150 150" style="enable-background:new 0 0 150 150;" xml:space="preserve">
<style type="text/css">
	.st0{fill:#553223;stroke:#000000;stroke-linecap:round;stroke-linejoin:round;stroke-miterlimit:10;}
	.st1{fill:#D8A5A1;stroke:#000000;stroke-linecap:round;stroke-linejoin:round;stroke-miterlimit:10;}
	.st2{fill:#F1B186;stroke:#000000;stroke-linecap:round;stroke-linejoin:round;stroke-miterlimit:10;}
	.st3{fill:#FFFFFF;stroke:#000000;stroke-linecap:round;stroke-linejoin:round;stroke-miterlimit:10;}
	.st4{fill:none;stroke:#000000;stroke-linecap:round;stroke-linejoin:round;stroke-miterlimit:10;}
	.st5{fill:#F1B186;stroke:#000000;stroke-width:1.5;stroke-linecap:round;stroke-linejoin:round;stroke-miterlimit:10;}
	.st6{fill:#272727;stroke:#000000;stroke-linecap:round;stroke-linejoin:round;stroke-miterlimit:10;}
	.st7{fill:none;stroke:#D13B3C;stroke-width:2.5;stroke-linecap:round;stroke-linejoin:round;stroke-miterlimit:10;}
</style>
<path class="st0" d="M40,25h70c8.3,0,15,6.7,15,15v70c0,8.3-6.7,15-15,15H40c-8.3,0-15-6.7-15-15V40C25,31.7,31.7,25,40,25z"/>
<g>
	<path class="st1" d="M74,113.2c0,0,4.6-1.3,7.8-1.3c4.8,0,10,4.1,10,4.1l-15.5,7.1l-18-8.6"/>
	<path class="st1" d="M58.2,114.6c0,0,9.2-2.8,12.3-2.7c2.1,0,8.2,2.2,8.2,2.2"/>
</g>
<path class="st2" d="M110,25H40c-8.3,0-15,6.7-15,15v70c0,8.3,6.7,15,15,15h70c8.3,0,15-6.7,15-15V40C125,31.7,118.3,25,110,25z
	 M112.1,93.5c-2.4,7.4-7.8,12.3-11.7,15c-5.5,3.8-14.5,7.9-25.4,7.9s-19.9-4.1-25.4-7.9c-3.9-2.7-9.3-7.6-11.7-15
	c-0.2-0.7-0.1-3,0.7-3c1.6-0.1,8.6,4.7,17.1,6.7c4.7,1.1,14.5,2.2,19.4,2.3c4.9,0,14.6-1.1,19.4-2.3c8.4-2,15.5-6.8,17.1-6.7
	C112.2,90.5,112.3,92.8,112.1,93.5z"/>
<title>L</title>
<path class="st2" d="M66.7,79.9c0,0,0.1,1.6,0.6,9.1c0.1,2.1,2.3,6.1,7.9,6.1c6,0,8-4.1,8.1-6.2c0.1-2.3,0.4-9.8,0.4-9.8"/>
<g>
	<g>
		<path class="st3" d="M44.2,66.7c0.9-5.9,0.9-7.4,3.4-9.2c2.4-1.9,6.2-2.3,8.9-0.8c4,2.2,4.3,7.5,4.4,10.8
			c0.2,3.9-0.2,7.8-2.8,10.1c-2.1,1.9-6.3,2.2-9.3,1c-1.5-0.6-3.3-2.8-3.9-4.6C44,71.6,44,68.1,44.2,66.7z"/>
		<path d="M52.5,72.2c-0.9,0-1.6-0.7-1.6-1.6s0.7-1.6,1.6-1.6s1.6,0.7,1.6,1.6C54.2,71.5,53.4,72.2,52.5,72.2z"/>
		<g>
			<line class="st4" x1="49.6" y1="56.4" x2="48.8" y2="54.3"/>
			<line class="st4" x1="48.3" y1="57.1" x2="47.1" y2="55"/>
			<line class="st4" x1="46.9" y1="58.1" x2="45.2" y2="56.1"/>
			<line class="st4" x1="45.9" y1="59.3" x2="44" y2="58"/>
		</g>
	</g>
	<g>
		<path class="st3" d="M103.8,68.1c0.1-3.1-0.3-7.6-2.6-10.3c-1.9-2.1-6.2-3-8.5-2c-1.1,0.5-2.5,1.7-3.2,2.8c-1.5,2.2-1.8,5.6-2,8.9
			c-0.2,4.3,0.6,7.6,4.2,9.8c2.7,1.6,6.2,2,8.8,0.2C104.5,74.9,103.7,71.5,103.8,68.1z"/>
		<path d="M96.1,72.1c-0.9,0-1.6-0.7-1.6-1.6s0.7-1.6,1.6-1.6s1.6,0.7,1.6,1.6S97,72.1,96.1,72.1z"/>
		<g>
			<line class="st4" x1="99.3" y1="56.4" x2="100.1" y2="54.4"/>
			<line class="st4" x1="100.6" y1="57.3" x2="101.9" y2="55.1"/>
			<line class="st4" x1="102.4" y1="59.3" x2="104.3" y2="58.1"/>
			<line class="st4" x1="101.6" y1="58.3" x2="103.3" y2="56.2"/>
		</g>
	</g>
</g>
<path class="st2" d="M67.6,120.1c4.9,0.9,9.9,0.9,14.8,0"/>
<g>
	<path class="st5" d="M45.9,49.2c4.1-1.5,8.5-2.1,13.2-0.9"/>
	<path class="st5" d="M89.8,48.1c5.1-0.9,9.7-0.5,13.7,1.1"/>
</g>
<path class="st6" d="M132.1,115.7c-1.7,1.3-4.4,2.2-5.6,1.4c-2-1.4-1.1-7.4-0.7-16.9c0.3-5.6,0.7-12.2,2.4-22.1
	c1.7-10,3.2-15.9,3.2-26.3c0-6.5-0.5-18.6-6.2-24.9c-4.3-4.8-10.2-7.6-14.5-8.5c-6.3-1.4-15.2-2.5-21.6-1.9
	c-3.4,0.3-10.6,1.9-13,4.2c-0.3,0.3-0.7,0.8-1,1.4c-0.3-0.6-0.7-1-1-1.4c-2.5-2.3-9.6-3.9-13-4.2c-6.4-0.6-15.3,0.5-21.6,1.9
	c-4.3,0.9-10.1,3.7-14.5,8.5c-5.7,6.3-6.2,18.4-6.2,24.9c0,10.4,1.6,16.3,3.2,26.3c1.7,9.9,2.1,16.6,2.4,22.1
	c0.4,9.5,1.3,15.5-0.7,16.9c-1.2,0.8-3.9,0-5.6-1.4c-0.3,2.6-0.4,6.9,2.5,9.3c2.8,2.9,11.3,5.2,15.3,4.9c3.5-0.3,10.6-2.1,14.9-4.9
	h-7.3c-8.3,0-15-6.7-15-15v-3.4V93v-8.7c0.2-3.9,0.5-11.7,1.4-15.5c1.1-4.4,2.6-11.5,6.9-16.6c5.3-6.3,10.4-10.8,17.1-12
	c10.7-1.9,15.6-1.4,20.2-5.3c0.3-0.3,0.6-0.6,0.9-1.1c0.3,0.5,0.6,0.8,0.9,1.1c4.6,4,9.5,3.4,20.2,5.3c6.7,1.2,11.8,5.6,17.1,12
	c4.3,5.1,5.8,12.2,6.9,16.6c0.9,3.8,1.2,11.6,1.4,15.5v22.3l0,0v3.4c0,8.3-6.7,15-15,15h-7.2c4.3,2.7,11.4,4.6,14.9,4.9
	c4,0.3,12.6-2,15.3-4.9C132.5,122.6,132.4,118.3,132.1,115.7z"/>
<g>
	<path class="st7" d="M69.8,60.8c-8.1-8-23.3-10.8-39.7-5.8C29.1,90,68.9,88.9,69.8,60.8z"/>
	<path class="st7" d="M80.2,60.8c8.1-8,23.3-10.8,39.7-5.8C120.9,90,81.1,88.9,80.2,60.8z"/>
	<path class="st7" d="M69.8,60.8c0,0,0-1.3,5.2-1.3s5.2,1.3,5.2,1.3"/>
</g>
</svg>
