<?xml version="1.0" encoding="utf-8"?>
<!-- Generator: Adobe Illustrator 23.0.6, SVG Export Plug-In . SVG Version: 6.00 Build 0)  -->
<svg version="1.1" id="Layer_1" xmlns="http://www.w3.org/2000/svg" xmlns:xlink="http://www.w3.org/1999/xlink" x="0px" y="0px"
	 viewBox="0 0 150 150" style="enable-background:new 0 0 150 150;" xml:space="preserve">
<style type="text/css">
	.st0{fill:#FFFFFF;}
</style>
<title>L</title>
<path class="st0" d="M133.2,74.6C133.2,74.6,133.2,74.6,133.2,74.6c-0.1-2-0.3-7.2-3.9-7.9c-1.4-0.3-2.5,0.3-3.4,1.3
	c0.7-5.5,1-10.3,0.8-14.4c2.1-3,2.8-7.6,3.1-11.2c0.1,0,0.2,0,0.2,0c0.2-0.1,0.4-0.3,0.4-0.5c0-0.2-0.6-6-2.9-9.1
	c-1.4-2-4.1-3.9-5.8-5.1c0-0.2,0.1-0.4,0.1-0.5c0.6-2.5-1.3-7.3-1.4-7.5c-0.1-0.2-0.3-0.3-0.5-0.3c-0.2,0-0.4,0.2-0.4,0.4
	c-0.3,1.7-0.7,3.2-1.3,4.4c-0.3-0.6-0.8-1.4-1.3-2.1c-2-3-4.3-5-4.4-5.1c-0.1-0.1-0.4-0.2-0.5-0.1s-0.3,0.3-0.3,0.5
	c0,1-0.1,1.7-0.2,2.3c-1.1-1.9-2.6-3.4-4.5-4.4c-0.2-0.1-0.4-0.1-0.6,0.1c-0.2,0.1-0.2,0.3-0.2,0.5c0.4,1.2,0.5,2.1,0.4,2.9
	c-1.3-0.3-4.9-1-6.3-1.1c-1.3-0.1-4.9,0.4-5.5,0.5c-0.7-0.2-5-1.2-8.2-1.6c-5-0.6-14-0.8-18.1-0.8c0,0,0,0,0,0
	c-4-0.1-13.1,0.6-18.5,1.6c-3.5-1.5-4.9-2.7-6.3-4.9c-0.1-0.2-0.3-0.3-0.5-0.2c-0.2,0-0.4,0.2-0.4,0.4c-0.2,1.7-0.4,3.7,0.4,5.6
	c-1.4,0.2-4.5,0.7-6.4,1.4c-2.4,0.9-5.5,3.1-6.1,3.6c-0.9,0.1-5.6,0.8-7.7,2.4c-2,1.5-3.4,3.4-4.5,5.9c-0.7,1.5-1,4.6-1.3,7.1
	c-0.2,1.3-0.3,2.5-0.4,2.9c-0.1,0.2-0.3,0.5-0.5,0.8c-0.3,0.4-0.6,0.9-0.7,1.3c-0.1,0.4,0.1,1.1,0.3,1.7c0.1,0.5,0.3,1.1,0.3,1.2
	c-0.2,0.6-1.9,1.7-2.9,2.3c-0.2,0.1-0.3,0.3-0.3,0.5c0,0.2,0.1,0.4,0.3,0.4c0.1,0,2.1,0.9,4.1,0.9c0.5,0,1,0,1.6-0.1
	c-0.3,2.4-0.4,5-0.3,7.6c0,0.2,0.1,0.3,0.2,0.4c0.1,0.1,0.3,0.1,0.5,0c0.8-0.4,1.7-0.3,2.6-0.3c0.6,0,1.3,0.1,1.9,0c0,0,0,0,0,0
	c-0.1,1.5-0.2,5,0.4,9.8c-1-1.1-2.2-1.6-3.5-1.3c-2.4,0.5-3.7,3.2-3.9,7.9c-0.2,4.4,1.1,7.3,3.8,8.4c1.4,0.6,2.8,0.5,4,0.4V110
	c0,8.5,7,15.5,15.5,15.5h70c8.5,0,15.5-7,15.5-15.5V83.4c1.2,0.1,2.7,0.1,4-0.4C132.1,81.8,133.4,78.9,133.2,74.6z"/>
</svg>
