<svg xmlns="http://www.w3.org/2000/svg" viewBox="0 0 150 150"><defs><style>.a{fill:#fff;}</style></defs><title>O.flash</title><path class="a" d="M110,128H40a15.5,15.5,0,0,1-1.59-.08l-.53,0-1.1-.17c-.29,0-.57-.11-.86-.18s-.63-.15-.94-.24L34.2,127l-.59-.22c-.52-.19-1-.42-1.56-.67l-.32-.16c-.27-.14-.55-.3-.82-.46l-.41-.25A18.81,18.81,0,0,1,28,123.42l-.33-.31c-.23-.22-.47-.45-.7-.69l-.14-.15a18.8,18.8,0,0,1-1.41-1.71c-.28-.39-.5-.72-.71-1.06A18,18,0,0,1,22,110a8,8,0,0,1,2.6-5.9,11,11,0,0,1-.27-13.89,7,7,0,0,1-1.82-7.83A8.5,8.5,0,0,1,27.5,67H29V62.94A8,8,0,0,1,22,55V40A18,18,0,0,1,40,22h70a18,18,0,0,1,18,18V55a8,8,0,0,1-7,7.94V67h1.5a8.5,8.5,0,0,1,5,15.38,7,7,0,0,1-1.82,7.83,11,11,0,0,1-.27,13.89A8,8,0,0,1,128,110,18,18,0,0,1,110,128Z"/></svg>