<svg xmlns="http://www.w3.org/2000/svg" viewBox="0 0 150 150"><defs><style>.a{fill:#ffcc80;}.a,.b,.c,.d,.f,.h,.j{stroke:#000;stroke-width:6px;}.a,.b,.f{stroke-miterlimit:10;}.b{fill:#6d4c41;}.c{fill:#c62828;}.c,.d,.h,.j{stroke-linejoin:round;}.d{fill:#7cb342;}.e{fill:#ffb74d;}.f,.j{fill:none;}.g{fill:#5d4037;}.h{fill:#ffca28;}.i{fill:#689f38;}.k{fill:#b71c1c;}.l{fill:#ffc107;}</style></defs><title>O</title><path class="a" d="M30,105h90a5,5,0,0,1,5,5h0a15,15,0,0,1-15,15H40a15,15,0,0,1-15-15h0A5,5,0,0,1,30,105Z"/><path class="a" d="M40,25h70a15,15,0,0,1,15,15V55a5,5,0,0,1-5,5H30a5,5,0,0,1-5-5V40A15,15,0,0,1,40,25Z"/><path class="b" d="M33,89h84a8,8,0,0,1,8,8h0a8,8,0,0,1-8,8H33a8,8,0,0,1-8-8h0A8,8,0,0,1,33,89Z"/><rect class="c" x="32" y="60" width="61" height="10"/><rect class="c" x="57" y="60" width="61" height="10"/><path class="d" d="M27.5,70h95a5.5,5.5,0,0,1,5.5,5.5h0a5.5,5.5,0,0,1-5.5,5.5h-95A5.5,5.5,0,0,1,22,75.5h0A5.5,5.5,0,0,1,27.5,70Z"/><path class="e" d="M110,25H95a15,15,0,0,1,15,15V55a5,5,0,0,1-5,5h15a5,5,0,0,0,5-5V40A15,15,0,0,0,110,25Z"/><path class="f" d="M40,25h70a15,15,0,0,1,15,15V55a5,5,0,0,1-5,5H30a5,5,0,0,1-5-5V40A15,15,0,0,1,40,25Z"/><path class="e" d="M120,105h-9.3A15.06,15.06,0,0,1,96,117H26.75A15,15,0,0,0,40,125h70a15,15,0,0,0,15-15h0A5,5,0,0,0,120,105Z"/><path class="f" d="M30,105h90a5,5,0,0,1,5,5h0a15,15,0,0,1-15,15H40a15,15,0,0,1-15-15h0A5,5,0,0,1,30,105Z"/><path class="g" d="M117,89H102a8,8,0,0,1,8,8h0a8,8,0,0,1-8,8h15a8,8,0,0,0,8-8h0A8,8,0,0,0,117,89Z"/><path class="f" d="M33,89h84a8,8,0,0,1,8,8h0a8,8,0,0,1-8,8H33a8,8,0,0,1-8-8h0A8,8,0,0,1,33,89Z"/><path class="h" d="M121,81H29a4,4,0,0,0,0,8h1c8,0,15,8,15,8s7-8,15-8H90c8,0,15,8,15,8s7-8,15-8h1a4,4,0,0,0,0-8Z"/><path class="i" d="M122.5,70h-15a5.5,5.5,0,0,1,0,11h15a5.5,5.5,0,0,0,0-11Z"/><path class="j" d="M27.5,70h95a5.5,5.5,0,0,1,5.5,5.5h0a5.5,5.5,0,0,1-5.5,5.5h-95A5.5,5.5,0,0,1,22,75.5h0A5.5,5.5,0,0,1,27.5,70Z"/><rect class="k" x="106" y="60" width="12" height="10"/><rect class="j" x="57" y="60" width="61" height="10"/><path class="l" d="M105,97s7-8,15-8h1a4,4,0,0,0,0-8H106a4.13,4.13,0,0,1,4,4C110,88,105,91,105,97Z"/><path class="j" d="M121,81H29a4,4,0,0,0,0,8h1c8,0,15,8,15,8s7-8,15-8H90c8,0,15,8,15,8s7-8,15-8h1a4,4,0,0,0,0-8Z"/></svg>