<?xml version="1.0" encoding="utf-8"?>
<!-- Generator: Adobe Illustrator 23.0.6, SVG Export Plug-In . SVG Version: 6.00 Build 0)  -->
<svg version="1.1" id="Layer_1" xmlns="http://www.w3.org/2000/svg" xmlns:xlink="http://www.w3.org/1999/xlink" x="0px" y="0px"
	 viewBox="0 0 150 150" style="enable-background:new 0 0 150 150;" xml:space="preserve">
<style type="text/css">
	.st0{fill:#F1B186;stroke:#000000;stroke-linecap:round;stroke-linejoin:round;stroke-miterlimit:10;}
	.st1{fill:none;stroke:#000000;stroke-linecap:round;stroke-linejoin:round;stroke-miterlimit:10;}
	.st2{fill:#BCAEA1;stroke:#000000;stroke-linecap:round;stroke-linejoin:round;stroke-miterlimit:10;}
	.st3{fill:#694C28;stroke:#000000;stroke-linecap:round;stroke-linejoin:round;stroke-miterlimit:10;}
	.st4{fill:#FFFFFF;stroke:#000000;stroke-linecap:round;stroke-linejoin:round;stroke-miterlimit:10;}
	.st5{fill:none;stroke:#000000;stroke-width:1.5;stroke-linecap:round;stroke-linejoin:round;stroke-miterlimit:10;}
</style>
<path class="st0" d="M132.7,74.6c-0.1-2.2-0.4-6.8-3.5-7.4c-2.7-0.6-4,2.7-4.3,3.6V40c0-8.3-6.7-15-15-15H40c-8.3,0-15,6.7-15,15
	v30.7c-0.3-0.9-1.5-4.2-4.3-3.6c-3,0.7-3.4,5.3-3.5,7.4c-0.1,2.4,0.1,6.5,3.5,7.9c1.4,0.6,3,0.5,4.3,0.3V110c0,8.3,6.7,15,15,15h70
	c8.3,0,15-6.7,15-15V82.8c1.2,0.2,2.9,0.3,4.3-0.3C132.6,81,132.8,77,132.7,74.6z"/>
<title>L</title>
<path class="st1" d="M37.8,102.4c18.7-1.8,54.8-2,73.5-0.2"/>
<path class="st1" d="M67.6,108.7c4.9-0.3,9.9-0.3,14.8,0"/>
<path class="st2" d="M125,70.7c0,0-1.9,2.2-2.7,2.1c-1.6-0.3-2.7-4-3.1-5.6c-0.7-2.7,0.7-8.6,0-11.3c-1.1-4.6-4.3-18-3.7-17.9
	l13.9,3.2c-0.3,4-1,9.1-3.2,12.2C126.5,58.6,126,64.5,125,70.7z"/>
<path class="st2" d="M25,70.7c0.1,0.8,0.8,3.1,0.8,3.1l5.1-0.5c-1.1-7.9,0.2-15.1,3.6-21.9c-2.4-3.2-3.8-7.1-4.8-11.3l-10.2,8.7
	c-0.5,2.7-0.7,5.8-0.5,9.2c1.8-0.8,3.6,0.1,5.2-0.5C24.3,57.6,23.7,63,25,70.7z"/>
<g>
	<path class="st3" d="M111.3,32.4c0,0,3.8,6.2,5.7,7.5c2.1,1.4,7.1,2.6,9.6,2.5c0.8,0,3.3-0.6,3.3-0.6s-0.6-5.8-2.8-8.9
		c-2.1-3-7.2-5.9-7.2-5.9L111.3,32.4z"/>
	<path class="st3" d="M93.7,32.2c-2.1,0.9-13.1,5.2-23.5,5.2c-10.2,0.1-26.6-1-36.3-5.6c0,0,1.5,2.5,0.6,6.7c-0.6,3-3.5,6.1-6.3,7.9
		c-2.1,1.4-7,3.6-11,3.6c-1.9,0-3.9-0.9-3.9-0.9s2.9-1.5,3.2-2.6c0.1-0.7-0.6-2.3-0.5-3c0.1-0.6,1-1.4,1.2-2c0.4-1.4,0.7-7.7,1.7-10
		c0.7-1.7,1.9-3.9,4.3-5.7c2.2-1.6,7.6-2.3,7.6-2.3s3.5-2.6,6.1-3.6c2.4-0.9,7-1.5,7-1.5c-0.9-1.7-0.9-3.7-0.6-5.9
		c1.5,2.4,3.1,3.6,6.7,5.2c5.3-1,14.4-1.7,18.5-1.6c4.7,0,13.4,0.2,18.1,0.8c3.5,0.4,8.2,1.6,8.2,1.6s4.1-0.6,5.5-0.5
		c1.7,0.1,6.7,1.2,6.7,1.2c0.3-1.1,0.1-2.3-0.3-3.6c1.9,1,3.6,2.6,4.8,5.1c0.5-0.8,0.7-1.9,0.7-3.5c0,0,2.3,2,4.3,5
		c0.8,1.3,1.7,2.9,1.7,2.9c0.9-1.5,1.5-3.4,1.8-5.4c0,0,2,4.8,1.4,7.2c-0.6,2.7-2.2,5-4,6.1c-2.3,1.5-7.2,3-10.8,3.1
		c-2.4,0-7.1-0.3-9.5-0.7c-1.8-0.4-7.8-1.5-7.8-1.5"/>
</g>
<path class="st1" d="M66.2,66.7c0.1,2.9-2.4,12.4-1,16.4c1.6,4.6,6.1,7.5,9.5,7.5c3.1,0,8.9-2,10-7c0.9-4.2-0.6-14.1-0.8-16.9"/>
<g>
	<g>
		<path class="st4" d="M45,63.1c1.1-5.9,2.1-7.6,4-9.2c2.8-1.9,7.3-2.3,10.5-0.8c4.7,2.2,5.1,7.5,5.2,10.8c0.2,3.9-0.2,7.8-3.3,10.1
			c-2.5,1.9-7.4,2.2-11,1c-1.8-0.6-3.9-2.8-4.6-4.6C44.8,68,44.8,64.5,45,63.1z"/>
		<path d="M54.9,65.7c-0.9,0-1.6-0.7-1.6-1.6c0-0.9,0.7-1.6,1.6-1.6s1.6,0.7,1.6,1.6C56.6,65,55.8,65.7,54.9,65.7z"/>
	</g>
	<g>
		<path class="st4" d="M105.1,64.5c0-3.1-0.4-7.6-3.2-10.3c-2.3-2.1-7.5-3-10.3-2c-1.3,0.5-3,1.7-3.9,2.8c-1.8,2.2-2.2,5.6-2.4,8.9
			c-0.2,4.3,0.7,7.6,5.1,9.8c3.3,1.6,7.5,2,10.7,0.2C105.1,71.6,105.1,68,105.1,64.5z"/>
		<path d="M94.9,65.7c-0.9,0-1.6-0.7-1.6-1.6c0-0.9,0.7-1.6,1.6-1.6s1.6,0.7,1.6,1.6S95.8,65.7,94.9,65.7z"/>
	</g>
</g>
<g>
	<path class="st5" d="M46.6,47.9c4.1-1.5,8.5-2.1,13.2-0.9"/>
	<path class="st5" d="M90.5,46.8c5.1-0.9,9.7-0.5,13.7,1.1"/>
</g>
<g>
	<path class="st1" d="M51.3,79.7c4.1,0.7,7.5,0,9.9-2.1"/>
	<path class="st1" d="M88.4,76c2,1.8,4.5,2.6,7.5,2.2"/>
</g>
<g>
	<path class="st5" d="M29.7,57.7c-4.6,43.5,42.1,39.8,36,0H29.7z"/>
	<path class="st5" d="M84.1,57.7c-4.6,43.5,42.1,39.8,36,0H84.1z"/>
	<path class="st5" d="M66.2,61.5c0-1.5,6.6-1.7,8.8-1.7c2.2,0,8.8,0.3,8.8,1.7"/>
</g>
<path class="st1" d="M21.8,71.5c0,0-1.4,0.6-1.4,3.6c0,3.7,1.9,4.3,1.9,4.3"/>
<path class="st1" d="M127.6,71.4c0,0,1.6,0.3,1.6,4c0,3.1-1.6,3.6-1.6,3.6"/>
</svg>
