<?xml version="1.0" encoding="utf-8"?>
<!-- Generator: Adobe Illustrator 23.0.6, SVG Export Plug-In . SVG Version: 6.00 Build 0)  -->
<svg version="1.1" id="Layer_1" xmlns="http://www.w3.org/2000/svg" xmlns:xlink="http://www.w3.org/1999/xlink" x="0px" y="0px"
	 viewBox="0 0 150 150" style="enable-background:new 0 0 150 150;" xml:space="preserve">
<style type="text/css">
	.st0{fill:#FFFFFF;}
</style>
<title>L</title>
<path class="st0" d="M136.3,29c-12.5-11.6-36.2-13.3-51.1-8.3l-1.3,0c-2.4-0.1-5.1-0.2-8.9-0.2c-4.5,0-7.5,0.1-10.1,0.3
	C50,15.7,26.2,17.4,13.7,29c-0.1,0.1-0.2,0.3-0.1,0.5c0,0.2,0.2,0.3,0.4,0.4c3.5,0.9,7.4,1.3,12,1.1c-1.6,2.8-1.7,6.6-1.8,11.6
	c0,1.7-0.1,3.5-0.2,5.5c-0.5,12-0.1,44,0.1,59.4c0.1,4.3,0.1,7.3,0.1,8.4c0,12.9,6.2,16.1,8.6,17.3c3.2,1.7,6.9,2.6,10.9,2.6
	c2.5,0,5-0.3,7.6-1c1.3-0.3,4.2-1.8,4.7-3.4c0-0.1,0.1-0.3,0.1-0.4l8.9-0.9c0.1,0,0.3-0.1,0.3-0.2c0.1-0.1,0.1-0.2,0.1-0.4l-0.3-1.9
	c0-0.3-0.3-0.4-0.5-0.4l-9.3,0.9c-0.4-0.8-0.9-1.4-1.3-1.7c-0.7-0.6-1.8-0.8-3.1-0.9h47.9c-0.9,0.1-1.7,0.4-2.2,0.8
	c-0.4,0.4-0.9,1.1-1.3,1.8l-9.4-0.9c-0.3,0-0.5,0.2-0.5,0.4l-0.3,1.9c0,0.1,0,0.3,0.1,0.4c0.1,0.1,0.2,0.2,0.3,0.2l9,0.9
	c0,0.1,0,0.2,0.1,0.4c0.5,1.6,3.3,3,4.6,3.3c6.7,1.8,13.2,1.2,18.5-1.5c2.6-1.4,8.6-4.6,8.6-17.3c0-1,0-4,0.1-8.1
	c0.2-15.4,0.7-47.5,0.1-59.7c-0.1-1.9-0.1-3.7-0.2-5.4c-0.1-4.8-0.2-8.7-1.7-11.5c4.5,0.1,8.3-0.2,11.8-1.1c0.2,0,0.3-0.2,0.4-0.4
	S136.5,29.2,136.3,29z"/>
</svg>
