<svg xmlns="http://www.w3.org/2000/svg" viewBox="0 0 150 150"><defs><style>.a{fill:#fff;}.b{fill:#7cb342;}.b,.e,.f,.g{stroke:#000;}.b,.e,.g{stroke-linecap:round;}.b,.e,.f{stroke-linejoin:round;stroke-width:6px;}.c{fill:#689f38;}.d{fill:#558b2f;}.e,.g{fill:none;}.f{fill:#6d4c41;}.g{stroke-miterlimit:10;stroke-width:3px;}</style></defs><title>S</title><path class="a" d="M110,128H40a18.05,18.05,0,0,1-18-18V40A18.05,18.05,0,0,1,40,22h70a18.05,18.05,0,0,1,18,18v70A18.05,18.05,0,0,1,110,128Z"/><path class="b" d="M84.2,33.9A42.75,42.75,0,0,0,58,25H40A15,15,0,0,0,25,40v70a15,15,0,0,0,15,15h70a15,15,0,0,0,15-15h0V40a15,15,0,0,0-15-15H92a43.47,43.47,0,0,0-17,3.5"/><path class="c" d="M110,25h-4V92a6,6,0,0,1-6,6H50a6,6,0,0,1-6-6V25H40A15,15,0,0,0,25,40v70a15,15,0,0,0,15,15h70a15,15,0,0,0,15-15h0V40A15,15,0,0,0,110,25Z"/><path class="d" d="M114,25.6V101a9,9,0,0,1-9,9H45a9,9,0,0,1-9-9V25.6A15,15,0,0,0,25,40v70a15,15,0,0,0,15,15h70a15,15,0,0,0,15-15h0V40A15,15,0,0,0,114,25.6Z"/><path class="e" d="M84.2,33.9A42.75,42.75,0,0,0,58,25H40A15,15,0,0,0,25,40v70a15,15,0,0,0,15,15h70a15,15,0,0,0,15-15h0V40a15,15,0,0,0-15-15H92a43.47,43.47,0,0,0-17,3.5"/><path class="f" d="M82.8,32.2A45.49,45.49,0,0,0,84.5,20,44.44,44.44,0,0,0,81.8,4.7l-15,5.5A29.71,29.71,0,0,1,68.5,20a32.66,32.66,0,0,1-.8,7"/><path class="g" d="M84.2,33.9A42.75,42.75,0,0,0,58,25"/></svg>