<?xml version="1.0" encoding="utf-8"?>
<!-- Generator: Adobe Illustrator 23.0.6, SVG Export Plug-In . SVG Version: 6.00 Build 0)  -->
<svg version="1.1" id="Layer_1" xmlns="http://www.w3.org/2000/svg" xmlns:xlink="http://www.w3.org/1999/xlink" x="0px" y="0px"
	 viewBox="0 0 150 150" style="enable-background:new 0 0 150 150;" xml:space="preserve">
<style type="text/css">
	.st0{fill:#553223;stroke:#000000;stroke-linecap:round;stroke-linejoin:round;stroke-miterlimit:10;}
	.st1{fill:#D8A5A1;stroke:#000000;stroke-linecap:round;stroke-linejoin:round;stroke-miterlimit:10;}
	.st2{fill:#F1B186;stroke:#000000;stroke-linecap:round;stroke-linejoin:round;stroke-miterlimit:10;}
	.st3{fill:none;stroke:#000000;stroke-width:1.5;stroke-linecap:round;stroke-linejoin:round;stroke-miterlimit:10;}
	.st4{fill:#1F1F1F;stroke:#000000;stroke-linecap:round;stroke-linejoin:round;stroke-miterlimit:10;}
	.st5{fill:#FFFFFF;stroke:#000000;stroke-linecap:round;stroke-linejoin:round;stroke-miterlimit:10;}
	.st6{fill:none;stroke:#000000;stroke-linecap:round;stroke-linejoin:round;stroke-miterlimit:10;}
	.st7{fill:#E87AAB;stroke:#000000;stroke-linecap:round;stroke-linejoin:round;stroke-miterlimit:10;}
</style>
<path class="st0" d="M40,25h70c8.3,0,15,6.7,15,15v70c0,8.3-6.7,15-15,15H40c-8.3,0-15-6.7-15-15V40C25,31.7,31.7,25,40,25z"/>
<path class="st1" d="M85.7,111.6c0,0-1.4-3.7-3.5-5.4c-1.9-1.5-4.5-2.6-7.2-2.6s-5.4,1.1-7.2,2.6c-2.1,1.7-3.5,5.4-3.5,5.4"/>
<path class="st2" d="M110,25H40c-8.3,0-15,6.7-15,15v70c0,8.3,6.7,15,15,15h70c8.3,0,15-6.7,15-15V40C125,31.7,118.3,25,110,25z
	 M104.4,112.1c-6.5-1.2-16.1-2.4-29.4-2.4s-22.9,1.2-29.4,2.4c-3.3,0.6-7.8-0.7-7.8-4.9c0-2.1,2.1-6.1,4.2-8.4
	c3-3.2,6.5-6.6,14.4-9.1C63,87.5,70,87.5,75,87.5s12,0,18.5,2.2c7.9,2.6,11.5,6,14.4,9.1c2.1,2.3,4.2,6.3,4.2,8.4
	C112.2,111.4,107.7,112.7,104.4,112.1z"/>
<g>
	<path class="st3" d="M44,44.3c11.3-2.2,15.6,8.8,17.9,7.6"/>
	<g>
		<path class="st3" d="M88.1,51.9c2.3,1.2,6.7-9.8,17.9-7.6"/>
	</g>
</g>
<path class="st4" d="M100.7,36.2c0,0,2.9,9.5,6.2,14.7c3,4.7,12.2,8.9,12.2,8.9l-6-18.6L100.7,36.2z"/>
<path class="st2" d="M67,73.5c0,0,0,1.6,0,2.9c0.1,2.1,2.3,6.1,7.9,6.1c6,0,8-3.1,8.1-6.2c0-0.8,0-1.3,0-1.3"/>
<path class="st4" d="M49.3,36.2c0,0-2.9,9.5-6.2,14.7c-3,4.7-12.2,8.9-12.2,8.9l6-18.6L49.3,36.2z"/>
<title>L</title>
<g>
	<g>
		<path class="st5" d="M45.05,63c0.9-5.2,0.9-6.6,3.4-8.2c2.4-1.7,6.2-2,8.9-0.7c4,2,4.3,6.7,4.4,9.6c0.2,3.5-0.2,6.9-2.8,9
			c-2.1,1.7-6.3,2-9.3,0.9c-1.5-0.5-3.3-2.5-3.9-4.1C44.85,67.4,44.85,64.3,45.05,63z"/>
		<path d="M53.35,67.1c-0.9,0-1.6-0.7-1.6-1.6s0.7-1.6,1.6-1.6s1.6,0.7,1.6,1.6C55.05,66.4,54.25,67.1,53.35,67.1z"/>
		<g>
			<line class="st6" x1="50.535" y1="53.77" x2="49.65" y2="52"/>
			<line class="st6" x1="49.015" y1="54.44" x2="47.95" y2="52.6"/>
			<line class="st6" x1="47.802" y1="55.254" x2="46.05" y2="53.6"/>
			<line class="st6" x1="46.722" y1="56.384" x2="44.85" y2="55.3"/>
		</g>
	</g>
	<g>
		<path class="st5" d="M104.65,64.2c0.1-2.8-0.3-6.8-2.6-9.2c-1.9-1.9-6.2-2.7-8.5-1.8c-1.1,0.4-2.5,1.5-3.2,2.5c-1.5,2-1.8,5-2,7.9
			c-0.2,3.8,0.6,6.8,4.2,8.7c2.7,1.4,6.2,1.8,8.8,0.2C105.35,70.2,104.55,67.2,104.65,64.2z"/>
		<path d="M96.95,67c-0.9,0-1.6-0.7-1.6-1.6s0.7-1.6,1.6-1.6s1.6,0.7,1.6,1.6S97.85,67,96.95,67z"/>
		<g>
			<line class="st6" x1="100.09" y1="53.721" x2="100.95" y2="52"/>
			<line class="st6" x1="101.454" y1="54.494" x2="102.75" y2="52.6"/>
			<line class="st6" x1="103.108" y1="56.423" x2="105.15" y2="55.3"/>
			<line class="st6" x1="102.468" y1="55.479" x2="104.15" y2="53.6"/>
		</g>
	</g>
</g>
<path class="st2" d="M82.4,116.4c-4.9-0.9-9.9-0.9-14.8,0"/>
<g>
	<polyline class="st7" points="96.5,128.8 85.6,127.7 85.3,129.6 96.5,130.7 	"/>
	<polyline class="st7" points="53.5,128.8 64.4,127.7 64.7,129.6 53.5,130.7 	"/>
	<path class="st7" d="M75,33.6c11.8,0,17.1,1.6,23.7,3.4c12.2,3.2,14.1,11.9,15.9,17.2c1,2.9,2.7,8.6,3.4,12.9
		c1.5,10.1,1.6,15.9,1.6,18.1V110c0,8.3-6.7,15-15,15h0.4c-1.7,1.3-6.7,0.3-8.3,1.7c-0.9,0.8-2.2,3.3-1.9,4.5c0.4,1.3,3,2.7,4.3,3
		c6,1.6,12.6,1.4,18.1-1.5c2.8-1.5,8.3-4.8,8.3-16.9c0-4.9,1-52.4,0.2-67.8c-0.4-8.1,0.3-13.9-2.3-17.5c-2.1-3-7.5-5.4-13.1-6.4
		c-6.9-1.2-14.7-2.5-21.7-2.8c-3.6,0-7-0.3-13.6-0.3s-10,0.3-13.5,0.4c-7,0.3-14.8,1.7-21.7,2.8c-5.6,0.9-11,3.4-13.1,6.4
		c-2.6,3.6-1.9,9.3-2.3,17.5c-0.7,15.3,0.2,62.8,0.2,67.8c0,12.1,5.4,15.4,8.3,16.9c5.5,2.9,12,3.1,18.1,1.5c1.3-0.3,3.9-1.7,4.3-3
		c0.3-1.2-0.9-3.7-1.9-4.5c-1.6-1.4-6.7-0.4-8.3-1.7h0.4c-8.3,0-15-6.7-15-15V85.2c0-2.2,0.1-8,1.6-18.1c0.6-4.3,2.4-10,3.4-12.9
		c1.8-5.4,3.7-14,15.9-17.2C57.9,35.2,63.2,33.6,75,33.6z"/>
	<g>
		<path class="st7" d="M70.1,23.6c-13.4-7.6-42-7.3-56.1,5.8c12.5,3.2,26.3-1.4,36.3-0.9"/>
		<g>
			<path class="st7" d="M29.5,30.3c1.3-1.7,4-2.6,5.4-3.9"/>
			<path class="st7" d="M33.5,29.9c1.2-1.4,3.5-2.2,4.8-3.6"/>
			<path class="st7" d="M37.4,29.448c0.9-0.9,3.4-1.848,4.4-3.048"/>
		</g>
	</g>
	<g>
		<path class="st7" d="M79.9,23.6c13.4-7.6,42-7.3,56.1,5.8c-12.5,3.2-26.3-1.4-36.3-0.9"/>
		<g>
			<path class="st7" d="M120.5,30.3c-1.3-1.7-4-2.6-5.4-3.9"/>
			<path class="st7" d="M116.5,29.9c-1.2-1.4-3.5-2.2-4.8-3.6"/>
			<path class="st7" d="M112.6,29.448c-0.9-0.9-3.4-1.848-4.4-3.048"/>
		</g>
	</g>
</g>
<path class="st7" d="M96.7,128.3"/>
</svg>
