<?xml version="1.0" encoding="utf-8"?>
<!-- Generator: Adobe Illustrator 23.0.6, SVG Export Plug-In . SVG Version: 6.00 Build 0)  -->
<svg version="1.1" id="Layer_1" xmlns="http://www.w3.org/2000/svg" xmlns:xlink="http://www.w3.org/1999/xlink" x="0px" y="0px"
	 viewBox="0 0 150 150" style="enable-background:new 0 0 150 150;" xml:space="preserve">
<style type="text/css">
	.st0{fill:#FFFFFF;}
</style>
<title>L</title>
<path class="st0" d="M131.3,62.1c0-9.3-0.7-26-5.4-32.9c-2.2-3.3-7.5-6.6-11.7-7.2C94.4,19,55,19,36,22c-3.9,0.6-9.2,3.8-11.7,7.2
	c-4.8,6.4-5,17.9-5.2,27.1c0,2.1-0.1,4.2-0.2,6c-0.5,7.8,0.6,27.5,3.7,35c0.6,1.4,1.4,2.6,1.9,3.2v9.5c0,8.5,7,15.5,15.5,15.5h70
	c8.5,0,15.5-7,15.5-15.5v-9.2c0.3-0.4,1.4-1.8,2.1-3.5c2.5-6,3.1-19.9,3.5-29c0.1-2.2,0.2-4.1,0.3-5.7c0-0.1,0-0.2,0-0.3
	C131.3,62.3,131.3,62.2,131.3,62.1z"/>
</svg>
