<svg xmlns="http://www.w3.org/2000/svg" viewBox="0 0 150 150"><defs><style>.a{fill:#9354ff;}.a,.f,.g,.i,.k,.l{stroke:#000;}.a,.d,.f,.g,.i,.j,.k{stroke-linejoin:round;}.a,.f{stroke-width:6px;}.b{opacity:0.5;}.c,.d,.f,.i,.j,.k,.l{fill:none;}.c,.d{stroke:#800090;}.c,.d,.j,.k,.l{stroke-linecap:round;}.c,.l{stroke-miterlimit:10;}.c,.d,.g,.i{stroke-width:3px;}.d{opacity:0.7;}.e{opacity:0.6;}.g{fill:#fffad6;}.h{fill:#776200;}.j{stroke:#600070;}.j,.l{stroke-width:4px;}.k{stroke-width:5px;}</style></defs><title>T</title><path class="a" d="M110,25H40A15,15,0,0,0,25,40v70a15,15,0,0,0,15,15h5.66a5.66,5.66,0,0,1,4,1.66l2.68,2.68a5.66,5.66,0,0,0,4,1.66H93.66a5.66,5.66,0,0,0,4-1.66l2.68-2.68a5.66,5.66,0,0,1,4-1.66H110a15,15,0,0,0,15-15V40A15,15,0,0,0,110,25Z"/><g class="b"><path class="c" d="M41.5,124.5,41.31,110a15.45,15.45,0,0,0-5.52-12.22"/></g><g class="b"><path class="c" d="M50.23,126.5,50,105a14.49,14.49,0,0,0-6.71-12.22"/></g><line class="d" x1="75" y1="99.5" x2="75" y2="130"/><path class="d" d="M103.76,48.88A11.94,11.94,0,0,0,96,46H55a11.91,11.91,0,0,0-8.28,3.35"/><path class="d" d="M103.76,38.88A11.94,11.94,0,0,0,96,36H55a11.91,11.91,0,0,0-8.28,3.35"/><g class="b"><path class="c" d="M97.71,86.78A14.49,14.49,0,0,0,91,99l-.23,10A13.47,13.47,0,0,1,94,118c0,6.63-4.25,12-9.5,12"/></g><g class="e"><path class="c" d="M70,130c-2.76,0-5-5.37-5-12a21.89,21.89,0,0,1,1.7-9V99a22.17,22.17,0,0,0-7-16.49"/></g><g class="b"><path class="c" d="M65.5,130c-5.25,0-9.5-5.37-9.5-12a13.47,13.47,0,0,1,3.23-9L59,99a14.49,14.49,0,0,0-6.71-12.22"/></g><g class="e"><path class="c" d="M90.31,82.51A22.17,22.17,0,0,0,83.3,99v10a21.89,21.89,0,0,1,1.7,9c0,6.63-2.24,12-5,12"/></g><g class="b"><path class="c" d="M108.5,124.5l.19-14.5a15.45,15.45,0,0,1,5.52-12.22"/></g><g class="b"><path class="c" d="M99.77,126.5,100,105a14.49,14.49,0,0,1,6.71-12.22"/></g><path class="f" d="M110,25H40A15,15,0,0,0,25,40v70a15,15,0,0,0,15,15h5.66a5.66,5.66,0,0,1,4,1.66l2.68,2.68a5.66,5.66,0,0,0,4,1.66H93.66a5.66,5.66,0,0,0,4-1.66l2.68-2.68a5.66,5.66,0,0,1,4-1.66H110a15,15,0,0,0,15-15V40A15,15,0,0,0,110,25Z"/><path class="g" d="M44.5,70.5s5.14-4.84,12-4.84c6.19,0,12,4.84,12,4.84a30.09,30.09,0,0,1-12,2.77C50.65,73.27,44.5,70.5,44.5,70.5Z"/><path class="g" d="M105.5,70.5s-5.14-4.84-12-4.84c-6.19,0-12,4.84-12,4.84a30.09,30.09,0,0,0,12,2.77C99.35,73.27,105.5,70.5,105.5,70.5Z"/><circle class="h" cx="56.51" cy="68.92" r="3.26"/><circle class="h" cx="93.49" cy="68.92" r="3.26"/><path class="i" d="M44.5,70.5s5.14-4.84,12-4.84c6.19,0,12,4.84,12,4.84a30.09,30.09,0,0,1-12,2.77C50.65,73.27,44.5,70.5,44.5,70.5Z"/><path class="i" d="M105.5,70.5s-5.14-4.84-12-4.84c-6.19,0-12,4.84-12,4.84a30.09,30.09,0,0,0,12,2.77C99.35,73.27,105.5,70.5,105.5,70.5Z"/><path class="j" d="M43,59s2.08-1.5,8.61-1.5S68,64,68,64"/><path class="j" d="M107,59s-2.08-1.5-8.61-1.5S82,64,82,64"/><line class="k" x1="62" y1="104" x2="90" y2="104"/><path class="l" d="M68.47,91.05A10.87,10.87,0,0,0,75,93.5"/><path class="l" d="M78.26,78s-.87,7.73,1.09,8.71c1.61.8,3.41,3.43,2.18,4.35A10.87,10.87,0,0,1,75,93.5"/><path class="l" d="M71.74,78s.87,7.73-1.09,8.71c-1.61.8-3.41,3.43-2.18,4.35A10.87,10.87,0,0,0,75,93.5"/><path class="l" d="M81.53,91.05A10.87,10.87,0,0,1,75,93.5"/></svg>