<?xml version="1.0" encoding="utf-8"?>
<!-- Generator: Adobe Illustrator 23.0.6, SVG Export Plug-In . SVG Version: 6.00 Build 0)  -->
<svg version="1.1" id="Layer_1" xmlns="http://www.w3.org/2000/svg" xmlns:xlink="http://www.w3.org/1999/xlink" x="0px" y="0px"
	 viewBox="0 0 150 150" style="enable-background:new 0 0 150 150;" xml:space="preserve">
<style type="text/css">
	.st0{fill:#F1B186;stroke:#000000;stroke-linecap:round;stroke-linejoin:round;stroke-miterlimit:10;}
	.st1{fill:#F1B186;stroke:#000000;stroke-width:1.5;stroke-linecap:round;stroke-linejoin:round;stroke-miterlimit:10;}
	.st2{fill:#212121;stroke:#000000;stroke-width:0;stroke-linecap:round;stroke-linejoin:round;}
	.st3{fill:#212121;stroke:#000000;stroke-linecap:round;stroke-linejoin:round;}
	.st4{fill:#FFFFFF;stroke:#0D0F0B;stroke-width:5;stroke-linecap:round;stroke-linejoin:round;stroke-miterlimit:10;}
	.st5{fill:#F1B186;stroke:#0D0F0B;stroke-width:5;stroke-linecap:round;stroke-linejoin:round;stroke-miterlimit:10;}
	.st6{fill:#FADB79;stroke:#000000;stroke-miterlimit:10;}
</style>
<title>L</title>
<path class="st0" d="M40,25h70c8.3,0,15,6.7,15,15v70c0,8.3-6.7,15-15,15H40c-8.3,0-15-6.7-15-15V40C25,31.7,31.7,25,40,25z"/>
<path class="st0" d="M39.3,113.6c17.9-3.5,52.6-3.9,70.5-0.4"/>
<path class="st0" d="M67.6,118.7c4.9,3.3,9.9,3.3,14.8,0"/>
<g>
	<path class="st1" d="M45.9,55.3c4.1-1.5,8.5-2.1,13.2-0.9"/>
	<path class="st1" d="M89.8,54.2c5.1-0.9,9.7-0.5,13.7,1.1"/>
</g>
<path class="st0" d="M67,92.8c0,0,0.2,3.1,0.3,5.2c0.1,2.1,2.3,6.1,7.9,6.1c6,0,8-4.1,8.1-6.2c0.1-2.9,0.3-6.2,0.3-6.2"/>
<g>
	<path class="st2" d="M116.6,47.2"/>
	<path class="st3" d="M116.6,47.2c0,0,4.5,7.2,5.3,9.6c2.6,7.8,2.7,14.1,3.1,22.4v21.4c0,0,1.3-1.6,2.1-3.5
		c3.1-7.4,3.2-26.8,3.7-34.8c-0.2,4.2,0.9-23.6-5.3-32.8c-2.2-3.3-7.4-6.4-11.4-7c-19.3-2.9-58.8-3-78,0c-3.9,0.6-9,3.8-11.4,7
		c-5.8,7.7-4.8,23.1-5.3,32.8c-0.5,8,0.6,27.4,3.7,34.8c0.8,1.9,2.1,3.5,2.1,3.5V79.2c0.1-8.2,0.5-14.5,3.1-22.4
		c1.4-4.1,8.9-15.7,8.9-15.7c-0.8,4,0.8,7.6,4.1,8.7c4.5,1.5,9.8,0.8,13-0.4c4.1-1.6,12.4-9.2,12.4-9.2s-1.6,2.8-1,5.9
		c0.6,3.2,3.3,5.2,5.1,5.7c3,1,9.8-0.4,14.1-2.2c6.4-2.7,11.2-8.6,11.2-8.6s-0.9,2.9-0.6,6.1c0.3,3.2,2.8,4.5,4.6,4.9
		c3.6,0.8,10.3-0.1,13.5-2.1C114.3,49.5,115.5,48.5,116.6,47.2c1-1.2,2.6-3.3,2.6-3.3"/>
</g>
<g>
	<path class="st4" d="M28.8,61.3h33.1c3,0,5.5,2.5,5.5,5.5v12.7c0,6-4.8,10.8-10.8,10.8H44.1c-6.1,0-11-4.9-11-11v-18"/>
	<path class="st4" d="M121.2,61.3H88.1c-3,0-5.5,2.5-5.5,5.5v12.7c0,6,4.8,10.8,10.8,10.8h12.5c6.1,0,11-4.9,11-11v-18"/>
	<path class="st5" d="M67.4,69.9c0-1.9,5.6-2.5,7.6-2.5c1.9,0,7.6,0.6,7.6,2.5"/>
	<path d="M49.7,79.9c-1.4,0-2.5-1.1-2.5-2.5c0-1.4,1.1-2.5,2.5-2.5c1.4,0,2.5,1.1,2.5,2.5C52.4,78.8,51.1,79.9,49.7,79.9z"/>
	<path d="M100.3,79.9c-1.4,0-2.5-1.1-2.5-2.5c0-1.4,1.1-2.5,2.5-2.5c1.4,0,2.5,1.1,2.5,2.5C102.9,78.8,101.7,79.9,100.3,79.9z"/>
</g>
<ellipse transform="matrix(0.7312 -0.6821 0.6821 0.7312 -14.798 30.3735)" class="st6" cx="31.1" cy="34" rx="1.5" ry="5.1"/>
</svg>
