<svg xmlns="http://www.w3.org/2000/svg" viewBox="0 0 150 150"><defs><style>.a{fill:#fff;isolation:isolate;}</style></defs><title>Z.flash</title><path class="a" d="M110,128H40a18,18,0,0,1-18-18V40c0-.53,0-1.06.08-1.61,0-.3.07-.61.12-.92l0-.21a2.5,2.5,0,0,1,.06-.38c.07-.4.16-.82.26-1.23l0-.14A18,18,0,0,1,40,22H58a44.66,44.66,0,0,1,7.37.59c.08-.88.13-1.75.13-2.6A26.69,26.69,0,0,0,64,11.2L63,8.4,83.58.85l1,2.82A47.14,47.14,0,0,1,87.5,20c0,.74,0,1.48-.06,2.24A43.82,43.82,0,0,1,92,22h18a18,18,0,0,1,17.42,13.53l0,.17c.09.36.18.77.26,1.19,0,.12,0,.24,0,.36l0,.21q.08.47.12.93c0,.56.08,1.08.08,1.6v70A18,18,0,0,1,110,128Z"/></svg>