<?xml version="1.0" encoding="utf-8"?>
<!-- Generator: Adobe Illustrator 23.0.6, SVG Export Plug-In . SVG Version: 6.00 Build 0)  -->
<svg version="1.1" id="Layer_1" xmlns="http://www.w3.org/2000/svg" xmlns:xlink="http://www.w3.org/1999/xlink" x="0px" y="0px"
	 viewBox="0 0 150 150" style="enable-background:new 0 0 150 150;" xml:space="preserve">
<style type="text/css">
	.st0{fill:#FFFFFF;}
</style>
<title>Z</title>
<path class="st0" d="M133.2,74.6C133.2,74.6,133.2,74.6,133.2,74.6c-0.1-2-0.3-7.2-3.9-7.9c-1.7-0.4-3,0.6-3.9,1.9v-2l1.4-0.4
	c0.3-0.1,0.4-0.4,0.3-0.6c-0.1-0.3-0.4-0.4-0.6-0.3l-1.2,0.3v-4.3h0.6c0.3,0,0.5-0.2,0.5-0.5s-0.2-0.5-0.5-0.5h-0.6v-5.4l1.1,0.5
	c0.1,0,0.1,0,0.2,0c0.2,0,0.4-0.1,0.5-0.3c0.1-0.2,0-0.5-0.2-0.7l-1.5-0.7v-2.5l0.9-0.5c0.2-0.1,0.3-0.4,0.2-0.7
	c-0.1-0.2-0.5-0.3-0.7-0.2l-0.3,0.2v-2.7c0.4-0.3,1.2-0.9,1.4-1.4c0.5-0.9,1.1-8.5,0.6-9.6c-0.2-0.5-0.8-0.9-1.5-1.2
	c-0.6-2.2-1.5-5.5-2.4-6.8c-1.5-2.1-6.2-4.6-8.5-5.2c-1.9-0.5-4.9-0.4-7.8-0.3c-1.9,0.1-3.6,0.1-4.8,0c-0.9-0.1-2-0.3-3.3-0.5
	c-2.4-0.4-5.2-0.9-7-0.9c-0.7,0-1.8,0.1-2.8,0.3c-1.5,0.2-3.3,0.4-4.3,0.2c-0.6-0.1-1.5-0.4-2.5-0.8c-1.3-0.5-2.7-1-3.7-0.9
	c-1,0.1-2.2,0.6-3.6,1.2c-1.4,0.6-2.9,1.3-3.9,1.2c-0.8,0-2-0.5-3.3-1c-1.2-0.5-2.4-1-3.3-1c-2.1-0.1-5.2,0.5-8.2,1.1
	c-2.2,0.5-4.3,0.9-5.8,1c-1.3,0.1-3.2,0.1-5.1,0.1c-4,0-8.6,0-11.3,0.8c-2.6,0.8-6.9,4-8.4,6c-0.6,0.8-1.2,2.7-1.6,4.3
	c-0.7,0.6-1.6,1.6-1.8,2.4c-0.3,1.4,0.1,8.1,0.4,9.1c0.2,0.6,1.1,1.5,1.5,1.9v2.3l-0.3-0.3c-0.2-0.2-0.5-0.2-0.7,0s-0.2,0.5,0,0.7
	l1.1,1.1v3.6h-0.7c-0.3,0-0.5,0.2-0.5,0.5s0.2,0.5,0.5,0.5h0.7v1.9l-1,0.7c-0.2,0.2-0.3,0.5-0.1,0.7c0.1,0.1,0.3,0.2,0.4,0.2
	c0.1,0,0.2,0,0.3-0.1l0.4-0.3V65l-0.4-0.3c-0.2-0.2-0.5-0.2-0.7,0c-0.2,0.2-0.2,0.5,0,0.7l1,1v2.2c-1-1.5-2.4-2.2-3.9-1.9
	c-2.4,0.5-3.7,3.2-3.9,7.9c-0.2,4.4,1.1,7.3,3.8,8.4c1.4,0.6,2.8,0.5,4,0.4v1.8l-0.4,0.1c-0.3,0.1-0.4,0.3-0.4,0.6
	c0.1,0.2,0.3,0.4,0.5,0.4c0,0,0.1,0,0.1,0l0.2,0v9.7h-0.7c-0.3,0-0.5,0.2-0.5,0.5s0.2,0.5,0.5,0.5h0.7v10.8
	c-0.1,0.1-0.1,0.2-0.1,0.3s0,0.2,0.1,0.3v1.8c0,0.8,0.1,1.5,0.2,2.3l-1.1,0.5c-0.3,0.1-0.4,0.4-0.3,0.7c0.1,0.2,0.3,0.3,0.5,0.3
	c0.1,0,0.1,0,0.2,0l0.9-0.4c0.5,2.1,1.3,4,2.6,5.7c0,0,0,0.1,0,0.1c0,0.1,0.1,0.2,0.2,0.2c2.8,3.7,7.3,6.2,12.3,6.2h1.9l-0.9,1.3
	c-0.2,0.2-0.1,0.5,0.1,0.7c0.1,0.1,0.2,0.1,0.3,0.1c0.2,0,0.3-0.1,0.4-0.2l1.4-1.9h11.8l-0.2,1.5c0,0.3,0.2,0.5,0.4,0.6
	c0,0,0,0,0.1,0c0.2,0,0.5-0.2,0.5-0.4l0.2-1.7h6.4l-0.3,1.5c0,0.3,0.1,0.5,0.4,0.6c0,0,0.1,0,0.1,0c0.2,0,0.5-0.2,0.5-0.4l0.3-1.7
	h9.8v0.1c0,0.3,0.2,0.5,0.5,0.5s0.5-0.2,0.5-0.5v-0.1h4.4l0.2,1.7c0,0.2,0.2,0.4,0.5,0.4c0,0,0,0,0.1,0c0.3,0,0.5-0.3,0.4-0.6
	l-0.2-1.5h11l0.3,0.7c0.1,0.2,0.3,0.3,0.5,0.3c0.1,0,0.1,0,0.2,0c0.3-0.1,0.4-0.4,0.3-0.7l-0.1-0.3h15.9l1,1.8
	c0.1,0.2,0.3,0.3,0.4,0.3c0.1,0,0.2,0,0.2-0.1c0.2-0.1,0.3-0.4,0.2-0.7l-0.7-1.4h1.3c2.7,0,5.3-0.7,7.5-2l2,1.4
	c0.1,0.1,0.2,0.1,0.3,0.1c0.2,0,0.3-0.1,0.4-0.2c0.2-0.2,0.1-0.5-0.1-0.7l-1.6-1.1c2.5-1.6,4.4-3.9,5.7-6.6l1.3,0.4c0,0,0.1,0,0.1,0
	c0.2,0,0.4-0.1,0.5-0.4c0.1-0.3-0.1-0.5-0.3-0.6l-1.3-0.4c0.6-1.7,1-3.5,1-5.4v-5l0,0c0,0,0.1,0,0.1,0c0.2,0,0.4-0.2,0.5-0.4
	c0.1-0.3-0.1-0.5-0.4-0.6l-0.2,0v-8.9h0.5c0.3,0,0.5-0.2,0.5-0.5s-0.2-0.5-0.5-0.5h-0.5v-6.4h0.5c0.3,0,0.5-0.2,0.5-0.5
	s-0.2-0.5-0.5-0.5h-0.5v-3.3c1.2,0.1,2.7,0.1,4-0.4C132.1,81.8,133.4,78.9,133.2,74.6z"/>
</svg>
