<?xml version="1.0" encoding="utf-8"?>
<!-- Generator: Adobe Illustrator 23.0.6, SVG Export Plug-In . SVG Version: 6.00 Build 0)  -->
<svg version="1.1" id="Layer_1" xmlns="http://www.w3.org/2000/svg" xmlns:xlink="http://www.w3.org/1999/xlink" x="0px" y="0px"
	 viewBox="0 0 150 150" style="enable-background:new 0 0 150 150;" xml:space="preserve">
<style type="text/css">
	.st0{fill:#F1B186;stroke:#000000;stroke-linecap:round;stroke-linejoin:round;stroke-miterlimit:10;}
	.st1{fill:none;stroke:#000000;stroke-linecap:round;stroke-linejoin:round;stroke-miterlimit:10;}
	.st2{fill:#FFFFFF;stroke:#000000;stroke-linecap:round;stroke-linejoin:round;stroke-miterlimit:10;}
	.st3{fill:none;stroke:#000000;stroke-width:1.5;stroke-linecap:round;stroke-linejoin:round;stroke-miterlimit:10;}
	.st4{fill:#596370;stroke:#000000;stroke-linecap:round;stroke-linejoin:round;stroke-miterlimit:10;}
</style>
<title>Z</title>
<path class="st0" d="M132.75,74.6c-0.1-2.2-0.4-6.8-3.5-7.4c-2.7-0.6-4,2.7-4.3,3.6V40c0-8.3-6.7-15-15-15h-69.9
	c-8.3,0-15,6.7-15,15v30.7c-0.3-0.9-1.5-4.2-4.3-3.6c-3,0.7-3.4,5.3-3.5,7.4c-0.1,2.4,0.1,6.5,3.5,7.9c1.4,0.6,3,0.5,4.3,0.3V110
	c0,8.3,6.7,15,15,15h70c8.3,0,15-6.7,15-15V82.8c1.2,0.2,2.9,0.3,4.3-0.3C132.65,81,132.85,77,132.75,74.6z"/>
<path class="st1" d="M38.25,94.1c18.7-1.8,54.8-2,73.5-0.2"/>
<path class="st1" d="M70.5,98.5c3-0.3,6-0.3,9,0"/>
<path class="st0" d="M66.321,69.5c0.1,2.9-2.4,12.4-1,16.4c1.6,4.6,6.1,7.5,9.5,7.5c3.1,0,8.9-2,10-7c0.9-4.2-0.6-14.1-0.8-16.9"/>
<g>
	<g>
		<path class="st2" d="M45.002,63.1c1.1-5.9,2.1-7.6,4-9.2c2.8-1.9,7.3-2.3,10.5-0.8c4.7,2.2,5.1,7.5,5.2,10.8
			c0.2,3.9-0.2,7.8-3.3,10.1c-2.5,1.9-7.4,2.2-11,1c-1.8-0.6-3.9-2.8-4.6-4.6C44.802,68,44.802,64.5,45.002,63.1z"/>
		<path d="M54.902,65.7c-0.9,0-1.6-0.7-1.6-1.6s0.7-1.6,1.6-1.6s1.6,0.7,1.6,1.6C56.602,65,55.802,65.7,54.902,65.7z"/>
	</g>
	<g>
		<path class="st2" d="M105.102,64.5c0-3.1-0.4-7.6-3.2-10.3c-2.3-2.1-7.5-3-10.3-2c-1.3,0.5-3,1.7-3.9,2.8
			c-1.8,2.2-2.2,5.6-2.4,8.9c-0.2,4.3,0.7,7.6,5.1,9.8c3.3,1.6,7.5,2,10.7,0.2C105.102,71.6,105.102,68,105.102,64.5z"/>
		<path d="M94.902,65.7c-0.9,0-1.6-0.7-1.6-1.6s0.7-1.6,1.6-1.6s1.6,0.7,1.6,1.6C96.502,65,95.802,65.7,94.902,65.7z"/>
	</g>
</g>
<g>
	<path class="st3" d="M46.2,47.9c4.1-1.5,12.4-2.4,17.1-1.2"/>
	<path class="st3" d="M88,47.1c5.1-0.9,12.1-0.3,15.8,2"/>
</g>
<g>
	<path class="st1" d="M51.35,79.7c4.1,0.7,7.5,0,9.9-2.1"/>
	<path class="st1" d="M88.45,76c2,1.8,4.5,2.6,7.5,2.2"/>
</g>
<path class="st1" d="M21.85,71.5c0,0-1.4,0.6-1.4,3.6c0,3.7,1.9,4.3,1.9,4.3"/>
<path class="st1" d="M127.65,71.4c0,0,1.6,0.3,1.6,4c0,3.1-1.6,3.6-1.6,3.6"/>
<g>
	<path class="st4" d="M24.25,37.1c0,0,1.2-5.6,2.3-7.1c1.5-2,5.7-5.1,8.1-5.8c3.9-1.2,12.2-0.6,16.3-0.9c3.5-0.2,10.4-2.3,13.9-2.1
		c1.7,0.1,4.9,2,6.6,2c2,0.1,5.6-2.3,7.5-2.4c1.6-0.1,4.5,1.5,6.1,1.7c1.8,0.3,5.4-0.5,7.2-0.5c2.6,0,7.7,1.1,10.2,1.4
		c3.1,0.3,9.5-0.5,12.5,0.3c2.3,0.6,6.8,3.1,8.2,5c1.3,1.8,2.8,8.5,2.8,8.5H24.25V37.1z"/>
	<path class="st4" d="M125.05,47.1c0,0-0.1-5.1-50.1-5.1c-51.2,0-49.9,5.1-49.9,5.1s-1.3-1.2-1.5-1.8c-0.3-0.9-0.7-7.5-0.4-8.8
		c0.2-0.8,1.5-2.1,2.2-2.5c0.6-0.3,5.8-2.4,49.7-2.4c44,0,48.7,3.1,50,3.7c0.7,0.3,1.8,0.8,2,1.3c0.4,1-0.2,8.4-0.6,9.2
		C126.25,46.3,125.05,47.1,125.05,47.1z"/>
</g>
<line class="st1" x1="60.15" y1="85.3" x2="59.25" y2="86"/>
<line class="st1" x1="48.65" y1="86" x2="47.55" y2="86"/>
<line class="st1" x1="52.85" y1="88.5" x2="51.35" y2="89.2"/>
<line class="st1" x1="38.25" y1="87.2" x2="36.55" y2="87.2"/>
<line class="st1" x1="29.55" y1="80.9" x2="27.95" y2="80"/>
<line class="st1" x1="31.05" y1="85.7" x2="29.85" y2="85.7"/>
<line class="st1" x1="33.55" y1="92.2" x2="32.45" y2="92.2"/>
<line class="st1" x1="26.45" y1="90.3" x2="25.05" y2="90.3"/>
<line class="st1" x1="25.75" y1="85.3" x2="24.25" y2="85.7"/>
<line class="st1" x1="24.95" y1="96.3" x2="23.85" y2="96.3"/>
<line class="st1" x1="31.65" y1="97.1" x2="30.45" y2="97.1"/>
<line class="st1" x1="41.45" y1="100.5" x2="39.95" y2="101.3"/>
<line class="st1" x1="33.55" y1="100.5" x2="31.65" y2="100.9"/>
<line class="st1" x1="27.35" y1="103.5" x2="26.15" y2="103.5"/>
<line class="st1" x1="26.15" y1="107.9" x2="24.95" y2="107.9"/>
<line class="st1" x1="36.55" y1="106.9" x2="34.85" y2="107.4"/>
<line class="st1" x1="31.05" y1="111.6" x2="29.15" y2="112.1"/>
<line class="st1" x1="25.25" y1="112.6" x2="23.85" y2="113.2"/>
<line class="st1" x1="44.95" y1="103.5" x2="43.35" y2="104.5"/>
<line class="st1" x1="50.95" y1="97.6" x2="49.95" y2="99.1"/>
<line class="st1" x1="59.25" y1="98.2" x2="59.75" y2="99.8"/>
<line class="st1" x1="54.05" y1="103.5" x2="53.35" y2="105.3"/>
<line class="st1" x1="45.65" y1="109" x2="43.35" y2="110.7"/>
<line class="st1" x1="38.25" y1="114.1" x2="36.55" y2="115.1"/>
<line class="st1" x1="29.85" y1="118" x2="27.95" y2="118.9"/>
<line class="st1" x1="35.75" y1="122.3" x2="34.85" y2="123.3"/>
<line class="st1" x1="45.65" y1="117.4" x2="44.55" y2="119.7"/>
<line class="st1" x1="55.55" y1="112.1" x2="54.85" y2="114.1"/>
<line class="st1" x1="51.35" y1="119.7" x2="50.95" y2="121.8"/>
<line class="st1" x1="55.55" y1="125" x2="55.25" y2="127.1"/>
<line class="st1" x1="42.95" y1="125" x2="41.45" y2="127.1"/>
<line class="st1" x1="63.15" y1="115.8" x2="63.15" y2="118"/>
<line class="st1" x1="64.95" y1="103.5" x2="64.95" y2="105.3"/>
<line class="st1" x1="72.75" y1="107.4" x2="72.75" y2="109.9"/>
<line class="st1" x1="69.45" y1="117.4" x2="70.05" y2="119.7"/>
<line class="st1" x1="63.15" y1="124.2" x2="62.65" y2="127.1"/>
<line class="st1" x1="78.05" y1="114.6" x2="78.05" y2="116.3"/>
<line class="st1" x1="62.65" y1="107.9" x2="62.15" y2="109.9"/>
<line class="st1" x1="79.05" y1="104.4" x2="79.55" y2="106.9"/>
<line class="st1" x1="87.15" y1="97.6" x2="86.75" y2="99.8"/>
<line class="st1" x1="85.15" y1="110.7" x2="85.75" y2="113.1"/>
<line class="st1" x1="82.65" y1="118.9" x2="82.65" y2="121.2"/>
<line class="st1" x1="73.75" y1="123.3" x2="73.75" y2="125.6"/>
<line class="st1" x1="90.55" y1="124.2" x2="91.35" y2="126"/>
<line class="st1" x1="91.35" y1="116.3" x2="91.35" y2="118.9"/>
<line class="st1" x1="91.35" y1="104.4" x2="92.35" y2="106.9"/>
<line class="st1" x1="98.55" y1="99.1" x2="100.15" y2="101.3"/>
<line class="st1" x1="99.35" y1="110.7" x2="100.95" y2="113.1"/>
<line class="st1" x1="99.35" y1="121.2" x2="100.15" y2="124.2"/>
<line class="st1" x1="107.45" y1="117.4" x2="109.05" y2="119.7"/>
<line class="st1" x1="107.45" y1="124.2" x2="109.05" y2="127.1"/>
<line class="st1" x1="115.15" y1="117" x2="116.65" y2="118.2"/>
<line class="st1" x1="117.25" y1="122.7" x2="119.85" y2="124.5"/>
<line class="st1" x1="89.05" y1="84.4" x2="90.55" y2="85.3"/>
<line class="st1" x1="95.95" y1="88.5" x2="98.55" y2="88.5"/>
<line class="st1" x1="98.55" y1="83.4" x2="100.95" y2="83.9"/>
<line class="st1" x1="109.05" y1="87.2" x2="111.15" y2="87.2"/>
<line class="st1" x1="116.65" y1="82.5" x2="119.35" y2="82"/>
<line class="st1" x1="115.15" y1="90.6" x2="117.95" y2="91.3"/>
<line class="st1" x1="108.25" y1="106.5" x2="110.05" y2="107.9"/>
<line class="st1" x1="109.05" y1="99.8" x2="111.85" y2="101.3"/>
<line class="st1" x1="117.95" y1="109.9" x2="120.65" y2="110.7"/>
<line class="st1" x1="123.05" y1="104" x2="125.65" y2="104.5"/>
<line class="st1" x1="123.05" y1="115.5" x2="125.65" y2="116.3"/>
<line class="st1" x1="117.95" y1="95.9" x2="119.85" y2="96.5"/>
<line class="st1" x1="124.35" y1="87.2" x2="126.05" y2="87.2"/>
<line class="st1" x1="43.75" y1="90.3" x2="42.15" y2="90.3"/>
<line class="st1" x1="105.15" y1="82.5" x2="107.45" y2="82.3"/>
<line class="st1" x1="119.85" y1="75.7" x2="121.15" y2="74.2"/>
<line class="st1" x1="28.75" y1="72.8" x2="27.35" y2="71"/>
<line class="st1" x1="25.05" y1="66.1" x2="23.85" y2="65"/>
<line class="st1" x1="25.05" y1="57.8" x2="23.85" y2="58.6"/>
<line class="st1" x1="24.95" y1="55.1" x2="23.85" y2="55.1"/>
<line class="st1" x1="25.05" y1="50.8" x2="23.85" y2="49.6"/>
<line class="st1" x1="125.05" y1="66.2" x2="126.75" y2="65.7"/>
<line class="st1" x1="125.05" y1="60.8" x2="126.05" y2="60.8"/>
<line class="st1" x1="125.05" y1="54.2" x2="126.75" y2="55"/>
<line class="st1" x1="125.05" y1="51" x2="126.05" y2="50.4"/>
<line class="st1" x1="79.05" y1="125" x2="79.35" y2="127.1"/>
<line class="st1" x1="124.35" y1="94.6" x2="126.05" y2="94.6"/>
</svg>
